M48
; DRILL file {KiCad 5.1.5+dfsg1-2} date So 14. března 2020, 19:31:17 CET
; FORMAT={3:3/ absolute / metric / suppress leading zeros}
; #@! TF.CreationDate,2020-03-14T19:31:17+01:00
; #@! TF.GenerationSoftware,Kicad,Pcbnew,5.1.5+dfsg1-2
FMAT,2
METRIC,TZ
T1C0.400
T2C1.500
%
G90
G05
T1
X8500Y11500
X8500Y10500
X10508Y3484
X11000Y14000
X11000Y8000
X11508Y3484
X12000Y14000
X12000Y8000
X12508Y1984
X13508Y1984
X15008Y3484
X16000Y14500
X16000Y9500
X16008Y3484
X16510Y1125
X16561Y-1981
X16561Y-5842
X16653Y5699
X17000Y14500
X17500Y11500
X18000Y14500
X18034Y2032
X18500Y11500
X18796Y-1956
X19000Y14500
X20000Y14500
X21000Y14500
X21000Y11000
X21000Y9500
X21000Y8000
X21000Y6500
X22000Y14000
X22200Y762
X22708Y13437
X22860Y-6528
X23241Y6350
X23500Y13000
X24500Y13500
X24678Y-3327
X25436Y-7449
X25500Y14000
X25500Y10500
X25500Y9500
X25500Y8500
X25500Y7500
X25832Y-5182
X26000Y11500
X26500Y14000
X27026Y-3378
X27500Y14000
X28500Y8000
X28804Y4826
X29442Y508
X29500Y12500
X29500Y8000
X30500Y12000
X30500Y8000
X31500Y12000
X31500Y8000
X32500Y12000
X32500Y8000
X33500Y12000
X34874Y533
X36500Y13000
X36703Y-5766
X37500Y13000
X39000Y11500
X39000Y10500
T2
X8960Y13540
X8960Y8460
X11500Y11000
X14040Y13540
X14040Y8460
X34544Y13540
X34544Y8460
X37084Y11000
X39624Y13540
X39624Y8460
T0
M30
