G04 #@! TF.GenerationSoftware,KiCad,Pcbnew,5.1.5+dfsg1-2*
G04 #@! TF.CreationDate,2020-03-14T19:30:29+01:00*
G04 #@! TF.ProjectId,BlinkySWR-0.2-S,426c696e-6b79-4535-9752-2d302e322d53,rev?*
G04 #@! TF.SameCoordinates,Original*
G04 #@! TF.FileFunction,Copper,L1,Top*
G04 #@! TF.FilePolarity,Positive*
%FSLAX46Y46*%
G04 Gerber Fmt 4.6, Leading zero omitted, Abs format (unit mm)*
G04 Created by KiCad (PCBNEW 5.1.5+dfsg1-2) date 2020-03-14 19:30:29*
%MOMM*%
%LPD*%
G04 APERTURE LIST*
%ADD10R,1.700000X0.900000*%
%ADD11R,0.900000X1.700000*%
%ADD12R,1.550000X0.600000*%
%ADD13R,2.550000X2.700000*%
%ADD14C,2.500000*%
%ADD15C,2.000000*%
%ADD16R,1.000000X1.250000*%
%ADD17R,0.900000X0.800000*%
%ADD18R,1.060000X0.650000*%
%ADD19R,0.700000X1.300000*%
%ADD20R,1.300000X0.700000*%
%ADD21R,1.220000X0.910000*%
%ADD22R,1.250000X1.000000*%
%ADD23C,0.800000*%
%ADD24C,0.500000*%
%ADD25C,1.000000*%
%ADD26C,0.250000*%
%ADD27C,0.254000*%
G04 APERTURE END LIST*
D10*
X29210000Y13642000D03*
X29210000Y10742000D03*
X29210000Y6170000D03*
X29210000Y9070000D03*
D11*
X27104000Y5842000D03*
X24204000Y5842000D03*
X19632000Y11430000D03*
X22532000Y11430000D03*
X19632000Y6350000D03*
X22532000Y6350000D03*
X27104000Y10922000D03*
X24204000Y10922000D03*
D12*
X20480000Y-1919000D03*
X20480000Y-3189000D03*
X20480000Y-4459000D03*
X20480000Y-5729000D03*
X15080000Y-5729000D03*
X15080000Y-4459000D03*
X15080000Y-3189000D03*
X15080000Y-1919000D03*
D13*
X30353000Y-8382000D03*
X36703000Y-8382000D03*
X30353000Y-3302000D03*
X36703000Y-3302000D03*
D14*
X39624000Y8460000D03*
X34544000Y8460000D03*
X39624000Y13540000D03*
X34544000Y13540000D03*
D15*
X37084000Y11000000D03*
D14*
X8960000Y13540000D03*
X14040000Y13540000D03*
X8960000Y8460000D03*
X14040000Y8460000D03*
D15*
X11500000Y11000000D03*
D16*
X23778000Y-3302000D03*
X25778000Y-3302000D03*
D10*
X31750000Y10742000D03*
X31750000Y13642000D03*
X31750000Y9070000D03*
X31750000Y6170000D03*
D11*
X24204000Y3302000D03*
X27104000Y3302000D03*
X19632000Y8890000D03*
X22532000Y8890000D03*
X27104000Y8382000D03*
X24204000Y8382000D03*
X22532000Y3810000D03*
X19632000Y3810000D03*
D17*
X20570000Y-7600000D03*
X20570000Y-9700000D03*
X18538000Y-9700000D03*
X18538000Y-7600000D03*
X16506000Y-7600000D03*
X16506000Y-9700000D03*
X14474000Y-9700000D03*
X14474000Y-7600000D03*
X12442000Y-7600000D03*
X12442000Y-9700000D03*
X10410000Y-9700000D03*
X10410000Y-7600000D03*
D18*
X27774000Y710000D03*
X27774000Y-1190000D03*
X25574000Y-1190000D03*
X25574000Y-240000D03*
X25574000Y710000D03*
D19*
X30292000Y508000D03*
X32192000Y508000D03*
D20*
X33782000Y2352000D03*
X33782000Y4252000D03*
D19*
X27874000Y-9906000D03*
X25974000Y-9906000D03*
X11872000Y0D03*
X9972000Y0D03*
D20*
X8382000Y2606000D03*
X8382000Y4506000D03*
X19558000Y1712000D03*
X19558000Y-188000D03*
D19*
X22164000Y-8382000D03*
X24064000Y-8382000D03*
X9972000Y-5334000D03*
X11872000Y-5334000D03*
D20*
X8128000Y-5776000D03*
X8128000Y-3876000D03*
D21*
X36830000Y6461000D03*
X36830000Y3191000D03*
X15494000Y2429000D03*
X15494000Y5699000D03*
X17526000Y13319000D03*
X17526000Y10049000D03*
X10922000Y5699000D03*
X10922000Y2429000D03*
D16*
X33798000Y508000D03*
X35798000Y508000D03*
X28972000Y3556000D03*
X30972000Y3556000D03*
X9922000Y-2032000D03*
X11922000Y-2032000D03*
D22*
X13208000Y5572000D03*
X13208000Y3572000D03*
X17780000Y5318000D03*
X17780000Y3318000D03*
D16*
X17510000Y0D03*
X15510000Y0D03*
D22*
X23626000Y-1240000D03*
X23626000Y760000D03*
D23*
X24677998Y-3327400D03*
X22860000Y-6527800D03*
X25831800Y-5181600D03*
X18796000Y-1955800D03*
X27025600Y-3378200D03*
X22199600Y762000D03*
X16510000Y1125000D03*
X34874200Y533400D03*
X29442000Y508000D03*
X36703000Y-5765800D03*
X16560800Y-5842000D03*
X28803600Y4826000D03*
X23241000Y6350000D03*
X18034000Y2032000D03*
X16653000Y5699000D03*
X25435635Y-7449021D03*
X16560800Y-1981200D03*
X11508000Y3484000D03*
X10508000Y3484000D03*
X12508000Y1984000D03*
X13508000Y1984000D03*
X15008000Y3484000D03*
X16008000Y3484000D03*
X11000000Y14000000D03*
X12000000Y14000000D03*
X8500000Y11500000D03*
X8500000Y10500000D03*
X11000000Y8000000D03*
X12000000Y8000000D03*
X16000000Y9500000D03*
X17500000Y11500000D03*
X18500000Y11500000D03*
X17000000Y14500000D03*
X16000000Y14500000D03*
X18000000Y14500000D03*
X19000000Y14500000D03*
X20000000Y14500000D03*
X21000000Y14500000D03*
X22000000Y14000000D03*
X21000000Y11000000D03*
X21000000Y9500000D03*
X21000000Y8000000D03*
X21000000Y6500000D03*
X27500000Y14000000D03*
X26500000Y14000000D03*
X25500000Y14000000D03*
X24500000Y13500000D03*
X23500000Y13000000D03*
X30500000Y12000000D03*
X31500000Y12000000D03*
X32500000Y12000000D03*
X33500000Y12000000D03*
X29500000Y12500000D03*
X36500000Y13000000D03*
X37500000Y13000000D03*
X39000000Y11500000D03*
X39000000Y10500000D03*
X32500000Y8000000D03*
X31500000Y8000000D03*
X30500000Y8000000D03*
X29500000Y8000000D03*
X28500000Y8000000D03*
X26000000Y11500000D03*
X25500000Y10500000D03*
X25500000Y9500000D03*
X25500000Y8500000D03*
X25500000Y7500000D03*
X22707600Y13436600D03*
D24*
X23676000Y-1190000D02*
X23626000Y-1240000D01*
X25574000Y-1190000D02*
X23676000Y-1190000D01*
X23778000Y-1392000D02*
X23626000Y-1240000D01*
X23778000Y-3302000D02*
X23778000Y-1392000D01*
X23803400Y-3327400D02*
X23778000Y-3302000D01*
X24677998Y-3327400D02*
X23803400Y-3327400D01*
D25*
X30353000Y-3302000D02*
X30353000Y-8382000D01*
X28829000Y-9906000D02*
X30353000Y-8382000D01*
X27874000Y-9906000D02*
X28829000Y-9906000D01*
D24*
X25645800Y-6527800D02*
X23425685Y-6527800D01*
X23425685Y-6527800D02*
X22860000Y-6527800D01*
X27874000Y-8756000D02*
X25645800Y-6527800D01*
X27874000Y-9906000D02*
X27874000Y-8756000D01*
X26397485Y-5181600D02*
X25831800Y-5181600D01*
X30353000Y-3302000D02*
X29634761Y-4020239D01*
X26602073Y-4977012D02*
X26397485Y-5181600D01*
X28575621Y-4020239D02*
X27667639Y-4928221D01*
X29634761Y-4020239D02*
X28575621Y-4020239D01*
X27667639Y-4928221D02*
X26916035Y-4928221D01*
X26916035Y-4928221D02*
X26867244Y-4977012D01*
X26867244Y-4977012D02*
X26602073Y-4977012D01*
X18796000Y-1955800D02*
X20480000Y-1919000D01*
X26793999Y520001D02*
X26793999Y24999D01*
X25574000Y710000D02*
X26604000Y710000D01*
X26604000Y710000D02*
X26793999Y520001D01*
X25524000Y760000D02*
X25574000Y710000D01*
X23626000Y760000D02*
X25524000Y760000D01*
X26793999Y-282401D02*
X26947699Y-128701D01*
X26793999Y-2161001D02*
X26793999Y-282401D01*
X25778000Y-3177000D02*
X26793999Y-2161001D01*
X25778000Y-3302000D02*
X25778000Y-3177000D01*
X26793999Y24999D02*
X26947699Y-128701D01*
D25*
X25854200Y-3378200D02*
X25778000Y-3302000D01*
X27025600Y-3378200D02*
X25854200Y-3378200D01*
D24*
X29442000Y508000D02*
X30292000Y508000D01*
X28868999Y-65001D02*
X29442000Y508000D01*
X26883999Y-65001D02*
X28868999Y-65001D01*
X26793999Y24999D02*
X26883999Y-65001D01*
X11872000Y0D02*
X15510000Y0D01*
X11872000Y-1982000D02*
X11922000Y-2032000D01*
X11872000Y0D02*
X11872000Y-1982000D01*
X22201600Y760000D02*
X22199600Y762000D01*
X23626000Y760000D02*
X22201600Y760000D01*
X16510000Y1125000D02*
X15510000Y125000D01*
X15510000Y125000D02*
X15510000Y0D01*
X35798000Y508000D02*
X34899600Y508000D01*
X34899600Y508000D02*
X34874200Y533400D01*
D25*
X36703000Y-3302000D02*
X36703000Y-5765800D01*
X36703000Y-5765800D02*
X36703000Y-8382000D01*
D24*
X15685800Y-5729000D02*
X15080000Y-5729000D01*
X16560800Y-5842000D02*
X15685800Y-5729000D01*
X16510000Y2173000D02*
X17655000Y3318000D01*
X16510000Y1125000D02*
X16510000Y2173000D01*
X14358400Y4597400D02*
X16179800Y4597400D01*
X13208000Y3572000D02*
X13333000Y3572000D01*
X13333000Y3572000D02*
X14358400Y4597400D01*
X17655000Y3318000D02*
X17780000Y3318000D01*
X16375600Y4597400D02*
X17655000Y3318000D01*
X16179800Y4597400D02*
X16375600Y4597400D01*
D25*
X22532000Y8890000D02*
X22532000Y6350000D01*
X23696000Y8890000D02*
X24204000Y8382000D01*
X22532000Y8890000D02*
X23696000Y8890000D01*
X23696000Y6350000D02*
X24204000Y5842000D01*
X22532000Y6350000D02*
X23696000Y6350000D01*
D24*
X21582000Y5000000D02*
X22532000Y5950000D01*
X22532000Y5950000D02*
X22532000Y6350000D01*
X21582000Y3739998D02*
X21582000Y5000000D01*
X20402001Y2559999D02*
X21582000Y3739998D01*
X18861999Y2559999D02*
X20402001Y2559999D01*
X18103998Y3318000D02*
X18861999Y2559999D01*
X17780000Y3318000D02*
X18103998Y3318000D01*
X24204000Y7186000D02*
X24278000Y7112000D01*
D25*
X24204000Y5842000D02*
X24204000Y7186000D01*
X24204000Y7186000D02*
X24204000Y8382000D01*
D24*
X28972000Y3556000D02*
X28972000Y4657600D01*
X28972000Y4657600D02*
X28803600Y4826000D01*
X21388000Y-240000D02*
X21336000Y-188000D01*
X25574000Y-240000D02*
X21388000Y-240000D01*
X19476000Y-188000D02*
X19288000Y0D01*
X21336000Y-188000D02*
X19476000Y-188000D01*
X17698000Y-188000D02*
X17510000Y0D01*
X19558000Y-188000D02*
X17698000Y-188000D01*
X17399000Y5699000D02*
X17780000Y5318000D01*
X15494000Y5699000D02*
X17399000Y5699000D01*
X19558000Y1712000D02*
X18354000Y1712000D01*
X18354000Y1712000D02*
X18034000Y2032000D01*
D25*
X17526000Y5572000D02*
X17780000Y5318000D01*
X17526000Y10049000D02*
X17526000Y5572000D01*
D24*
X13081000Y5572000D02*
X12954000Y5699000D01*
X11049000Y5572000D02*
X10922000Y5699000D01*
X13208000Y5572000D02*
X11049000Y5572000D01*
X9575000Y5699000D02*
X8382000Y4506000D01*
X10922000Y5699000D02*
X9575000Y5699000D01*
X9602000Y-1712000D02*
X9922000Y-2032000D01*
X9972000Y-1982000D02*
X9922000Y-2032000D01*
X9972000Y0D02*
X9972000Y-1982000D01*
X8382000Y1590000D02*
X9972000Y0D01*
X8382000Y2606000D02*
X8382000Y1590000D01*
X9922000Y-2149600D02*
X9922000Y-2032000D01*
X10961400Y-3189000D02*
X9922000Y-2149600D01*
X14130000Y-3189000D02*
X10961400Y-3189000D01*
X14130000Y-3189000D02*
X15080000Y-3189000D01*
X33086000Y3556000D02*
X33782000Y4252000D01*
X30972000Y3556000D02*
X33086000Y3556000D01*
X34843000Y3191000D02*
X33782000Y4252000D01*
X36830000Y3191000D02*
X34843000Y3191000D01*
X22767000Y-4226002D02*
X22917999Y-4377001D01*
X22767000Y-3989000D02*
X22767000Y-4226002D01*
X21967000Y-3189000D02*
X22767000Y-3989000D01*
X21492000Y-3189000D02*
X21967000Y-3189000D01*
X32192000Y508000D02*
X33798000Y508000D01*
X26598001Y-4327001D02*
X26646792Y-4278210D01*
X32192000Y-642000D02*
X32192000Y508000D01*
X22867999Y-4327001D02*
X26598001Y-4327001D01*
X27925610Y-2488191D02*
X28879800Y-1534001D01*
X22767000Y-4226002D02*
X22867999Y-4327001D01*
X26646792Y-4278210D02*
X27398396Y-4278210D01*
X28879800Y-1534001D02*
X31299999Y-1534001D01*
X27925610Y-3750996D02*
X27925610Y-2488191D01*
X27398396Y-4278210D02*
X27925610Y-3750996D01*
X31299999Y-1534001D02*
X32192000Y-642000D01*
X21492000Y-3189000D02*
X20480000Y-3189000D01*
X33782000Y524000D02*
X33798000Y508000D01*
X33782000Y2352000D02*
X33782000Y524000D01*
X10410000Y-9700000D02*
X12442000Y-9700000D01*
X10360000Y-9700000D02*
X10410000Y-9700000D01*
X12442000Y-9700000D02*
X12492000Y-9700000D01*
D26*
X24064000Y-8682000D02*
X24064000Y-8382000D01*
X22320999Y-10425001D02*
X24064000Y-8682000D01*
X13867001Y-10425001D02*
X22320999Y-10425001D01*
X13142000Y-9700000D02*
X13867001Y-10425001D01*
X12442000Y-9700000D02*
X13142000Y-9700000D01*
X21492000Y-6279000D02*
X20480000Y-5729000D01*
X22619999Y-7406999D02*
X21492000Y-6279000D01*
X24064000Y-8382000D02*
X24064000Y-8082000D01*
X23388999Y-7406999D02*
X22619999Y-7406999D01*
X24064000Y-8082000D02*
X23388999Y-7406999D01*
D24*
X12442000Y-7600000D02*
X10410000Y-7600000D01*
X9460000Y-7600000D02*
X10410000Y-7600000D01*
X9102000Y-7600000D02*
X9460000Y-7600000D01*
X8128000Y-6626000D02*
X9102000Y-7600000D01*
X8128000Y-5776000D02*
X8128000Y-6626000D01*
X14540000Y-7534000D02*
X14474000Y-7600000D01*
X14474000Y-7600000D02*
X16506000Y-7600000D01*
D26*
X14474000Y-6950000D02*
X14474000Y-7600000D01*
X9972000Y-5334000D02*
X9972000Y-5634000D01*
X10647001Y-6309001D02*
X12949999Y-6309001D01*
X9972000Y-5634000D02*
X10647001Y-6309001D01*
X12949999Y-6309001D02*
X13019999Y-6379001D01*
X13019999Y-6379001D02*
X13903001Y-6379001D01*
X13903001Y-6379001D02*
X14474000Y-6950000D01*
D24*
X20504000Y-7534000D02*
X20570000Y-7600000D01*
X20570000Y-7600000D02*
X18538000Y-7600000D01*
X21352000Y-8382000D02*
X20570000Y-7600000D01*
X22164000Y-8382000D02*
X21352000Y-8382000D01*
D25*
X20643000Y13319000D02*
X22532000Y11430000D01*
X17526000Y13319000D02*
X20643000Y13319000D01*
X23696000Y11430000D02*
X24204000Y10922000D01*
X22532000Y11430000D02*
X23696000Y11430000D01*
X29210000Y10742000D02*
X29210000Y9070000D01*
X25654000Y12772000D02*
X24204000Y11322000D01*
X27609998Y12772000D02*
X25654000Y12772000D01*
X29210000Y11171998D02*
X27609998Y12772000D01*
X24204000Y11322000D02*
X24204000Y10922000D01*
X29210000Y10742000D02*
X29210000Y11171998D01*
X15207000Y11000000D02*
X17526000Y13319000D01*
X11500000Y11000000D02*
X15207000Y11000000D01*
X31750000Y10742000D02*
X31750000Y9070000D01*
X36826000Y10742000D02*
X37084000Y11000000D01*
X31750000Y10742000D02*
X36826000Y10742000D01*
D24*
X36830000Y10746000D02*
X37084000Y11000000D01*
X36830000Y6461000D02*
X36830000Y10746000D01*
X25974000Y-7987386D02*
X25835634Y-7849020D01*
X25835634Y-7849020D02*
X25435635Y-7449021D01*
X25974000Y-9906000D02*
X25974000Y-7987386D01*
X16560800Y-1981200D02*
X15685800Y-1919000D01*
X15685800Y-1919000D02*
X15080000Y-1919000D01*
X14474000Y-9700000D02*
X16506000Y-9700000D01*
X13524000Y-8800000D02*
X14424000Y-9700000D01*
X14424000Y-9700000D02*
X14474000Y-9700000D01*
X16484600Y-9678600D02*
X16506000Y-9700000D01*
X9278000Y-3876000D02*
X8128000Y-3876000D01*
D26*
X9278000Y-6225002D02*
X9278000Y-3876000D01*
D24*
X9635999Y-4233999D02*
X9278000Y-3876000D01*
D26*
X13524000Y-7286410D02*
X13066602Y-6829012D01*
X13066602Y-6829012D02*
X12168010Y-6829012D01*
X13524000Y-8800000D02*
X13524000Y-7286410D01*
D24*
X12780000Y-4459000D02*
X14130000Y-4459000D01*
X12554999Y-4233999D02*
X12780000Y-4459000D01*
X9635999Y-4233999D02*
X12554999Y-4233999D01*
D26*
X9882010Y-6829012D02*
X9278000Y-6225002D01*
X12168010Y-6829012D02*
X9882010Y-6829012D01*
D24*
X14130000Y-4459000D02*
X15080000Y-4459000D01*
X18538000Y-9700000D02*
X20570000Y-9700000D01*
X11872000Y-5334000D02*
X11872000Y-5634000D01*
X17576800Y-7010798D02*
X17576800Y-5294204D01*
X17588000Y-7021998D02*
X17576800Y-7010798D01*
X18538000Y-9700000D02*
X18488000Y-9700000D01*
X17588000Y-8800000D02*
X17588000Y-7021998D01*
X18488000Y-9700000D02*
X17588000Y-8800000D01*
D26*
X17366597Y-5084001D02*
X17576800Y-5294204D01*
X12721999Y-5084001D02*
X17366597Y-5084001D01*
X11872000Y-5334000D02*
X12472000Y-5334000D01*
X12472000Y-5334000D02*
X12721999Y-5084001D01*
D24*
X18412004Y-4459000D02*
X20480000Y-4459000D01*
X17576800Y-5294204D02*
X18412004Y-4459000D01*
D25*
X19632000Y6350000D02*
X19632000Y3810000D01*
X27104000Y8382000D02*
X27104000Y10922000D01*
X19632000Y11430000D02*
X19632000Y8890000D01*
X27104000Y5842000D02*
X27104000Y3302000D01*
X29210000Y6170000D02*
X31750000Y6170000D01*
X29210000Y13642000D02*
X31750000Y13642000D01*
D27*
G36*
X41148000Y1627000D02*
G01*
X34359000Y1627000D01*
X34359000Y1673418D01*
X34432000Y1673418D01*
X34496103Y1679732D01*
X34557743Y1698430D01*
X34614550Y1728794D01*
X34664343Y1769657D01*
X34705206Y1819450D01*
X34735570Y1876257D01*
X34754268Y1937897D01*
X34760582Y2002000D01*
X34760582Y2619326D01*
X34843000Y2611209D01*
X34871339Y2614000D01*
X35915295Y2614000D01*
X35916430Y2610257D01*
X35946794Y2553450D01*
X35987657Y2503657D01*
X36037450Y2462794D01*
X36094257Y2432430D01*
X36155897Y2413732D01*
X36220000Y2407418D01*
X37440000Y2407418D01*
X37504103Y2413732D01*
X37565743Y2432430D01*
X37622550Y2462794D01*
X37672343Y2503657D01*
X37713206Y2553450D01*
X37743570Y2610257D01*
X37762268Y2671897D01*
X37768582Y2736000D01*
X37768582Y3646000D01*
X37762268Y3710103D01*
X37743570Y3771743D01*
X37713206Y3828550D01*
X37672343Y3878343D01*
X37622550Y3919206D01*
X37565743Y3949570D01*
X37504103Y3968268D01*
X37440000Y3974582D01*
X36220000Y3974582D01*
X36155897Y3968268D01*
X36094257Y3949570D01*
X36037450Y3919206D01*
X35987657Y3878343D01*
X35946794Y3828550D01*
X35916430Y3771743D01*
X35915295Y3768000D01*
X35082001Y3768000D01*
X34760582Y4089419D01*
X34760582Y4602000D01*
X34754268Y4666103D01*
X34735570Y4727743D01*
X34705206Y4784550D01*
X34664343Y4834343D01*
X34614550Y4875206D01*
X34557743Y4905570D01*
X34496103Y4924268D01*
X34432000Y4930582D01*
X33132000Y4930582D01*
X33067897Y4924268D01*
X33006257Y4905570D01*
X32949450Y4875206D01*
X32899657Y4834343D01*
X32858794Y4784550D01*
X32828430Y4727743D01*
X32809732Y4666103D01*
X32803418Y4602000D01*
X32803418Y4133000D01*
X31800582Y4133000D01*
X31800582Y4181000D01*
X31794268Y4245103D01*
X31775570Y4306743D01*
X31745206Y4363550D01*
X31704343Y4413343D01*
X31654550Y4454206D01*
X31597743Y4484570D01*
X31536103Y4503268D01*
X31472000Y4509582D01*
X30472000Y4509582D01*
X30407897Y4503268D01*
X30346257Y4484570D01*
X30289450Y4454206D01*
X30239657Y4413343D01*
X30198794Y4363550D01*
X30168430Y4306743D01*
X30149732Y4245103D01*
X30143418Y4181000D01*
X30143418Y2931000D01*
X30149732Y2866897D01*
X30168430Y2805257D01*
X30198794Y2748450D01*
X30239657Y2698657D01*
X30289450Y2657794D01*
X30346257Y2627430D01*
X30373000Y2619318D01*
X30373000Y1627000D01*
X20627000Y1627000D01*
X20627000Y2026011D01*
X20724116Y2077920D01*
X20811975Y2150025D01*
X20830040Y2172037D01*
X21969963Y3311960D01*
X21991974Y3330024D01*
X22064079Y3417883D01*
X22103816Y3492226D01*
X22117657Y3518121D01*
X22150651Y3626886D01*
X22161791Y3739998D01*
X22159000Y3768337D01*
X22159000Y4760999D01*
X22569419Y5171418D01*
X22982000Y5171418D01*
X23046103Y5177732D01*
X23107743Y5196430D01*
X23164550Y5226794D01*
X23214343Y5267657D01*
X23255206Y5317450D01*
X23285570Y5374257D01*
X23304268Y5435897D01*
X23310582Y5500000D01*
X23310582Y5523000D01*
X23353447Y5523000D01*
X23425418Y5451028D01*
X23425418Y4992000D01*
X23431732Y4927897D01*
X23450430Y4866257D01*
X23480794Y4809450D01*
X23521657Y4759657D01*
X23571450Y4718794D01*
X23628257Y4688430D01*
X23689897Y4669732D01*
X23754000Y4663418D01*
X24654000Y4663418D01*
X24718103Y4669732D01*
X24779743Y4688430D01*
X24836550Y4718794D01*
X24886343Y4759657D01*
X24927206Y4809450D01*
X24957570Y4866257D01*
X24976268Y4927897D01*
X24982582Y4992000D01*
X24982582Y5559715D01*
X25019034Y5679880D01*
X25031000Y5801376D01*
X25031000Y5801390D01*
X25035000Y5842001D01*
X25031000Y5882612D01*
X25031000Y5882623D01*
X26277000Y5882623D01*
X26277001Y3261376D01*
X26288967Y3139880D01*
X26325418Y3019718D01*
X26325418Y2452000D01*
X26331732Y2387897D01*
X26350430Y2326257D01*
X26380794Y2269450D01*
X26421657Y2219657D01*
X26471450Y2178794D01*
X26528257Y2148430D01*
X26589897Y2129732D01*
X26654000Y2123418D01*
X27554000Y2123418D01*
X27618103Y2129732D01*
X27679743Y2148430D01*
X27736550Y2178794D01*
X27786343Y2219657D01*
X27827206Y2269450D01*
X27857570Y2326257D01*
X27876268Y2387897D01*
X27882582Y2452000D01*
X27882582Y3019715D01*
X27919034Y3139880D01*
X27931000Y3261376D01*
X27931000Y5882624D01*
X27919034Y6004120D01*
X27882582Y6124285D01*
X27882582Y6620000D01*
X28031418Y6620000D01*
X28031418Y5720000D01*
X28037732Y5655897D01*
X28056430Y5594257D01*
X28086794Y5537450D01*
X28127657Y5487657D01*
X28177450Y5446794D01*
X28234257Y5416430D01*
X28295897Y5397732D01*
X28343652Y5393028D01*
X28340164Y5390698D01*
X28238902Y5289436D01*
X28159341Y5170364D01*
X28104538Y5038058D01*
X28076600Y4897603D01*
X28076600Y4754397D01*
X28104538Y4613942D01*
X28159341Y4481636D01*
X28220539Y4390047D01*
X28198794Y4363550D01*
X28168430Y4306743D01*
X28149732Y4245103D01*
X28143418Y4181000D01*
X28143418Y2931000D01*
X28149732Y2866897D01*
X28168430Y2805257D01*
X28198794Y2748450D01*
X28239657Y2698657D01*
X28289450Y2657794D01*
X28346257Y2627430D01*
X28407897Y2608732D01*
X28472000Y2602418D01*
X29472000Y2602418D01*
X29536103Y2608732D01*
X29597743Y2627430D01*
X29654550Y2657794D01*
X29704343Y2698657D01*
X29745206Y2748450D01*
X29775570Y2805257D01*
X29794268Y2866897D01*
X29800582Y2931000D01*
X29800582Y4181000D01*
X29794268Y4245103D01*
X29775570Y4306743D01*
X29745206Y4363550D01*
X29704343Y4413343D01*
X29654550Y4454206D01*
X29597743Y4484570D01*
X29549000Y4499356D01*
X29549000Y4629261D01*
X29551791Y4657600D01*
X29540651Y4770712D01*
X29530600Y4803845D01*
X29530600Y4897603D01*
X29502662Y5038058D01*
X29447859Y5170364D01*
X29368298Y5289436D01*
X29314734Y5343000D01*
X31790624Y5343000D01*
X31912120Y5354966D01*
X32032285Y5391418D01*
X32600000Y5391418D01*
X32664103Y5397732D01*
X32725743Y5416430D01*
X32782550Y5446794D01*
X32832343Y5487657D01*
X32873206Y5537450D01*
X32903570Y5594257D01*
X32922268Y5655897D01*
X32928582Y5720000D01*
X32928582Y6620000D01*
X32922268Y6684103D01*
X32903570Y6745743D01*
X32873206Y6802550D01*
X32832343Y6852343D01*
X32782550Y6893206D01*
X32725743Y6923570D01*
X32664103Y6942268D01*
X32600000Y6948582D01*
X32032285Y6948582D01*
X31912120Y6985034D01*
X31790624Y6997000D01*
X29169376Y6997000D01*
X29047880Y6985034D01*
X28927715Y6948582D01*
X28360000Y6948582D01*
X28295897Y6942268D01*
X28234257Y6923570D01*
X28177450Y6893206D01*
X28127657Y6852343D01*
X28086794Y6802550D01*
X28056430Y6745743D01*
X28037732Y6684103D01*
X28031418Y6620000D01*
X27882582Y6620000D01*
X27882582Y6692000D01*
X27876268Y6756103D01*
X27857570Y6817743D01*
X27827206Y6874550D01*
X27786343Y6924343D01*
X27736550Y6965206D01*
X27679743Y6995570D01*
X27618103Y7014268D01*
X27554000Y7020582D01*
X26654000Y7020582D01*
X26589897Y7014268D01*
X26528257Y6995570D01*
X26471450Y6965206D01*
X26421657Y6924343D01*
X26380794Y6874550D01*
X26350430Y6817743D01*
X26331732Y6756103D01*
X26325418Y6692000D01*
X26325418Y6124284D01*
X26288966Y6004119D01*
X26277000Y5882623D01*
X25031000Y5882623D01*
X25031000Y8341390D01*
X25035000Y8382001D01*
X25031000Y8422612D01*
X25031000Y8422624D01*
X25019034Y8544120D01*
X24982582Y8664285D01*
X24982582Y9232000D01*
X24976268Y9296103D01*
X24957570Y9357743D01*
X24927206Y9414550D01*
X24886343Y9464343D01*
X24836550Y9505206D01*
X24779743Y9535570D01*
X24718103Y9554268D01*
X24654000Y9560582D01*
X24182500Y9560582D01*
X24157679Y9580952D01*
X24014010Y9657745D01*
X23858120Y9705034D01*
X23736624Y9717000D01*
X23736614Y9717000D01*
X23696000Y9721000D01*
X23655386Y9717000D01*
X23310582Y9717000D01*
X23310582Y9740000D01*
X23304268Y9804103D01*
X23285570Y9865743D01*
X23255206Y9922550D01*
X23214343Y9972343D01*
X23164550Y10013206D01*
X23107743Y10043570D01*
X23046103Y10062268D01*
X22982000Y10068582D01*
X22082000Y10068582D01*
X22017897Y10062268D01*
X21956257Y10043570D01*
X21899450Y10013206D01*
X21849657Y9972343D01*
X21808794Y9922550D01*
X21778430Y9865743D01*
X21759732Y9804103D01*
X21753418Y9740000D01*
X21753418Y9172285D01*
X21716966Y9052120D01*
X21700999Y8890000D01*
X21705000Y8849376D01*
X21705001Y6390634D01*
X21700999Y6350000D01*
X21716966Y6187880D01*
X21753418Y6067715D01*
X21753418Y5987419D01*
X21194034Y5428035D01*
X21172027Y5409974D01*
X21153966Y5387967D01*
X21153963Y5387964D01*
X21147691Y5380321D01*
X21099922Y5322115D01*
X21048973Y5226794D01*
X21046344Y5221876D01*
X21013349Y5113111D01*
X21002210Y5000000D01*
X21005001Y4971659D01*
X21005000Y3978999D01*
X20601523Y3575522D01*
X20589803Y3589803D01*
X20570557Y3605597D01*
X20548601Y3617333D01*
X20524776Y3624560D01*
X20500000Y3627000D01*
X20440700Y3627000D01*
X20447034Y3647880D01*
X20459000Y3769376D01*
X20459000Y6390624D01*
X20447034Y6512120D01*
X20410582Y6632285D01*
X20410582Y7200000D01*
X20404268Y7264103D01*
X20385570Y7325743D01*
X20355206Y7382550D01*
X20314343Y7432343D01*
X20264550Y7473206D01*
X20207743Y7503570D01*
X20146103Y7522268D01*
X20082000Y7528582D01*
X19182000Y7528582D01*
X19117897Y7522268D01*
X19056257Y7503570D01*
X18999450Y7473206D01*
X18949657Y7432343D01*
X18908794Y7382550D01*
X18878430Y7325743D01*
X18859732Y7264103D01*
X18853418Y7200000D01*
X18853418Y6632284D01*
X18816966Y6512119D01*
X18805000Y6390623D01*
X18805001Y3769376D01*
X18816967Y3647880D01*
X18823301Y3627000D01*
X18733582Y3627000D01*
X18733582Y3818000D01*
X18727268Y3882103D01*
X18708570Y3943743D01*
X18678206Y4000550D01*
X18637343Y4050343D01*
X18587550Y4091206D01*
X18530743Y4121570D01*
X18469103Y4140268D01*
X18405000Y4146582D01*
X17642419Y4146582D01*
X17299583Y4489418D01*
X17755448Y4489418D01*
X17779999Y4487000D01*
X17804550Y4489418D01*
X18405000Y4489418D01*
X18469103Y4495732D01*
X18530743Y4514430D01*
X18587550Y4544794D01*
X18637343Y4585657D01*
X18678206Y4635450D01*
X18708570Y4692257D01*
X18727268Y4753897D01*
X18733582Y4818000D01*
X18733582Y5818000D01*
X18727268Y5882103D01*
X18708570Y5943743D01*
X18678206Y6000550D01*
X18637343Y6050343D01*
X18587550Y6091206D01*
X18530743Y6121570D01*
X18469103Y6140268D01*
X18405000Y6146582D01*
X18353000Y6146582D01*
X18353000Y9349066D01*
X18368343Y9361657D01*
X18409206Y9411450D01*
X18439570Y9468257D01*
X18458268Y9529897D01*
X18464582Y9594000D01*
X18464582Y10504000D01*
X18458268Y10568103D01*
X18439570Y10629743D01*
X18409206Y10686550D01*
X18368343Y10736343D01*
X18318550Y10777206D01*
X18261743Y10807570D01*
X18200103Y10826268D01*
X18136000Y10832582D01*
X17791802Y10832582D01*
X17688119Y10864034D01*
X17526000Y10880001D01*
X17363880Y10864034D01*
X17260197Y10832582D01*
X16916000Y10832582D01*
X16851897Y10826268D01*
X16790257Y10807570D01*
X16733450Y10777206D01*
X16683657Y10736343D01*
X16642794Y10686550D01*
X16612430Y10629743D01*
X16593732Y10568103D01*
X16587418Y10504000D01*
X16587418Y9594000D01*
X16593732Y9529897D01*
X16612430Y9468257D01*
X16642794Y9411450D01*
X16683657Y9361657D01*
X16699000Y9349066D01*
X16699001Y6426000D01*
X16581397Y6426000D01*
X16440942Y6398062D01*
X16355701Y6362754D01*
X16336343Y6386343D01*
X16286550Y6427206D01*
X16229743Y6457570D01*
X16168103Y6476268D01*
X16104000Y6482582D01*
X14884000Y6482582D01*
X14819897Y6476268D01*
X14758257Y6457570D01*
X14701450Y6427206D01*
X14651657Y6386343D01*
X14610794Y6336550D01*
X14580430Y6279743D01*
X14561732Y6218103D01*
X14555418Y6154000D01*
X14555418Y5244000D01*
X14561732Y5179897D01*
X14563399Y5174400D01*
X14386739Y5174400D01*
X14358400Y5177191D01*
X14245288Y5166051D01*
X14161582Y5140659D01*
X14161582Y6072000D01*
X14155268Y6136103D01*
X14136570Y6197743D01*
X14106206Y6254550D01*
X14065343Y6304343D01*
X14015550Y6345206D01*
X13958743Y6375570D01*
X13897103Y6394268D01*
X13833000Y6400582D01*
X12583000Y6400582D01*
X12518897Y6394268D01*
X12457257Y6375570D01*
X12400450Y6345206D01*
X12350657Y6304343D01*
X12309794Y6254550D01*
X12279430Y6197743D01*
X12264644Y6149000D01*
X11860582Y6149000D01*
X11860582Y6154000D01*
X11854268Y6218103D01*
X11835570Y6279743D01*
X11805206Y6336550D01*
X11764343Y6386343D01*
X11714550Y6427206D01*
X11657743Y6457570D01*
X11596103Y6476268D01*
X11532000Y6482582D01*
X10312000Y6482582D01*
X10247897Y6476268D01*
X10186257Y6457570D01*
X10129450Y6427206D01*
X10079657Y6386343D01*
X10038794Y6336550D01*
X10008430Y6279743D01*
X10007295Y6276000D01*
X9603331Y6276000D01*
X9575000Y6278790D01*
X9546669Y6276000D01*
X9546664Y6276000D01*
X9519886Y6273363D01*
X9461888Y6267651D01*
X9397782Y6248204D01*
X9353124Y6234657D01*
X9252885Y6181079D01*
X9165026Y6108974D01*
X9146961Y6086962D01*
X8244581Y5184582D01*
X7732000Y5184582D01*
X7667897Y5178268D01*
X7606257Y5159570D01*
X7549450Y5129206D01*
X7499657Y5088343D01*
X7458794Y5038550D01*
X7428430Y4981743D01*
X7409732Y4920103D01*
X7403418Y4856000D01*
X7403418Y4156000D01*
X7409732Y4091897D01*
X7428430Y4030257D01*
X7458794Y3973450D01*
X7499657Y3923657D01*
X7549450Y3882794D01*
X7606257Y3852430D01*
X7667897Y3833732D01*
X7732000Y3827418D01*
X9032000Y3827418D01*
X9096103Y3833732D01*
X9157743Y3852430D01*
X9214550Y3882794D01*
X9264343Y3923657D01*
X9305206Y3973450D01*
X9335570Y4030257D01*
X9354268Y4091897D01*
X9360582Y4156000D01*
X9360582Y4668581D01*
X9814001Y5122000D01*
X10007295Y5122000D01*
X10008430Y5118257D01*
X10038794Y5061450D01*
X10079657Y5011657D01*
X10129450Y4970794D01*
X10186257Y4940430D01*
X10247897Y4921732D01*
X10312000Y4915418D01*
X11532000Y4915418D01*
X11596103Y4921732D01*
X11657743Y4940430D01*
X11714550Y4970794D01*
X11744046Y4995000D01*
X12264644Y4995000D01*
X12279430Y4946257D01*
X12309794Y4889450D01*
X12350657Y4839657D01*
X12400450Y4798794D01*
X12457257Y4768430D01*
X12518897Y4749732D01*
X12583000Y4743418D01*
X13688417Y4743418D01*
X13345581Y4400582D01*
X12583000Y4400582D01*
X12518897Y4394268D01*
X12457257Y4375570D01*
X12400450Y4345206D01*
X12350657Y4304343D01*
X12309794Y4254550D01*
X12279430Y4197743D01*
X12260732Y4136103D01*
X12254418Y4072000D01*
X12254418Y3072000D01*
X12260732Y3007897D01*
X12279430Y2946257D01*
X12309794Y2889450D01*
X12350657Y2839657D01*
X12400450Y2798794D01*
X12457257Y2768430D01*
X12518897Y2749732D01*
X12583000Y2743418D01*
X13833000Y2743418D01*
X13897103Y2749732D01*
X13958743Y2768430D01*
X14015550Y2798794D01*
X14065343Y2839657D01*
X14106206Y2889450D01*
X14136570Y2946257D01*
X14155268Y3007897D01*
X14161582Y3072000D01*
X14161582Y3584581D01*
X14597401Y4020400D01*
X16136599Y4020400D01*
X16826418Y3330581D01*
X16826418Y3305419D01*
X16122034Y2601035D01*
X16100027Y2582974D01*
X16081966Y2560967D01*
X16081963Y2560964D01*
X16068693Y2544794D01*
X16027922Y2495115D01*
X16009173Y2460037D01*
X15974344Y2394876D01*
X15941349Y2286111D01*
X15930210Y2173000D01*
X15933001Y2144659D01*
X15933000Y1627000D01*
X9627000Y1627000D01*
X9627000Y3500000D01*
X9624560Y3524776D01*
X9617333Y3548601D01*
X9605597Y3570557D01*
X9589803Y3589803D01*
X9570557Y3605597D01*
X9548601Y3617333D01*
X9524776Y3624560D01*
X9500000Y3627000D01*
X7352000Y3627000D01*
X7352000Y11130698D01*
X10173000Y11130698D01*
X10173000Y10869302D01*
X10223996Y10612928D01*
X10324028Y10371430D01*
X10469252Y10154087D01*
X10654087Y9969252D01*
X10871430Y9824028D01*
X11112928Y9723996D01*
X11369302Y9673000D01*
X11630698Y9673000D01*
X11887072Y9723996D01*
X12128570Y9824028D01*
X12345913Y9969252D01*
X12530748Y10154087D01*
X12543385Y10173000D01*
X15166386Y10173000D01*
X15207000Y10169000D01*
X15247614Y10173000D01*
X15247624Y10173000D01*
X15369120Y10184966D01*
X15525010Y10232255D01*
X15668679Y10309048D01*
X15794606Y10412394D01*
X15820505Y10443952D01*
X17868554Y12492000D01*
X18932962Y12492000D01*
X18908794Y12462550D01*
X18878430Y12405743D01*
X18859732Y12344103D01*
X18853418Y12280000D01*
X18853418Y11712284D01*
X18816966Y11592119D01*
X18805000Y11470623D01*
X18805001Y8849376D01*
X18816967Y8727880D01*
X18853418Y8607718D01*
X18853418Y8040000D01*
X18859732Y7975897D01*
X18878430Y7914257D01*
X18908794Y7857450D01*
X18949657Y7807657D01*
X18999450Y7766794D01*
X19056257Y7736430D01*
X19117897Y7717732D01*
X19182000Y7711418D01*
X20082000Y7711418D01*
X20146103Y7717732D01*
X20207743Y7736430D01*
X20264550Y7766794D01*
X20314343Y7807657D01*
X20355206Y7857450D01*
X20385570Y7914257D01*
X20404268Y7975897D01*
X20410582Y8040000D01*
X20410582Y8607715D01*
X20447034Y8727880D01*
X20459000Y8849376D01*
X20459000Y11470624D01*
X20447034Y11592120D01*
X20410582Y11712285D01*
X20410582Y12280000D01*
X20404268Y12344103D01*
X20385570Y12405743D01*
X20384268Y12408178D01*
X21753418Y11039027D01*
X21753418Y10580000D01*
X21759732Y10515897D01*
X21778430Y10454257D01*
X21808794Y10397450D01*
X21849657Y10347657D01*
X21899450Y10306794D01*
X21956257Y10276430D01*
X22017897Y10257732D01*
X22082000Y10251418D01*
X22982000Y10251418D01*
X23046103Y10257732D01*
X23107743Y10276430D01*
X23164550Y10306794D01*
X23214343Y10347657D01*
X23255206Y10397450D01*
X23285570Y10454257D01*
X23304268Y10515897D01*
X23310582Y10580000D01*
X23310582Y10603000D01*
X23353447Y10603000D01*
X23425418Y10531028D01*
X23425418Y10072000D01*
X23431732Y10007897D01*
X23450430Y9946257D01*
X23480794Y9889450D01*
X23521657Y9839657D01*
X23571450Y9798794D01*
X23628257Y9768430D01*
X23689897Y9749732D01*
X23754000Y9743418D01*
X24654000Y9743418D01*
X24718103Y9749732D01*
X24779743Y9768430D01*
X24836550Y9798794D01*
X24886343Y9839657D01*
X24927206Y9889450D01*
X24957570Y9946257D01*
X24976268Y10007897D01*
X24982582Y10072000D01*
X24982582Y10639715D01*
X25019034Y10759880D01*
X25031000Y10881377D01*
X25031000Y10881390D01*
X25035000Y10922001D01*
X25031000Y10962612D01*
X25031000Y10979447D01*
X25996555Y11945000D01*
X26375689Y11945000D01*
X26350430Y11897743D01*
X26331732Y11836103D01*
X26325418Y11772000D01*
X26325418Y11204282D01*
X26288967Y11084120D01*
X26277001Y10962624D01*
X26277000Y8341377D01*
X26288966Y8219881D01*
X26325418Y8099716D01*
X26325418Y7532000D01*
X26331732Y7467897D01*
X26350430Y7406257D01*
X26380794Y7349450D01*
X26421657Y7299657D01*
X26471450Y7258794D01*
X26528257Y7228430D01*
X26589897Y7209732D01*
X26654000Y7203418D01*
X27554000Y7203418D01*
X27618103Y7209732D01*
X27679743Y7228430D01*
X27736550Y7258794D01*
X27786343Y7299657D01*
X27827206Y7349450D01*
X27857570Y7406257D01*
X27876268Y7467897D01*
X27882582Y7532000D01*
X27882582Y8099715D01*
X27919034Y8219880D01*
X27931000Y8341376D01*
X27931000Y10962624D01*
X27919034Y11084120D01*
X27882582Y11204285D01*
X27882582Y11329862D01*
X28031418Y11181026D01*
X28031418Y10292000D01*
X28037732Y10227897D01*
X28056430Y10166257D01*
X28086794Y10109450D01*
X28127657Y10059657D01*
X28177450Y10018794D01*
X28234257Y9988430D01*
X28295897Y9969732D01*
X28360000Y9963418D01*
X28383000Y9963418D01*
X28383001Y9848582D01*
X28360000Y9848582D01*
X28295897Y9842268D01*
X28234257Y9823570D01*
X28177450Y9793206D01*
X28127657Y9752343D01*
X28086794Y9702550D01*
X28056430Y9645743D01*
X28037732Y9584103D01*
X28031418Y9520000D01*
X28031418Y8620000D01*
X28037732Y8555897D01*
X28056430Y8494257D01*
X28086794Y8437450D01*
X28127657Y8387657D01*
X28177450Y8346794D01*
X28234257Y8316430D01*
X28295897Y8297732D01*
X28360000Y8291418D01*
X28927716Y8291418D01*
X29047881Y8254966D01*
X29210000Y8238999D01*
X29372120Y8254966D01*
X29492285Y8291418D01*
X30060000Y8291418D01*
X30124103Y8297732D01*
X30185743Y8316430D01*
X30242550Y8346794D01*
X30292343Y8387657D01*
X30333206Y8437450D01*
X30363570Y8494257D01*
X30382268Y8555897D01*
X30388582Y8620000D01*
X30388582Y9520000D01*
X30382268Y9584103D01*
X30363570Y9645743D01*
X30333206Y9702550D01*
X30292343Y9752343D01*
X30242550Y9793206D01*
X30185743Y9823570D01*
X30124103Y9842268D01*
X30060000Y9848582D01*
X30037000Y9848582D01*
X30037000Y9963418D01*
X30060000Y9963418D01*
X30124103Y9969732D01*
X30185743Y9988430D01*
X30242550Y10018794D01*
X30292343Y10059657D01*
X30333206Y10109450D01*
X30363570Y10166257D01*
X30382268Y10227897D01*
X30388582Y10292000D01*
X30388582Y11192000D01*
X30571418Y11192000D01*
X30571418Y10292000D01*
X30577732Y10227897D01*
X30596430Y10166257D01*
X30626794Y10109450D01*
X30667657Y10059657D01*
X30717450Y10018794D01*
X30774257Y9988430D01*
X30835897Y9969732D01*
X30900000Y9963418D01*
X30923000Y9963418D01*
X30923001Y9848582D01*
X30900000Y9848582D01*
X30835897Y9842268D01*
X30774257Y9823570D01*
X30717450Y9793206D01*
X30667657Y9752343D01*
X30626794Y9702550D01*
X30596430Y9645743D01*
X30577732Y9584103D01*
X30571418Y9520000D01*
X30571418Y8620000D01*
X30577732Y8555897D01*
X30596430Y8494257D01*
X30626794Y8437450D01*
X30667657Y8387657D01*
X30717450Y8346794D01*
X30774257Y8316430D01*
X30835897Y8297732D01*
X30900000Y8291418D01*
X31467716Y8291418D01*
X31587881Y8254966D01*
X31750000Y8238999D01*
X31912120Y8254966D01*
X32032285Y8291418D01*
X32600000Y8291418D01*
X32664103Y8297732D01*
X32725743Y8316430D01*
X32782550Y8346794D01*
X32832343Y8387657D01*
X32873206Y8437450D01*
X32903570Y8494257D01*
X32922268Y8555897D01*
X32928582Y8620000D01*
X32928582Y9520000D01*
X32922268Y9584103D01*
X32903570Y9645743D01*
X32873206Y9702550D01*
X32832343Y9752343D01*
X32782550Y9793206D01*
X32725743Y9823570D01*
X32664103Y9842268D01*
X32600000Y9848582D01*
X32577000Y9848582D01*
X32577000Y9915000D01*
X36253001Y9915000D01*
X36253000Y7244582D01*
X36220000Y7244582D01*
X36155897Y7238268D01*
X36094257Y7219570D01*
X36037450Y7189206D01*
X35987657Y7148343D01*
X35946794Y7098550D01*
X35916430Y7041743D01*
X35897732Y6980103D01*
X35891418Y6916000D01*
X35891418Y6006000D01*
X35897732Y5941897D01*
X35916430Y5880257D01*
X35946794Y5823450D01*
X35987657Y5773657D01*
X36037450Y5732794D01*
X36094257Y5702430D01*
X36155897Y5683732D01*
X36220000Y5677418D01*
X37440000Y5677418D01*
X37504103Y5683732D01*
X37565743Y5702430D01*
X37622550Y5732794D01*
X37672343Y5773657D01*
X37713206Y5823450D01*
X37743570Y5880257D01*
X37762268Y5941897D01*
X37768582Y6006000D01*
X37768582Y6916000D01*
X37762268Y6980103D01*
X37743570Y7041743D01*
X37713206Y7098550D01*
X37672343Y7148343D01*
X37622550Y7189206D01*
X37565743Y7219570D01*
X37504103Y7238268D01*
X37440000Y7244582D01*
X37407000Y7244582D01*
X37407000Y9711251D01*
X37471072Y9723996D01*
X37712570Y9824028D01*
X37929913Y9969252D01*
X38114748Y10154087D01*
X38259972Y10371430D01*
X38360004Y10612928D01*
X38411000Y10869302D01*
X38411000Y11130698D01*
X38360004Y11387072D01*
X38259972Y11628570D01*
X38114748Y11845913D01*
X37929913Y12030748D01*
X37712570Y12175972D01*
X37471072Y12276004D01*
X37214698Y12327000D01*
X36953302Y12327000D01*
X36696928Y12276004D01*
X36455430Y12175972D01*
X36238087Y12030748D01*
X36053252Y11845913D01*
X35908028Y11628570D01*
X35883353Y11569000D01*
X31790624Y11569000D01*
X31750000Y11573001D01*
X31709376Y11569000D01*
X31587880Y11557034D01*
X31467715Y11520582D01*
X30900000Y11520582D01*
X30835897Y11514268D01*
X30774257Y11495570D01*
X30717450Y11465206D01*
X30667657Y11424343D01*
X30626794Y11374550D01*
X30596430Y11317743D01*
X30577732Y11256103D01*
X30571418Y11192000D01*
X30388582Y11192000D01*
X30382268Y11256103D01*
X30363570Y11317743D01*
X30333206Y11374550D01*
X30292343Y11424343D01*
X30242550Y11465206D01*
X30185743Y11495570D01*
X30124103Y11514268D01*
X30060000Y11520582D01*
X29961403Y11520582D01*
X29900952Y11633678D01*
X29823503Y11728050D01*
X29823496Y11728057D01*
X29797606Y11759604D01*
X29766058Y11785495D01*
X28688134Y12863418D01*
X28927715Y12863418D01*
X29047880Y12826966D01*
X29169376Y12815000D01*
X31790624Y12815000D01*
X31912120Y12826966D01*
X32032285Y12863418D01*
X32600000Y12863418D01*
X32664103Y12869732D01*
X32725743Y12888430D01*
X32782550Y12918794D01*
X32832343Y12959657D01*
X32873206Y13009450D01*
X32903570Y13066257D01*
X32922268Y13127897D01*
X32928582Y13192000D01*
X32928582Y14092000D01*
X32922268Y14156103D01*
X32903570Y14217743D01*
X32873206Y14274550D01*
X32832343Y14324343D01*
X32782550Y14365206D01*
X32725743Y14395570D01*
X32664103Y14414268D01*
X32600000Y14420582D01*
X32032285Y14420582D01*
X31912120Y14457034D01*
X31790624Y14469000D01*
X29169376Y14469000D01*
X29047880Y14457034D01*
X28927715Y14420582D01*
X28360000Y14420582D01*
X28295897Y14414268D01*
X28234257Y14395570D01*
X28177450Y14365206D01*
X28127657Y14324343D01*
X28086794Y14274550D01*
X28056430Y14217743D01*
X28037732Y14156103D01*
X28031418Y14092000D01*
X28031418Y13484471D01*
X27928008Y13539745D01*
X27772118Y13587034D01*
X27650622Y13599000D01*
X27650612Y13599000D01*
X27609998Y13603000D01*
X27569384Y13599000D01*
X25694614Y13599000D01*
X25654000Y13603000D01*
X25613386Y13599000D01*
X25613376Y13599000D01*
X25491880Y13587034D01*
X25335990Y13539745D01*
X25269113Y13503998D01*
X25192320Y13462952D01*
X25097948Y13385503D01*
X25097941Y13385496D01*
X25066394Y13359606D01*
X25040503Y13328058D01*
X23934355Y12221908D01*
X23858120Y12245034D01*
X23736624Y12257000D01*
X23736614Y12257000D01*
X23696000Y12261000D01*
X23655386Y12257000D01*
X23310582Y12257000D01*
X23310582Y12280000D01*
X23304268Y12344103D01*
X23285570Y12405743D01*
X23255206Y12462550D01*
X23214343Y12512343D01*
X23164550Y12553206D01*
X23107743Y12583570D01*
X23046103Y12602268D01*
X22982000Y12608582D01*
X22522972Y12608582D01*
X21256505Y13875048D01*
X21230606Y13906606D01*
X21104679Y14009952D01*
X20961010Y14086745D01*
X20805120Y14134034D01*
X20683624Y14146000D01*
X20683614Y14146000D01*
X20643000Y14150000D01*
X20602386Y14146000D01*
X17566613Y14146000D01*
X17525999Y14150000D01*
X17485385Y14146000D01*
X17485376Y14146000D01*
X17363880Y14134034D01*
X17260197Y14102582D01*
X16916000Y14102582D01*
X16851897Y14096268D01*
X16790257Y14077570D01*
X16733450Y14047206D01*
X16683657Y14006343D01*
X16642794Y13956550D01*
X16612430Y13899743D01*
X16593732Y13838103D01*
X16587418Y13774000D01*
X16587418Y13549972D01*
X14864447Y11827000D01*
X12543385Y11827000D01*
X12530748Y11845913D01*
X12345913Y12030748D01*
X12128570Y12175972D01*
X11887072Y12276004D01*
X11630698Y12327000D01*
X11369302Y12327000D01*
X11112928Y12276004D01*
X10871430Y12175972D01*
X10654087Y12030748D01*
X10469252Y11845913D01*
X10324028Y11628570D01*
X10223996Y11387072D01*
X10173000Y11130698D01*
X7352000Y11130698D01*
X7352000Y15148000D01*
X41148001Y15148000D01*
X41148000Y1627000D01*
G37*
X41148000Y1627000D02*
X34359000Y1627000D01*
X34359000Y1673418D01*
X34432000Y1673418D01*
X34496103Y1679732D01*
X34557743Y1698430D01*
X34614550Y1728794D01*
X34664343Y1769657D01*
X34705206Y1819450D01*
X34735570Y1876257D01*
X34754268Y1937897D01*
X34760582Y2002000D01*
X34760582Y2619326D01*
X34843000Y2611209D01*
X34871339Y2614000D01*
X35915295Y2614000D01*
X35916430Y2610257D01*
X35946794Y2553450D01*
X35987657Y2503657D01*
X36037450Y2462794D01*
X36094257Y2432430D01*
X36155897Y2413732D01*
X36220000Y2407418D01*
X37440000Y2407418D01*
X37504103Y2413732D01*
X37565743Y2432430D01*
X37622550Y2462794D01*
X37672343Y2503657D01*
X37713206Y2553450D01*
X37743570Y2610257D01*
X37762268Y2671897D01*
X37768582Y2736000D01*
X37768582Y3646000D01*
X37762268Y3710103D01*
X37743570Y3771743D01*
X37713206Y3828550D01*
X37672343Y3878343D01*
X37622550Y3919206D01*
X37565743Y3949570D01*
X37504103Y3968268D01*
X37440000Y3974582D01*
X36220000Y3974582D01*
X36155897Y3968268D01*
X36094257Y3949570D01*
X36037450Y3919206D01*
X35987657Y3878343D01*
X35946794Y3828550D01*
X35916430Y3771743D01*
X35915295Y3768000D01*
X35082001Y3768000D01*
X34760582Y4089419D01*
X34760582Y4602000D01*
X34754268Y4666103D01*
X34735570Y4727743D01*
X34705206Y4784550D01*
X34664343Y4834343D01*
X34614550Y4875206D01*
X34557743Y4905570D01*
X34496103Y4924268D01*
X34432000Y4930582D01*
X33132000Y4930582D01*
X33067897Y4924268D01*
X33006257Y4905570D01*
X32949450Y4875206D01*
X32899657Y4834343D01*
X32858794Y4784550D01*
X32828430Y4727743D01*
X32809732Y4666103D01*
X32803418Y4602000D01*
X32803418Y4133000D01*
X31800582Y4133000D01*
X31800582Y4181000D01*
X31794268Y4245103D01*
X31775570Y4306743D01*
X31745206Y4363550D01*
X31704343Y4413343D01*
X31654550Y4454206D01*
X31597743Y4484570D01*
X31536103Y4503268D01*
X31472000Y4509582D01*
X30472000Y4509582D01*
X30407897Y4503268D01*
X30346257Y4484570D01*
X30289450Y4454206D01*
X30239657Y4413343D01*
X30198794Y4363550D01*
X30168430Y4306743D01*
X30149732Y4245103D01*
X30143418Y4181000D01*
X30143418Y2931000D01*
X30149732Y2866897D01*
X30168430Y2805257D01*
X30198794Y2748450D01*
X30239657Y2698657D01*
X30289450Y2657794D01*
X30346257Y2627430D01*
X30373000Y2619318D01*
X30373000Y1627000D01*
X20627000Y1627000D01*
X20627000Y2026011D01*
X20724116Y2077920D01*
X20811975Y2150025D01*
X20830040Y2172037D01*
X21969963Y3311960D01*
X21991974Y3330024D01*
X22064079Y3417883D01*
X22103816Y3492226D01*
X22117657Y3518121D01*
X22150651Y3626886D01*
X22161791Y3739998D01*
X22159000Y3768337D01*
X22159000Y4760999D01*
X22569419Y5171418D01*
X22982000Y5171418D01*
X23046103Y5177732D01*
X23107743Y5196430D01*
X23164550Y5226794D01*
X23214343Y5267657D01*
X23255206Y5317450D01*
X23285570Y5374257D01*
X23304268Y5435897D01*
X23310582Y5500000D01*
X23310582Y5523000D01*
X23353447Y5523000D01*
X23425418Y5451028D01*
X23425418Y4992000D01*
X23431732Y4927897D01*
X23450430Y4866257D01*
X23480794Y4809450D01*
X23521657Y4759657D01*
X23571450Y4718794D01*
X23628257Y4688430D01*
X23689897Y4669732D01*
X23754000Y4663418D01*
X24654000Y4663418D01*
X24718103Y4669732D01*
X24779743Y4688430D01*
X24836550Y4718794D01*
X24886343Y4759657D01*
X24927206Y4809450D01*
X24957570Y4866257D01*
X24976268Y4927897D01*
X24982582Y4992000D01*
X24982582Y5559715D01*
X25019034Y5679880D01*
X25031000Y5801376D01*
X25031000Y5801390D01*
X25035000Y5842001D01*
X25031000Y5882612D01*
X25031000Y5882623D01*
X26277000Y5882623D01*
X26277001Y3261376D01*
X26288967Y3139880D01*
X26325418Y3019718D01*
X26325418Y2452000D01*
X26331732Y2387897D01*
X26350430Y2326257D01*
X26380794Y2269450D01*
X26421657Y2219657D01*
X26471450Y2178794D01*
X26528257Y2148430D01*
X26589897Y2129732D01*
X26654000Y2123418D01*
X27554000Y2123418D01*
X27618103Y2129732D01*
X27679743Y2148430D01*
X27736550Y2178794D01*
X27786343Y2219657D01*
X27827206Y2269450D01*
X27857570Y2326257D01*
X27876268Y2387897D01*
X27882582Y2452000D01*
X27882582Y3019715D01*
X27919034Y3139880D01*
X27931000Y3261376D01*
X27931000Y5882624D01*
X27919034Y6004120D01*
X27882582Y6124285D01*
X27882582Y6620000D01*
X28031418Y6620000D01*
X28031418Y5720000D01*
X28037732Y5655897D01*
X28056430Y5594257D01*
X28086794Y5537450D01*
X28127657Y5487657D01*
X28177450Y5446794D01*
X28234257Y5416430D01*
X28295897Y5397732D01*
X28343652Y5393028D01*
X28340164Y5390698D01*
X28238902Y5289436D01*
X28159341Y5170364D01*
X28104538Y5038058D01*
X28076600Y4897603D01*
X28076600Y4754397D01*
X28104538Y4613942D01*
X28159341Y4481636D01*
X28220539Y4390047D01*
X28198794Y4363550D01*
X28168430Y4306743D01*
X28149732Y4245103D01*
X28143418Y4181000D01*
X28143418Y2931000D01*
X28149732Y2866897D01*
X28168430Y2805257D01*
X28198794Y2748450D01*
X28239657Y2698657D01*
X28289450Y2657794D01*
X28346257Y2627430D01*
X28407897Y2608732D01*
X28472000Y2602418D01*
X29472000Y2602418D01*
X29536103Y2608732D01*
X29597743Y2627430D01*
X29654550Y2657794D01*
X29704343Y2698657D01*
X29745206Y2748450D01*
X29775570Y2805257D01*
X29794268Y2866897D01*
X29800582Y2931000D01*
X29800582Y4181000D01*
X29794268Y4245103D01*
X29775570Y4306743D01*
X29745206Y4363550D01*
X29704343Y4413343D01*
X29654550Y4454206D01*
X29597743Y4484570D01*
X29549000Y4499356D01*
X29549000Y4629261D01*
X29551791Y4657600D01*
X29540651Y4770712D01*
X29530600Y4803845D01*
X29530600Y4897603D01*
X29502662Y5038058D01*
X29447859Y5170364D01*
X29368298Y5289436D01*
X29314734Y5343000D01*
X31790624Y5343000D01*
X31912120Y5354966D01*
X32032285Y5391418D01*
X32600000Y5391418D01*
X32664103Y5397732D01*
X32725743Y5416430D01*
X32782550Y5446794D01*
X32832343Y5487657D01*
X32873206Y5537450D01*
X32903570Y5594257D01*
X32922268Y5655897D01*
X32928582Y5720000D01*
X32928582Y6620000D01*
X32922268Y6684103D01*
X32903570Y6745743D01*
X32873206Y6802550D01*
X32832343Y6852343D01*
X32782550Y6893206D01*
X32725743Y6923570D01*
X32664103Y6942268D01*
X32600000Y6948582D01*
X32032285Y6948582D01*
X31912120Y6985034D01*
X31790624Y6997000D01*
X29169376Y6997000D01*
X29047880Y6985034D01*
X28927715Y6948582D01*
X28360000Y6948582D01*
X28295897Y6942268D01*
X28234257Y6923570D01*
X28177450Y6893206D01*
X28127657Y6852343D01*
X28086794Y6802550D01*
X28056430Y6745743D01*
X28037732Y6684103D01*
X28031418Y6620000D01*
X27882582Y6620000D01*
X27882582Y6692000D01*
X27876268Y6756103D01*
X27857570Y6817743D01*
X27827206Y6874550D01*
X27786343Y6924343D01*
X27736550Y6965206D01*
X27679743Y6995570D01*
X27618103Y7014268D01*
X27554000Y7020582D01*
X26654000Y7020582D01*
X26589897Y7014268D01*
X26528257Y6995570D01*
X26471450Y6965206D01*
X26421657Y6924343D01*
X26380794Y6874550D01*
X26350430Y6817743D01*
X26331732Y6756103D01*
X26325418Y6692000D01*
X26325418Y6124284D01*
X26288966Y6004119D01*
X26277000Y5882623D01*
X25031000Y5882623D01*
X25031000Y8341390D01*
X25035000Y8382001D01*
X25031000Y8422612D01*
X25031000Y8422624D01*
X25019034Y8544120D01*
X24982582Y8664285D01*
X24982582Y9232000D01*
X24976268Y9296103D01*
X24957570Y9357743D01*
X24927206Y9414550D01*
X24886343Y9464343D01*
X24836550Y9505206D01*
X24779743Y9535570D01*
X24718103Y9554268D01*
X24654000Y9560582D01*
X24182500Y9560582D01*
X24157679Y9580952D01*
X24014010Y9657745D01*
X23858120Y9705034D01*
X23736624Y9717000D01*
X23736614Y9717000D01*
X23696000Y9721000D01*
X23655386Y9717000D01*
X23310582Y9717000D01*
X23310582Y9740000D01*
X23304268Y9804103D01*
X23285570Y9865743D01*
X23255206Y9922550D01*
X23214343Y9972343D01*
X23164550Y10013206D01*
X23107743Y10043570D01*
X23046103Y10062268D01*
X22982000Y10068582D01*
X22082000Y10068582D01*
X22017897Y10062268D01*
X21956257Y10043570D01*
X21899450Y10013206D01*
X21849657Y9972343D01*
X21808794Y9922550D01*
X21778430Y9865743D01*
X21759732Y9804103D01*
X21753418Y9740000D01*
X21753418Y9172285D01*
X21716966Y9052120D01*
X21700999Y8890000D01*
X21705000Y8849376D01*
X21705001Y6390634D01*
X21700999Y6350000D01*
X21716966Y6187880D01*
X21753418Y6067715D01*
X21753418Y5987419D01*
X21194034Y5428035D01*
X21172027Y5409974D01*
X21153966Y5387967D01*
X21153963Y5387964D01*
X21147691Y5380321D01*
X21099922Y5322115D01*
X21048973Y5226794D01*
X21046344Y5221876D01*
X21013349Y5113111D01*
X21002210Y5000000D01*
X21005001Y4971659D01*
X21005000Y3978999D01*
X20601523Y3575522D01*
X20589803Y3589803D01*
X20570557Y3605597D01*
X20548601Y3617333D01*
X20524776Y3624560D01*
X20500000Y3627000D01*
X20440700Y3627000D01*
X20447034Y3647880D01*
X20459000Y3769376D01*
X20459000Y6390624D01*
X20447034Y6512120D01*
X20410582Y6632285D01*
X20410582Y7200000D01*
X20404268Y7264103D01*
X20385570Y7325743D01*
X20355206Y7382550D01*
X20314343Y7432343D01*
X20264550Y7473206D01*
X20207743Y7503570D01*
X20146103Y7522268D01*
X20082000Y7528582D01*
X19182000Y7528582D01*
X19117897Y7522268D01*
X19056257Y7503570D01*
X18999450Y7473206D01*
X18949657Y7432343D01*
X18908794Y7382550D01*
X18878430Y7325743D01*
X18859732Y7264103D01*
X18853418Y7200000D01*
X18853418Y6632284D01*
X18816966Y6512119D01*
X18805000Y6390623D01*
X18805001Y3769376D01*
X18816967Y3647880D01*
X18823301Y3627000D01*
X18733582Y3627000D01*
X18733582Y3818000D01*
X18727268Y3882103D01*
X18708570Y3943743D01*
X18678206Y4000550D01*
X18637343Y4050343D01*
X18587550Y4091206D01*
X18530743Y4121570D01*
X18469103Y4140268D01*
X18405000Y4146582D01*
X17642419Y4146582D01*
X17299583Y4489418D01*
X17755448Y4489418D01*
X17779999Y4487000D01*
X17804550Y4489418D01*
X18405000Y4489418D01*
X18469103Y4495732D01*
X18530743Y4514430D01*
X18587550Y4544794D01*
X18637343Y4585657D01*
X18678206Y4635450D01*
X18708570Y4692257D01*
X18727268Y4753897D01*
X18733582Y4818000D01*
X18733582Y5818000D01*
X18727268Y5882103D01*
X18708570Y5943743D01*
X18678206Y6000550D01*
X18637343Y6050343D01*
X18587550Y6091206D01*
X18530743Y6121570D01*
X18469103Y6140268D01*
X18405000Y6146582D01*
X18353000Y6146582D01*
X18353000Y9349066D01*
X18368343Y9361657D01*
X18409206Y9411450D01*
X18439570Y9468257D01*
X18458268Y9529897D01*
X18464582Y9594000D01*
X18464582Y10504000D01*
X18458268Y10568103D01*
X18439570Y10629743D01*
X18409206Y10686550D01*
X18368343Y10736343D01*
X18318550Y10777206D01*
X18261743Y10807570D01*
X18200103Y10826268D01*
X18136000Y10832582D01*
X17791802Y10832582D01*
X17688119Y10864034D01*
X17526000Y10880001D01*
X17363880Y10864034D01*
X17260197Y10832582D01*
X16916000Y10832582D01*
X16851897Y10826268D01*
X16790257Y10807570D01*
X16733450Y10777206D01*
X16683657Y10736343D01*
X16642794Y10686550D01*
X16612430Y10629743D01*
X16593732Y10568103D01*
X16587418Y10504000D01*
X16587418Y9594000D01*
X16593732Y9529897D01*
X16612430Y9468257D01*
X16642794Y9411450D01*
X16683657Y9361657D01*
X16699000Y9349066D01*
X16699001Y6426000D01*
X16581397Y6426000D01*
X16440942Y6398062D01*
X16355701Y6362754D01*
X16336343Y6386343D01*
X16286550Y6427206D01*
X16229743Y6457570D01*
X16168103Y6476268D01*
X16104000Y6482582D01*
X14884000Y6482582D01*
X14819897Y6476268D01*
X14758257Y6457570D01*
X14701450Y6427206D01*
X14651657Y6386343D01*
X14610794Y6336550D01*
X14580430Y6279743D01*
X14561732Y6218103D01*
X14555418Y6154000D01*
X14555418Y5244000D01*
X14561732Y5179897D01*
X14563399Y5174400D01*
X14386739Y5174400D01*
X14358400Y5177191D01*
X14245288Y5166051D01*
X14161582Y5140659D01*
X14161582Y6072000D01*
X14155268Y6136103D01*
X14136570Y6197743D01*
X14106206Y6254550D01*
X14065343Y6304343D01*
X14015550Y6345206D01*
X13958743Y6375570D01*
X13897103Y6394268D01*
X13833000Y6400582D01*
X12583000Y6400582D01*
X12518897Y6394268D01*
X12457257Y6375570D01*
X12400450Y6345206D01*
X12350657Y6304343D01*
X12309794Y6254550D01*
X12279430Y6197743D01*
X12264644Y6149000D01*
X11860582Y6149000D01*
X11860582Y6154000D01*
X11854268Y6218103D01*
X11835570Y6279743D01*
X11805206Y6336550D01*
X11764343Y6386343D01*
X11714550Y6427206D01*
X11657743Y6457570D01*
X11596103Y6476268D01*
X11532000Y6482582D01*
X10312000Y6482582D01*
X10247897Y6476268D01*
X10186257Y6457570D01*
X10129450Y6427206D01*
X10079657Y6386343D01*
X10038794Y6336550D01*
X10008430Y6279743D01*
X10007295Y6276000D01*
X9603331Y6276000D01*
X9575000Y6278790D01*
X9546669Y6276000D01*
X9546664Y6276000D01*
X9519886Y6273363D01*
X9461888Y6267651D01*
X9397782Y6248204D01*
X9353124Y6234657D01*
X9252885Y6181079D01*
X9165026Y6108974D01*
X9146961Y6086962D01*
X8244581Y5184582D01*
X7732000Y5184582D01*
X7667897Y5178268D01*
X7606257Y5159570D01*
X7549450Y5129206D01*
X7499657Y5088343D01*
X7458794Y5038550D01*
X7428430Y4981743D01*
X7409732Y4920103D01*
X7403418Y4856000D01*
X7403418Y4156000D01*
X7409732Y4091897D01*
X7428430Y4030257D01*
X7458794Y3973450D01*
X7499657Y3923657D01*
X7549450Y3882794D01*
X7606257Y3852430D01*
X7667897Y3833732D01*
X7732000Y3827418D01*
X9032000Y3827418D01*
X9096103Y3833732D01*
X9157743Y3852430D01*
X9214550Y3882794D01*
X9264343Y3923657D01*
X9305206Y3973450D01*
X9335570Y4030257D01*
X9354268Y4091897D01*
X9360582Y4156000D01*
X9360582Y4668581D01*
X9814001Y5122000D01*
X10007295Y5122000D01*
X10008430Y5118257D01*
X10038794Y5061450D01*
X10079657Y5011657D01*
X10129450Y4970794D01*
X10186257Y4940430D01*
X10247897Y4921732D01*
X10312000Y4915418D01*
X11532000Y4915418D01*
X11596103Y4921732D01*
X11657743Y4940430D01*
X11714550Y4970794D01*
X11744046Y4995000D01*
X12264644Y4995000D01*
X12279430Y4946257D01*
X12309794Y4889450D01*
X12350657Y4839657D01*
X12400450Y4798794D01*
X12457257Y4768430D01*
X12518897Y4749732D01*
X12583000Y4743418D01*
X13688417Y4743418D01*
X13345581Y4400582D01*
X12583000Y4400582D01*
X12518897Y4394268D01*
X12457257Y4375570D01*
X12400450Y4345206D01*
X12350657Y4304343D01*
X12309794Y4254550D01*
X12279430Y4197743D01*
X12260732Y4136103D01*
X12254418Y4072000D01*
X12254418Y3072000D01*
X12260732Y3007897D01*
X12279430Y2946257D01*
X12309794Y2889450D01*
X12350657Y2839657D01*
X12400450Y2798794D01*
X12457257Y2768430D01*
X12518897Y2749732D01*
X12583000Y2743418D01*
X13833000Y2743418D01*
X13897103Y2749732D01*
X13958743Y2768430D01*
X14015550Y2798794D01*
X14065343Y2839657D01*
X14106206Y2889450D01*
X14136570Y2946257D01*
X14155268Y3007897D01*
X14161582Y3072000D01*
X14161582Y3584581D01*
X14597401Y4020400D01*
X16136599Y4020400D01*
X16826418Y3330581D01*
X16826418Y3305419D01*
X16122034Y2601035D01*
X16100027Y2582974D01*
X16081966Y2560967D01*
X16081963Y2560964D01*
X16068693Y2544794D01*
X16027922Y2495115D01*
X16009173Y2460037D01*
X15974344Y2394876D01*
X15941349Y2286111D01*
X15930210Y2173000D01*
X15933001Y2144659D01*
X15933000Y1627000D01*
X9627000Y1627000D01*
X9627000Y3500000D01*
X9624560Y3524776D01*
X9617333Y3548601D01*
X9605597Y3570557D01*
X9589803Y3589803D01*
X9570557Y3605597D01*
X9548601Y3617333D01*
X9524776Y3624560D01*
X9500000Y3627000D01*
X7352000Y3627000D01*
X7352000Y11130698D01*
X10173000Y11130698D01*
X10173000Y10869302D01*
X10223996Y10612928D01*
X10324028Y10371430D01*
X10469252Y10154087D01*
X10654087Y9969252D01*
X10871430Y9824028D01*
X11112928Y9723996D01*
X11369302Y9673000D01*
X11630698Y9673000D01*
X11887072Y9723996D01*
X12128570Y9824028D01*
X12345913Y9969252D01*
X12530748Y10154087D01*
X12543385Y10173000D01*
X15166386Y10173000D01*
X15207000Y10169000D01*
X15247614Y10173000D01*
X15247624Y10173000D01*
X15369120Y10184966D01*
X15525010Y10232255D01*
X15668679Y10309048D01*
X15794606Y10412394D01*
X15820505Y10443952D01*
X17868554Y12492000D01*
X18932962Y12492000D01*
X18908794Y12462550D01*
X18878430Y12405743D01*
X18859732Y12344103D01*
X18853418Y12280000D01*
X18853418Y11712284D01*
X18816966Y11592119D01*
X18805000Y11470623D01*
X18805001Y8849376D01*
X18816967Y8727880D01*
X18853418Y8607718D01*
X18853418Y8040000D01*
X18859732Y7975897D01*
X18878430Y7914257D01*
X18908794Y7857450D01*
X18949657Y7807657D01*
X18999450Y7766794D01*
X19056257Y7736430D01*
X19117897Y7717732D01*
X19182000Y7711418D01*
X20082000Y7711418D01*
X20146103Y7717732D01*
X20207743Y7736430D01*
X20264550Y7766794D01*
X20314343Y7807657D01*
X20355206Y7857450D01*
X20385570Y7914257D01*
X20404268Y7975897D01*
X20410582Y8040000D01*
X20410582Y8607715D01*
X20447034Y8727880D01*
X20459000Y8849376D01*
X20459000Y11470624D01*
X20447034Y11592120D01*
X20410582Y11712285D01*
X20410582Y12280000D01*
X20404268Y12344103D01*
X20385570Y12405743D01*
X20384268Y12408178D01*
X21753418Y11039027D01*
X21753418Y10580000D01*
X21759732Y10515897D01*
X21778430Y10454257D01*
X21808794Y10397450D01*
X21849657Y10347657D01*
X21899450Y10306794D01*
X21956257Y10276430D01*
X22017897Y10257732D01*
X22082000Y10251418D01*
X22982000Y10251418D01*
X23046103Y10257732D01*
X23107743Y10276430D01*
X23164550Y10306794D01*
X23214343Y10347657D01*
X23255206Y10397450D01*
X23285570Y10454257D01*
X23304268Y10515897D01*
X23310582Y10580000D01*
X23310582Y10603000D01*
X23353447Y10603000D01*
X23425418Y10531028D01*
X23425418Y10072000D01*
X23431732Y10007897D01*
X23450430Y9946257D01*
X23480794Y9889450D01*
X23521657Y9839657D01*
X23571450Y9798794D01*
X23628257Y9768430D01*
X23689897Y9749732D01*
X23754000Y9743418D01*
X24654000Y9743418D01*
X24718103Y9749732D01*
X24779743Y9768430D01*
X24836550Y9798794D01*
X24886343Y9839657D01*
X24927206Y9889450D01*
X24957570Y9946257D01*
X24976268Y10007897D01*
X24982582Y10072000D01*
X24982582Y10639715D01*
X25019034Y10759880D01*
X25031000Y10881377D01*
X25031000Y10881390D01*
X25035000Y10922001D01*
X25031000Y10962612D01*
X25031000Y10979447D01*
X25996555Y11945000D01*
X26375689Y11945000D01*
X26350430Y11897743D01*
X26331732Y11836103D01*
X26325418Y11772000D01*
X26325418Y11204282D01*
X26288967Y11084120D01*
X26277001Y10962624D01*
X26277000Y8341377D01*
X26288966Y8219881D01*
X26325418Y8099716D01*
X26325418Y7532000D01*
X26331732Y7467897D01*
X26350430Y7406257D01*
X26380794Y7349450D01*
X26421657Y7299657D01*
X26471450Y7258794D01*
X26528257Y7228430D01*
X26589897Y7209732D01*
X26654000Y7203418D01*
X27554000Y7203418D01*
X27618103Y7209732D01*
X27679743Y7228430D01*
X27736550Y7258794D01*
X27786343Y7299657D01*
X27827206Y7349450D01*
X27857570Y7406257D01*
X27876268Y7467897D01*
X27882582Y7532000D01*
X27882582Y8099715D01*
X27919034Y8219880D01*
X27931000Y8341376D01*
X27931000Y10962624D01*
X27919034Y11084120D01*
X27882582Y11204285D01*
X27882582Y11329862D01*
X28031418Y11181026D01*
X28031418Y10292000D01*
X28037732Y10227897D01*
X28056430Y10166257D01*
X28086794Y10109450D01*
X28127657Y10059657D01*
X28177450Y10018794D01*
X28234257Y9988430D01*
X28295897Y9969732D01*
X28360000Y9963418D01*
X28383000Y9963418D01*
X28383001Y9848582D01*
X28360000Y9848582D01*
X28295897Y9842268D01*
X28234257Y9823570D01*
X28177450Y9793206D01*
X28127657Y9752343D01*
X28086794Y9702550D01*
X28056430Y9645743D01*
X28037732Y9584103D01*
X28031418Y9520000D01*
X28031418Y8620000D01*
X28037732Y8555897D01*
X28056430Y8494257D01*
X28086794Y8437450D01*
X28127657Y8387657D01*
X28177450Y8346794D01*
X28234257Y8316430D01*
X28295897Y8297732D01*
X28360000Y8291418D01*
X28927716Y8291418D01*
X29047881Y8254966D01*
X29210000Y8238999D01*
X29372120Y8254966D01*
X29492285Y8291418D01*
X30060000Y8291418D01*
X30124103Y8297732D01*
X30185743Y8316430D01*
X30242550Y8346794D01*
X30292343Y8387657D01*
X30333206Y8437450D01*
X30363570Y8494257D01*
X30382268Y8555897D01*
X30388582Y8620000D01*
X30388582Y9520000D01*
X30382268Y9584103D01*
X30363570Y9645743D01*
X30333206Y9702550D01*
X30292343Y9752343D01*
X30242550Y9793206D01*
X30185743Y9823570D01*
X30124103Y9842268D01*
X30060000Y9848582D01*
X30037000Y9848582D01*
X30037000Y9963418D01*
X30060000Y9963418D01*
X30124103Y9969732D01*
X30185743Y9988430D01*
X30242550Y10018794D01*
X30292343Y10059657D01*
X30333206Y10109450D01*
X30363570Y10166257D01*
X30382268Y10227897D01*
X30388582Y10292000D01*
X30388582Y11192000D01*
X30571418Y11192000D01*
X30571418Y10292000D01*
X30577732Y10227897D01*
X30596430Y10166257D01*
X30626794Y10109450D01*
X30667657Y10059657D01*
X30717450Y10018794D01*
X30774257Y9988430D01*
X30835897Y9969732D01*
X30900000Y9963418D01*
X30923000Y9963418D01*
X30923001Y9848582D01*
X30900000Y9848582D01*
X30835897Y9842268D01*
X30774257Y9823570D01*
X30717450Y9793206D01*
X30667657Y9752343D01*
X30626794Y9702550D01*
X30596430Y9645743D01*
X30577732Y9584103D01*
X30571418Y9520000D01*
X30571418Y8620000D01*
X30577732Y8555897D01*
X30596430Y8494257D01*
X30626794Y8437450D01*
X30667657Y8387657D01*
X30717450Y8346794D01*
X30774257Y8316430D01*
X30835897Y8297732D01*
X30900000Y8291418D01*
X31467716Y8291418D01*
X31587881Y8254966D01*
X31750000Y8238999D01*
X31912120Y8254966D01*
X32032285Y8291418D01*
X32600000Y8291418D01*
X32664103Y8297732D01*
X32725743Y8316430D01*
X32782550Y8346794D01*
X32832343Y8387657D01*
X32873206Y8437450D01*
X32903570Y8494257D01*
X32922268Y8555897D01*
X32928582Y8620000D01*
X32928582Y9520000D01*
X32922268Y9584103D01*
X32903570Y9645743D01*
X32873206Y9702550D01*
X32832343Y9752343D01*
X32782550Y9793206D01*
X32725743Y9823570D01*
X32664103Y9842268D01*
X32600000Y9848582D01*
X32577000Y9848582D01*
X32577000Y9915000D01*
X36253001Y9915000D01*
X36253000Y7244582D01*
X36220000Y7244582D01*
X36155897Y7238268D01*
X36094257Y7219570D01*
X36037450Y7189206D01*
X35987657Y7148343D01*
X35946794Y7098550D01*
X35916430Y7041743D01*
X35897732Y6980103D01*
X35891418Y6916000D01*
X35891418Y6006000D01*
X35897732Y5941897D01*
X35916430Y5880257D01*
X35946794Y5823450D01*
X35987657Y5773657D01*
X36037450Y5732794D01*
X36094257Y5702430D01*
X36155897Y5683732D01*
X36220000Y5677418D01*
X37440000Y5677418D01*
X37504103Y5683732D01*
X37565743Y5702430D01*
X37622550Y5732794D01*
X37672343Y5773657D01*
X37713206Y5823450D01*
X37743570Y5880257D01*
X37762268Y5941897D01*
X37768582Y6006000D01*
X37768582Y6916000D01*
X37762268Y6980103D01*
X37743570Y7041743D01*
X37713206Y7098550D01*
X37672343Y7148343D01*
X37622550Y7189206D01*
X37565743Y7219570D01*
X37504103Y7238268D01*
X37440000Y7244582D01*
X37407000Y7244582D01*
X37407000Y9711251D01*
X37471072Y9723996D01*
X37712570Y9824028D01*
X37929913Y9969252D01*
X38114748Y10154087D01*
X38259972Y10371430D01*
X38360004Y10612928D01*
X38411000Y10869302D01*
X38411000Y11130698D01*
X38360004Y11387072D01*
X38259972Y11628570D01*
X38114748Y11845913D01*
X37929913Y12030748D01*
X37712570Y12175972D01*
X37471072Y12276004D01*
X37214698Y12327000D01*
X36953302Y12327000D01*
X36696928Y12276004D01*
X36455430Y12175972D01*
X36238087Y12030748D01*
X36053252Y11845913D01*
X35908028Y11628570D01*
X35883353Y11569000D01*
X31790624Y11569000D01*
X31750000Y11573001D01*
X31709376Y11569000D01*
X31587880Y11557034D01*
X31467715Y11520582D01*
X30900000Y11520582D01*
X30835897Y11514268D01*
X30774257Y11495570D01*
X30717450Y11465206D01*
X30667657Y11424343D01*
X30626794Y11374550D01*
X30596430Y11317743D01*
X30577732Y11256103D01*
X30571418Y11192000D01*
X30388582Y11192000D01*
X30382268Y11256103D01*
X30363570Y11317743D01*
X30333206Y11374550D01*
X30292343Y11424343D01*
X30242550Y11465206D01*
X30185743Y11495570D01*
X30124103Y11514268D01*
X30060000Y11520582D01*
X29961403Y11520582D01*
X29900952Y11633678D01*
X29823503Y11728050D01*
X29823496Y11728057D01*
X29797606Y11759604D01*
X29766058Y11785495D01*
X28688134Y12863418D01*
X28927715Y12863418D01*
X29047880Y12826966D01*
X29169376Y12815000D01*
X31790624Y12815000D01*
X31912120Y12826966D01*
X32032285Y12863418D01*
X32600000Y12863418D01*
X32664103Y12869732D01*
X32725743Y12888430D01*
X32782550Y12918794D01*
X32832343Y12959657D01*
X32873206Y13009450D01*
X32903570Y13066257D01*
X32922268Y13127897D01*
X32928582Y13192000D01*
X32928582Y14092000D01*
X32922268Y14156103D01*
X32903570Y14217743D01*
X32873206Y14274550D01*
X32832343Y14324343D01*
X32782550Y14365206D01*
X32725743Y14395570D01*
X32664103Y14414268D01*
X32600000Y14420582D01*
X32032285Y14420582D01*
X31912120Y14457034D01*
X31790624Y14469000D01*
X29169376Y14469000D01*
X29047880Y14457034D01*
X28927715Y14420582D01*
X28360000Y14420582D01*
X28295897Y14414268D01*
X28234257Y14395570D01*
X28177450Y14365206D01*
X28127657Y14324343D01*
X28086794Y14274550D01*
X28056430Y14217743D01*
X28037732Y14156103D01*
X28031418Y14092000D01*
X28031418Y13484471D01*
X27928008Y13539745D01*
X27772118Y13587034D01*
X27650622Y13599000D01*
X27650612Y13599000D01*
X27609998Y13603000D01*
X27569384Y13599000D01*
X25694614Y13599000D01*
X25654000Y13603000D01*
X25613386Y13599000D01*
X25613376Y13599000D01*
X25491880Y13587034D01*
X25335990Y13539745D01*
X25269113Y13503998D01*
X25192320Y13462952D01*
X25097948Y13385503D01*
X25097941Y13385496D01*
X25066394Y13359606D01*
X25040503Y13328058D01*
X23934355Y12221908D01*
X23858120Y12245034D01*
X23736624Y12257000D01*
X23736614Y12257000D01*
X23696000Y12261000D01*
X23655386Y12257000D01*
X23310582Y12257000D01*
X23310582Y12280000D01*
X23304268Y12344103D01*
X23285570Y12405743D01*
X23255206Y12462550D01*
X23214343Y12512343D01*
X23164550Y12553206D01*
X23107743Y12583570D01*
X23046103Y12602268D01*
X22982000Y12608582D01*
X22522972Y12608582D01*
X21256505Y13875048D01*
X21230606Y13906606D01*
X21104679Y14009952D01*
X20961010Y14086745D01*
X20805120Y14134034D01*
X20683624Y14146000D01*
X20683614Y14146000D01*
X20643000Y14150000D01*
X20602386Y14146000D01*
X17566613Y14146000D01*
X17525999Y14150000D01*
X17485385Y14146000D01*
X17485376Y14146000D01*
X17363880Y14134034D01*
X17260197Y14102582D01*
X16916000Y14102582D01*
X16851897Y14096268D01*
X16790257Y14077570D01*
X16733450Y14047206D01*
X16683657Y14006343D01*
X16642794Y13956550D01*
X16612430Y13899743D01*
X16593732Y13838103D01*
X16587418Y13774000D01*
X16587418Y13549972D01*
X14864447Y11827000D01*
X12543385Y11827000D01*
X12530748Y11845913D01*
X12345913Y12030748D01*
X12128570Y12175972D01*
X11887072Y12276004D01*
X11630698Y12327000D01*
X11369302Y12327000D01*
X11112928Y12276004D01*
X10871430Y12175972D01*
X10654087Y12030748D01*
X10469252Y11845913D01*
X10324028Y11628570D01*
X10223996Y11387072D01*
X10173000Y11130698D01*
X7352000Y11130698D01*
X7352000Y15148000D01*
X41148001Y15148000D01*
X41148000Y1627000D01*
M02*
