G04 #@! TF.GenerationSoftware,KiCad,Pcbnew,5.1.5+dfsg1-2*
G04 #@! TF.CreationDate,2020-03-14T19:30:29+01:00*
G04 #@! TF.ProjectId,BlinkySWR-0.2-S,426c696e-6b79-4535-9752-2d302e322d53,rev?*
G04 #@! TF.SameCoordinates,Original*
G04 #@! TF.FileFunction,Paste,Top*
G04 #@! TF.FilePolarity,Positive*
%FSLAX46Y46*%
G04 Gerber Fmt 4.6, Leading zero omitted, Abs format (unit mm)*
G04 Created by KiCad (PCBNEW 5.1.5+dfsg1-2) date 2020-03-14 19:30:29*
%MOMM*%
%LPD*%
G04 APERTURE LIST*
%ADD10R,1.700000X0.900000*%
%ADD11R,0.900000X1.700000*%
%ADD12R,1.550000X0.600000*%
%ADD13R,2.550000X2.700000*%
%ADD14R,1.000000X1.250000*%
%ADD15R,0.900000X0.800000*%
%ADD16R,1.060000X0.650000*%
%ADD17R,0.700000X1.300000*%
%ADD18R,1.300000X0.700000*%
%ADD19R,1.220000X0.910000*%
%ADD20R,1.250000X1.000000*%
G04 APERTURE END LIST*
D10*
X29210000Y13642000D03*
X29210000Y10742000D03*
X29210000Y6170000D03*
X29210000Y9070000D03*
D11*
X27104000Y5842000D03*
X24204000Y5842000D03*
X19632000Y11430000D03*
X22532000Y11430000D03*
X19632000Y6350000D03*
X22532000Y6350000D03*
X27104000Y10922000D03*
X24204000Y10922000D03*
D12*
X20480000Y-1919000D03*
X20480000Y-3189000D03*
X20480000Y-4459000D03*
X20480000Y-5729000D03*
X15080000Y-5729000D03*
X15080000Y-4459000D03*
X15080000Y-3189000D03*
X15080000Y-1919000D03*
D13*
X30353000Y-8382000D03*
X36703000Y-8382000D03*
X30353000Y-3302000D03*
X36703000Y-3302000D03*
D14*
X23778000Y-3302000D03*
X25778000Y-3302000D03*
D10*
X31750000Y10742000D03*
X31750000Y13642000D03*
X31750000Y9070000D03*
X31750000Y6170000D03*
D11*
X24204000Y3302000D03*
X27104000Y3302000D03*
X19632000Y8890000D03*
X22532000Y8890000D03*
X27104000Y8382000D03*
X24204000Y8382000D03*
X22532000Y3810000D03*
X19632000Y3810000D03*
D15*
X20570000Y-7600000D03*
X20570000Y-9700000D03*
X18538000Y-9700000D03*
X18538000Y-7600000D03*
X16506000Y-7600000D03*
X16506000Y-9700000D03*
X14474000Y-9700000D03*
X14474000Y-7600000D03*
X12442000Y-7600000D03*
X12442000Y-9700000D03*
X10410000Y-9700000D03*
X10410000Y-7600000D03*
D16*
X27774000Y710000D03*
X27774000Y-1190000D03*
X25574000Y-1190000D03*
X25574000Y-240000D03*
X25574000Y710000D03*
D17*
X30292000Y508000D03*
X32192000Y508000D03*
D18*
X33782000Y2352000D03*
X33782000Y4252000D03*
D17*
X27874000Y-9906000D03*
X25974000Y-9906000D03*
X11872000Y0D03*
X9972000Y0D03*
D18*
X8382000Y2606000D03*
X8382000Y4506000D03*
X19558000Y1712000D03*
X19558000Y-188000D03*
D17*
X22164000Y-8382000D03*
X24064000Y-8382000D03*
X9972000Y-5334000D03*
X11872000Y-5334000D03*
D18*
X8128000Y-5776000D03*
X8128000Y-3876000D03*
D19*
X36830000Y6461000D03*
X36830000Y3191000D03*
X15494000Y2429000D03*
X15494000Y5699000D03*
X17526000Y13319000D03*
X17526000Y10049000D03*
X10922000Y5699000D03*
X10922000Y2429000D03*
D14*
X33798000Y508000D03*
X35798000Y508000D03*
X28972000Y3556000D03*
X30972000Y3556000D03*
X9922000Y-2032000D03*
X11922000Y-2032000D03*
D20*
X13208000Y5572000D03*
X13208000Y3572000D03*
X17780000Y5318000D03*
X17780000Y3318000D03*
D14*
X17510000Y0D03*
X15510000Y0D03*
D20*
X23626000Y-1240000D03*
X23626000Y760000D03*
M02*
