G04 #@! TF.GenerationSoftware,KiCad,Pcbnew,5.1.4+dfsg1-1~bpo10+1*
G04 #@! TF.CreationDate,2019-10-02T20:55:18+02:00*
G04 #@! TF.ProjectId,iak-swr-meter,69616b2d-7377-4722-9d6d-657465722e6b,rev?*
G04 #@! TF.SameCoordinates,Original*
G04 #@! TF.FileFunction,Legend,Bot*
G04 #@! TF.FilePolarity,Positive*
%FSLAX46Y46*%
G04 Gerber Fmt 4.6, Leading zero omitted, Abs format (unit mm)*
G04 Created by KiCad (PCBNEW 5.1.4+dfsg1-1~bpo10+1) date 2019-10-02 20:55:18*
%MOMM*%
%LPD*%
G04 APERTURE LIST*
%ADD10C,0.375000*%
%ADD11C,0.500000*%
%ADD12C,0.150000*%
%ADD13C,0.120000*%
%ADD14C,0.200000*%
%ADD15C,0.125000*%
%ADD16C,0.100000*%
G04 APERTURE END LIST*
D10*
X46714285Y14750000D02*
X46000000Y14750000D01*
X46857142Y14321428D02*
X46357142Y15821428D01*
X45857142Y14321428D01*
X45357142Y14321428D02*
X45357142Y15821428D01*
X44500000Y14321428D01*
X44500000Y15821428D01*
X44000000Y15821428D02*
X43142857Y15821428D01*
X43571428Y14321428D02*
X43571428Y15821428D01*
D11*
X9095238Y2476190D02*
X9095238Y3619047D01*
X7095238Y3047619D02*
X9095238Y3047619D01*
X7095238Y5428571D02*
X8047619Y4761904D01*
X7095238Y4285714D02*
X9095238Y4285714D01*
X9095238Y5047619D01*
X9000000Y5238095D01*
X8904761Y5333333D01*
X8714285Y5428571D01*
X8428571Y5428571D01*
X8238095Y5333333D01*
X8142857Y5238095D01*
X8047619Y5047619D01*
X8047619Y4285714D01*
X9095238Y6095238D02*
X7095238Y7428571D01*
X9095238Y7428571D02*
X7095238Y6095238D01*
X50523809Y7500000D02*
X50714285Y7595238D01*
X51000000Y7595238D01*
X51285714Y7500000D01*
X51476190Y7309523D01*
X51571428Y7119047D01*
X51666666Y6738095D01*
X51666666Y6452380D01*
X51571428Y6071428D01*
X51476190Y5880952D01*
X51285714Y5690476D01*
X51000000Y5595238D01*
X50809523Y5595238D01*
X50523809Y5690476D01*
X50428571Y5785714D01*
X50428571Y6452380D01*
X50809523Y6452380D01*
X49571428Y5595238D02*
X49571428Y7595238D01*
X48428571Y5595238D01*
X48428571Y7595238D01*
X47476190Y5595238D02*
X47476190Y7595238D01*
X47000000Y7595238D01*
X46714285Y7500000D01*
X46523809Y7309523D01*
X46428571Y7119047D01*
X46333333Y6738095D01*
X46333333Y6452380D01*
X46428571Y6071428D01*
X46523809Y5880952D01*
X46714285Y5690476D01*
X47000000Y5595238D01*
X47476190Y5595238D01*
X51785714Y-333333D02*
X50833333Y-333333D01*
X51976190Y-904761D02*
X51309523Y1095238D01*
X50642857Y-904761D01*
X49976190Y-904761D02*
X49976190Y1095238D01*
X48833333Y-904761D01*
X48833333Y1095238D01*
X48166666Y1095238D02*
X47023809Y1095238D01*
X47595238Y-904761D02*
X47595238Y1095238D01*
D12*
X37320000Y9000000D02*
X40520000Y9000000D01*
X42420000Y10900000D02*
X42420000Y14100000D01*
X40520000Y16000000D02*
X37320000Y16000000D01*
X35420000Y10900000D02*
X35420000Y14100000D01*
D13*
X54000000Y7520000D02*
X54000000Y6110000D01*
X54000000Y-520000D02*
X54000000Y890000D01*
X55610000Y6110000D02*
X55610000Y890000D01*
X52390000Y6110000D02*
X55610000Y6110000D01*
X52390000Y890000D02*
X52390000Y6110000D01*
X55610000Y890000D02*
X52390000Y890000D01*
D14*
X41249999Y0D02*
G75*
G03X41249999Y0I-3749999J0D01*
G01*
X43749999Y0D02*
G75*
G03X43749999Y0I-6249999J0D01*
G01*
D12*
X19784469Y6858000D02*
G75*
G03X19784469Y6858000I-2512469J0D01*
G01*
X22022000Y6858000D02*
G75*
G03X22022000Y6858000I-4750000J0D01*
G01*
X11600000Y16000000D02*
X8400000Y16000000D01*
X6500000Y14100000D02*
X6500000Y10900000D01*
X8400000Y9000000D02*
X11600000Y9000000D01*
X13500000Y14100000D02*
X13500000Y10900000D01*
D13*
X20046400Y-6592000D02*
X20046400Y-5092000D01*
X19296400Y-5842000D02*
X20796400Y-5842000D01*
X29577400Y-6121000D02*
X29577400Y-5563000D01*
X29537400Y-6514000D02*
X29537400Y-5170000D01*
X29497400Y-6755000D02*
X29497400Y-4929000D01*
X29457400Y-6946000D02*
X29457400Y-4738000D01*
X29417400Y-7107000D02*
X29417400Y-4577000D01*
X29377400Y-7249000D02*
X29377400Y-4435000D01*
X29337400Y-7378000D02*
X29337400Y-4306000D01*
X29297400Y-7496000D02*
X29297400Y-4188000D01*
X29257400Y-7605000D02*
X29257400Y-4079000D01*
X29217400Y-7708000D02*
X29217400Y-3976000D01*
X29177400Y-7804000D02*
X29177400Y-3880000D01*
X29137400Y-7895000D02*
X29137400Y-3789000D01*
X29097400Y-7982000D02*
X29097400Y-3702000D01*
X29057400Y-8064000D02*
X29057400Y-3620000D01*
X29017400Y-8143000D02*
X29017400Y-3541000D01*
X28977400Y-8219000D02*
X28977400Y-3465000D01*
X28937400Y-8291000D02*
X28937400Y-3393000D01*
X28897400Y-8361000D02*
X28897400Y-3323000D01*
X28857400Y-8429000D02*
X28857400Y-3255000D01*
X28817400Y-8494000D02*
X28817400Y-3190000D01*
X28777400Y-8557000D02*
X28777400Y-3127000D01*
X28737400Y-8619000D02*
X28737400Y-3065000D01*
X28697400Y-8678000D02*
X28697400Y-3006000D01*
X28657400Y-8736000D02*
X28657400Y-2948000D01*
X28617400Y-8791000D02*
X28617400Y-2893000D01*
X28577400Y-8846000D02*
X28577400Y-2838000D01*
X28537400Y-8899000D02*
X28537400Y-2785000D01*
X28497400Y-8950000D02*
X28497400Y-2734000D01*
X28457400Y-9000000D02*
X28457400Y-2684000D01*
X28417400Y-9049000D02*
X28417400Y-2635000D01*
X28377400Y-9097000D02*
X28377400Y-2587000D01*
X28337400Y-9144000D02*
X28337400Y-2540000D01*
X28297400Y-9189000D02*
X28297400Y-2495000D01*
X28257400Y-9233000D02*
X28257400Y-2451000D01*
X28217400Y-9277000D02*
X28217400Y-2407000D01*
X28177400Y-9319000D02*
X28177400Y-2365000D01*
X28137400Y-4661000D02*
X28137400Y-2324000D01*
X28137400Y-9360000D02*
X28137400Y-7023000D01*
X28097400Y-4661000D02*
X28097400Y-2283000D01*
X28097400Y-9401000D02*
X28097400Y-7023000D01*
X28057400Y-4661000D02*
X28057400Y-2244000D01*
X28057400Y-9440000D02*
X28057400Y-7023000D01*
X28017400Y-4661000D02*
X28017400Y-2205000D01*
X28017400Y-9479000D02*
X28017400Y-7023000D01*
X27977400Y-4661000D02*
X27977400Y-2167000D01*
X27977400Y-9517000D02*
X27977400Y-7023000D01*
X27937400Y-4661000D02*
X27937400Y-2130000D01*
X27937400Y-9554000D02*
X27937400Y-7023000D01*
X27897400Y-4661000D02*
X27897400Y-2094000D01*
X27897400Y-9590000D02*
X27897400Y-7023000D01*
X27857400Y-4661000D02*
X27857400Y-2058000D01*
X27857400Y-9626000D02*
X27857400Y-7023000D01*
X27817400Y-4661000D02*
X27817400Y-2023000D01*
X27817400Y-9661000D02*
X27817400Y-7023000D01*
X27777400Y-4661000D02*
X27777400Y-1989000D01*
X27777400Y-9695000D02*
X27777400Y-7023000D01*
X27737400Y-4661000D02*
X27737400Y-1956000D01*
X27737400Y-9728000D02*
X27737400Y-7023000D01*
X27697400Y-4661000D02*
X27697400Y-1923000D01*
X27697400Y-9761000D02*
X27697400Y-7023000D01*
X27657400Y-4661000D02*
X27657400Y-1891000D01*
X27657400Y-9793000D02*
X27657400Y-7023000D01*
X27617400Y-4661000D02*
X27617400Y-1860000D01*
X27617400Y-9824000D02*
X27617400Y-7023000D01*
X27577400Y-4661000D02*
X27577400Y-1829000D01*
X27577400Y-9855000D02*
X27577400Y-7023000D01*
X27537400Y-4661000D02*
X27537400Y-1799000D01*
X27537400Y-9885000D02*
X27537400Y-7023000D01*
X27497400Y-4661000D02*
X27497400Y-1770000D01*
X27497400Y-9914000D02*
X27497400Y-7023000D01*
X27457400Y-4661000D02*
X27457400Y-1741000D01*
X27457400Y-9943000D02*
X27457400Y-7023000D01*
X27417400Y-4661000D02*
X27417400Y-1712000D01*
X27417400Y-9972000D02*
X27417400Y-7023000D01*
X27377400Y-4661000D02*
X27377400Y-1685000D01*
X27377400Y-9999000D02*
X27377400Y-7023000D01*
X27337400Y-4661000D02*
X27337400Y-1657000D01*
X27337400Y-10027000D02*
X27337400Y-7023000D01*
X27297400Y-4661000D02*
X27297400Y-1631000D01*
X27297400Y-10053000D02*
X27297400Y-7023000D01*
X27257400Y-4661000D02*
X27257400Y-1605000D01*
X27257400Y-10079000D02*
X27257400Y-7023000D01*
X27217400Y-4661000D02*
X27217400Y-1579000D01*
X27217400Y-10105000D02*
X27217400Y-7023000D01*
X27177400Y-4661000D02*
X27177400Y-1554000D01*
X27177400Y-10130000D02*
X27177400Y-7023000D01*
X27137400Y-4661000D02*
X27137400Y-1530000D01*
X27137400Y-10154000D02*
X27137400Y-7023000D01*
X27097400Y-4661000D02*
X27097400Y-1506000D01*
X27097400Y-10178000D02*
X27097400Y-7023000D01*
X27057400Y-4661000D02*
X27057400Y-1482000D01*
X27057400Y-10202000D02*
X27057400Y-7023000D01*
X27017400Y-4661000D02*
X27017400Y-1459000D01*
X27017400Y-10225000D02*
X27017400Y-7023000D01*
X26977400Y-4661000D02*
X26977400Y-1437000D01*
X26977400Y-10247000D02*
X26977400Y-7023000D01*
X26937400Y-4661000D02*
X26937400Y-1414000D01*
X26937400Y-10270000D02*
X26937400Y-7023000D01*
X26897400Y-4661000D02*
X26897400Y-1393000D01*
X26897400Y-10291000D02*
X26897400Y-7023000D01*
X26857400Y-4661000D02*
X26857400Y-1372000D01*
X26857400Y-10312000D02*
X26857400Y-7023000D01*
X26817400Y-4661000D02*
X26817400Y-1351000D01*
X26817400Y-10333000D02*
X26817400Y-7023000D01*
X26777400Y-4661000D02*
X26777400Y-1331000D01*
X26777400Y-10353000D02*
X26777400Y-7023000D01*
X26737400Y-4661000D02*
X26737400Y-1311000D01*
X26737400Y-10373000D02*
X26737400Y-7023000D01*
X26697400Y-4661000D02*
X26697400Y-1292000D01*
X26697400Y-10392000D02*
X26697400Y-7023000D01*
X26657400Y-4661000D02*
X26657400Y-1273000D01*
X26657400Y-10411000D02*
X26657400Y-7023000D01*
X26617400Y-4661000D02*
X26617400Y-1254000D01*
X26617400Y-10430000D02*
X26617400Y-7023000D01*
X26577400Y-4661000D02*
X26577400Y-1236000D01*
X26577400Y-10448000D02*
X26577400Y-7023000D01*
X26537400Y-4661000D02*
X26537400Y-1218000D01*
X26537400Y-10466000D02*
X26537400Y-7023000D01*
X26497400Y-4661000D02*
X26497400Y-1201000D01*
X26497400Y-10483000D02*
X26497400Y-7023000D01*
X26457400Y-4661000D02*
X26457400Y-1184000D01*
X26457400Y-10500000D02*
X26457400Y-7023000D01*
X26417400Y-4661000D02*
X26417400Y-1168000D01*
X26417400Y-10516000D02*
X26417400Y-7023000D01*
X26377400Y-4661000D02*
X26377400Y-1151000D01*
X26377400Y-10533000D02*
X26377400Y-7023000D01*
X26337400Y-4661000D02*
X26337400Y-1136000D01*
X26337400Y-10548000D02*
X26337400Y-7023000D01*
X26297400Y-4661000D02*
X26297400Y-1120000D01*
X26297400Y-10564000D02*
X26297400Y-7023000D01*
X26257400Y-4661000D02*
X26257400Y-1105000D01*
X26257400Y-10579000D02*
X26257400Y-7023000D01*
X26217400Y-4661000D02*
X26217400Y-1091000D01*
X26217400Y-10593000D02*
X26217400Y-7023000D01*
X26177400Y-4661000D02*
X26177400Y-1077000D01*
X26177400Y-10607000D02*
X26177400Y-7023000D01*
X26137400Y-4661000D02*
X26137400Y-1063000D01*
X26137400Y-10621000D02*
X26137400Y-7023000D01*
X26097400Y-4661000D02*
X26097400Y-1050000D01*
X26097400Y-10634000D02*
X26097400Y-7023000D01*
X26057400Y-4661000D02*
X26057400Y-1036000D01*
X26057400Y-10648000D02*
X26057400Y-7023000D01*
X26017400Y-4661000D02*
X26017400Y-1024000D01*
X26017400Y-10660000D02*
X26017400Y-7023000D01*
X25977400Y-4661000D02*
X25977400Y-1011000D01*
X25977400Y-10673000D02*
X25977400Y-7023000D01*
X25937400Y-4661000D02*
X25937400Y-999000D01*
X25937400Y-10685000D02*
X25937400Y-7023000D01*
X25897400Y-4661000D02*
X25897400Y-988000D01*
X25897400Y-10696000D02*
X25897400Y-7023000D01*
X25857400Y-4661000D02*
X25857400Y-977000D01*
X25857400Y-10707000D02*
X25857400Y-7023000D01*
X25817400Y-4661000D02*
X25817400Y-966000D01*
X25817400Y-10718000D02*
X25817400Y-7023000D01*
X25777400Y-10729000D02*
X25777400Y-955000D01*
X25737400Y-10739000D02*
X25737400Y-945000D01*
X25697400Y-10749000D02*
X25697400Y-935000D01*
X25657400Y-10759000D02*
X25657400Y-925000D01*
X25617400Y-10768000D02*
X25617400Y-916000D01*
X25577400Y-10777000D02*
X25577400Y-907000D01*
X25537400Y-10785000D02*
X25537400Y-899000D01*
X25497400Y-10793000D02*
X25497400Y-891000D01*
X25457400Y-10801000D02*
X25457400Y-883000D01*
X25417400Y-10809000D02*
X25417400Y-875000D01*
X25377400Y-10816000D02*
X25377400Y-868000D01*
X25337400Y-10823000D02*
X25337400Y-861000D01*
X25297400Y-10829000D02*
X25297400Y-855000D01*
X25257400Y-10835000D02*
X25257400Y-849000D01*
X25217400Y-10841000D02*
X25217400Y-843000D01*
X25176400Y-10847000D02*
X25176400Y-837000D01*
X25136400Y-10852000D02*
X25136400Y-832000D01*
X25096400Y-10857000D02*
X25096400Y-827000D01*
X25056400Y-10862000D02*
X25056400Y-822000D01*
X25016400Y-10866000D02*
X25016400Y-818000D01*
X24976400Y-10870000D02*
X24976400Y-814000D01*
X24936400Y-10873000D02*
X24936400Y-811000D01*
X24896400Y-10877000D02*
X24896400Y-807000D01*
X24856400Y-10880000D02*
X24856400Y-804000D01*
X24816400Y-10882000D02*
X24816400Y-802000D01*
X24776400Y-10885000D02*
X24776400Y-799000D01*
X24736400Y-10887000D02*
X24736400Y-797000D01*
X24696400Y-10889000D02*
X24696400Y-795000D01*
X24656400Y-10890000D02*
X24656400Y-794000D01*
X24616400Y-10891000D02*
X24616400Y-793000D01*
X24576400Y-10892000D02*
X24576400Y-792000D01*
X24536400Y-10892000D02*
X24536400Y-792000D01*
X24496400Y-10892000D02*
X24496400Y-792000D01*
X29394837Y-4458736D02*
G75*
G02X29395757Y-7222000I-4898437J-1383264D01*
G01*
X29394837Y-4458736D02*
G75*
G03X19597043Y-4462000I-4898437J-1383264D01*
G01*
X29394837Y-7225264D02*
G75*
G02X19597043Y-7222000I-4898437J1383264D01*
G01*
D15*
X54178571Y3821428D02*
X54202380Y3845238D01*
X54226190Y3916666D01*
X54226190Y3964285D01*
X54202380Y4035714D01*
X54154761Y4083333D01*
X54107142Y4107142D01*
X54011904Y4130952D01*
X53940476Y4130952D01*
X53845238Y4107142D01*
X53797619Y4083333D01*
X53750000Y4035714D01*
X53726190Y3964285D01*
X53726190Y3916666D01*
X53750000Y3845238D01*
X53773809Y3821428D01*
X54226190Y3345238D02*
X54226190Y3630952D01*
X54226190Y3488095D02*
X53726190Y3488095D01*
X53797619Y3535714D01*
X53845238Y3583333D01*
X53869047Y3630952D01*
X53726190Y3035714D02*
X53726190Y2988095D01*
X53750000Y2940476D01*
X53773809Y2916666D01*
X53821428Y2892857D01*
X53916666Y2869047D01*
X54035714Y2869047D01*
X54130952Y2892857D01*
X54178571Y2916666D01*
X54202380Y2940476D01*
X54226190Y2988095D01*
X54226190Y3035714D01*
X54202380Y3083333D01*
X54178571Y3107142D01*
X54130952Y3130952D01*
X54035714Y3154761D01*
X53916666Y3154761D01*
X53821428Y3130952D01*
X53773809Y3107142D01*
X53750000Y3083333D01*
X53726190Y3035714D01*
D12*
X37252513Y1001734D02*
X36969670Y718891D01*
X37606066Y365338D02*
X37111091Y860312D01*
X37040380Y-200347D02*
X37323223Y82495D01*
X37181802Y-58925D02*
X36686827Y436048D01*
X36804678Y412478D01*
X36898959Y412478D01*
X36969670Y436048D01*
D15*
X17355333Y6631809D02*
X17593428Y6631809D01*
X17593428Y7131809D01*
X16926761Y6631809D02*
X17212476Y6631809D01*
X17069619Y6631809D02*
X17069619Y7131809D01*
X17117238Y7060380D01*
X17164857Y7012761D01*
X17212476Y6988952D01*
D16*
X24594205Y-273207D02*
X24618014Y-297016D01*
X24689443Y-320826D01*
X24737062Y-320826D01*
X24808491Y-297016D01*
X24856110Y-249397D01*
X24879919Y-201778D01*
X24903729Y-106540D01*
X24903729Y-35112D01*
X24879919Y60125D01*
X24856110Y107744D01*
X24808491Y155364D01*
X24737062Y179173D01*
X24689443Y179173D01*
X24618014Y155364D01*
X24594205Y131554D01*
X24356110Y-320826D02*
X24260872Y-320826D01*
X24213252Y-297016D01*
X24189443Y-273207D01*
X24141824Y-201778D01*
X24118014Y-106540D01*
X24118014Y83935D01*
X24141824Y131554D01*
X24165633Y155364D01*
X24213252Y179173D01*
X24308491Y179173D01*
X24356110Y155364D01*
X24379919Y131554D01*
X24403729Y83935D01*
X24403729Y-35112D01*
X24379919Y-82731D01*
X24356110Y-106540D01*
X24308491Y-130350D01*
X24213252Y-130350D01*
X24165633Y-106540D01*
X24141824Y-82731D01*
X24118014Y-35112D01*
X24594205Y-273207D02*
X24618014Y-297016D01*
X24689443Y-320826D01*
X24737062Y-320826D01*
X24808491Y-297016D01*
X24856110Y-249397D01*
X24879919Y-201778D01*
X24903729Y-106540D01*
X24903729Y-35112D01*
X24879919Y60125D01*
X24856110Y107744D01*
X24808491Y155364D01*
X24737062Y179173D01*
X24689443Y179173D01*
X24618014Y155364D01*
X24594205Y131554D01*
X24356110Y-320826D02*
X24260872Y-320826D01*
X24213252Y-297016D01*
X24189443Y-273207D01*
X24141824Y-201778D01*
X24118014Y-106540D01*
X24118014Y83935D01*
X24141824Y131554D01*
X24165633Y155364D01*
X24213252Y179173D01*
X24308491Y179173D01*
X24356110Y155364D01*
X24379919Y131554D01*
X24403729Y83935D01*
X24403729Y-35112D01*
X24379919Y-82731D01*
X24356110Y-106540D01*
X24308491Y-130350D01*
X24213252Y-130350D01*
X24165633Y-106540D01*
X24141824Y-82731D01*
X24118014Y-35112D01*
M02*
