M48
; DRILL file {KiCad 5.1.4+dfsg1-1~bpo10+1} date St 2. října 2019, 20:55:21 CEST
; FORMAT={3:3/ absolute / metric / suppress leading zeros}
; #@! TF.CreationDate,2019-10-02T20:55:21+02:00
; #@! TF.GenerationSoftware,Kicad,Pcbnew,5.1.4+dfsg1-1~bpo10+1
FMAT,2
METRIC,TZ
T1C0.400
T2C0.500
T3C0.800
T4C1.000
T5C1.016
T6C1.500
T7C3.200
%
G90
G05
T1
X6000Y12500
X6000Y6500
X6000Y4500
X6000Y2500
X10000Y4500
X11000Y4500
X12000Y3000
X13000Y3000
X14500Y16500
X14500Y8500
X14500Y4500
X15500Y16500
X15500Y8000
X15500Y4500
X15748Y-2032
X15785Y-5729
X16500Y16500
X16500Y8000
X17500Y16500
X17500Y8500
X18263Y-1956
X18500Y16500
X18500Y13000
X18500Y8500
X18585Y798
X19500Y16500
X19500Y13000
X19500Y8500
X20500Y16500
X20500Y13000
X20500Y8500
X21500Y16500
X21500Y13000
X21500Y8500
X22000Y4000
X22500Y16500
X22500Y13000
X22500Y8500
X22900Y-3327
X23000Y4000
X23500Y16500
X23500Y13000
X23500Y8500
X23677Y-7225
X24000Y4000
X24500Y16500
X24500Y13000
X24500Y8500
X25000Y4000
X25248Y-3378
X25500Y16500
X25500Y13000
X25500Y8500
X26000Y7000
X26500Y16500
X26500Y13000
X27000Y7000
X27500Y16500
X27500Y13000
X28000Y7000
X28000Y6000
X28500Y16500
X28500Y13000
X28500Y12000
X28500Y11000
X28500Y10000
X28500Y9000
X28500Y8000
X29000Y5500
X29500Y16500
X29500Y13000
X30000Y5500
X30500Y16500
X30500Y13000
X31000Y7000
X31000Y6000
X31500Y16500
X31500Y8000
X32500Y16500
X32500Y8000
X33500Y16500
X33500Y8000
X34500Y16500
X34500Y15500
X34500Y14500
X34500Y11000
X34500Y10000
X34500Y9000
X34500Y8000
X38500Y16500
X40500Y16500
X42500Y16500
X44500Y16500
X46500Y16500
X48500Y16500
X50500Y16500
X52500Y16500
T2
X48100Y11500
X48803Y13197
X48803Y9803
X50500Y13900
X50500Y9100
X52197Y13197
X52197Y9803
X52900Y11500
X48100Y-5000
X48803Y-3303
X48803Y-6697
X50500Y-2600
X50500Y-7400
X52197Y-3303
X52197Y-6697
X52900Y-5000
X16672Y4858
X16672Y1858
X17872Y4858
X17872Y1858
T3
X32727Y4773
X35202Y2298
X37677Y6894
X42273Y-4773
X42450Y4950
X44394Y177
X54000Y8500
X54000Y-1500
T4
X21996Y-5842
X26996Y-5842
T5
X16500Y15000
X16500Y12460
X16500Y9920
X32500Y15080
X32500Y12540
X32500Y10000
X36380Y12500
X36380Y9960
X38920Y9960
X41460Y12500
X41460Y9960
X44000Y12500
X44000Y9960
T6
X36380Y15040
X38920Y12500
X41460Y15040
X7460Y15040
X7460Y9960
X10000Y12500
X12540Y15040
X12540Y9960
T7
X50500Y11500
X50500Y-5000
T0
M30
