G04 #@! TF.GenerationSoftware,KiCad,Pcbnew,5.1.4+dfsg1-1~bpo10+1*
G04 #@! TF.CreationDate,2019-10-02T20:55:17+02:00*
G04 #@! TF.ProjectId,iak-swr-meter,69616b2d-7377-4722-9d6d-657465722e6b,rev?*
G04 #@! TF.SameCoordinates,Original*
G04 #@! TF.FileFunction,Paste,Top*
G04 #@! TF.FilePolarity,Positive*
%FSLAX46Y46*%
G04 Gerber Fmt 4.6, Leading zero omitted, Abs format (unit mm)*
G04 Created by KiCad (PCBNEW 5.1.4+dfsg1-1~bpo10+1) date 2019-10-02 20:55:17*
%MOMM*%
%LPD*%
G04 APERTURE LIST*
%ADD10R,1.000000X1.250000*%
%ADD11R,0.900000X1.700000*%
%ADD12R,1.700000X0.900000*%
%ADD13R,0.900000X0.800000*%
%ADD14R,1.060000X0.650000*%
%ADD15R,0.700000X1.300000*%
%ADD16R,1.300000X0.700000*%
%ADD17R,1.550000X0.600000*%
%ADD18R,1.220000X0.910000*%
%ADD19R,1.250000X1.000000*%
G04 APERTURE END LIST*
D10*
X22000000Y-3302000D03*
X24000000Y-3302000D03*
D11*
X29782000Y11222000D03*
X26882000Y11222000D03*
X29782000Y8682000D03*
X26882000Y8682000D03*
D12*
X24380000Y2600000D03*
X24380000Y5500000D03*
X21840000Y9995800D03*
X21840000Y7095800D03*
X24380000Y9995800D03*
X24380000Y7095800D03*
X21840000Y2600000D03*
X21840000Y5500000D03*
D13*
X18792000Y-7600000D03*
X18792000Y-9700000D03*
X16760000Y-9700000D03*
X16760000Y-7600000D03*
X14728000Y-7600000D03*
X14728000Y-9700000D03*
X12696000Y-9700000D03*
X12696000Y-7600000D03*
X10664000Y-7600000D03*
X10664000Y-9700000D03*
X8632000Y-9700000D03*
X8632000Y-7600000D03*
D14*
X25996000Y710000D03*
X25996000Y-1190000D03*
X23796000Y-1190000D03*
X23796000Y-240000D03*
X23796000Y710000D03*
D15*
X28006000Y762000D03*
X29906000Y762000D03*
D16*
X31750000Y1336000D03*
X31750000Y3236000D03*
D15*
X26096000Y-9906000D03*
X24196000Y-9906000D03*
X11872000Y762000D03*
X9972000Y762000D03*
D16*
X8128000Y1336000D03*
X8128000Y3236000D03*
X19558000Y1712000D03*
X19558000Y-188000D03*
D15*
X20386000Y-8382000D03*
X22286000Y-8382000D03*
X10480000Y-5334000D03*
X12380000Y-5334000D03*
D16*
X8636000Y-5776000D03*
X8636000Y-3876000D03*
D17*
X19714000Y-1919000D03*
X19714000Y-3189000D03*
X19714000Y-4459000D03*
X19714000Y-5729000D03*
X14314000Y-5729000D03*
X14314000Y-4459000D03*
X14314000Y-3189000D03*
X14314000Y-1919000D03*
D18*
X29464000Y6715000D03*
X29464000Y3445000D03*
X14986000Y3445000D03*
X14986000Y6715000D03*
X19304000Y10017000D03*
X19304000Y6747000D03*
X10414000Y6715000D03*
X10414000Y3445000D03*
D10*
X30210000Y-1524000D03*
X28210000Y-1524000D03*
D19*
X26670000Y5318000D03*
X26670000Y3318000D03*
D10*
X9922000Y-1270000D03*
X11922000Y-1270000D03*
D19*
X12700000Y6588000D03*
X12700000Y4588000D03*
X19304000Y5318000D03*
X19304000Y3318000D03*
D10*
X17510000Y0D03*
X15510000Y0D03*
D19*
X21848000Y-1240000D03*
X21848000Y760000D03*
M02*
