G04 #@! TF.GenerationSoftware,KiCad,Pcbnew,5.1.4+dfsg1-1~bpo10+1*
G04 #@! TF.CreationDate,2019-10-02T20:55:17+02:00*
G04 #@! TF.ProjectId,iak-swr-meter,69616b2d-7377-4722-9d6d-657465722e6b,rev?*
G04 #@! TF.SameCoordinates,Original*
G04 #@! TF.FileFunction,Legend,Top*
G04 #@! TF.FilePolarity,Positive*
%FSLAX46Y46*%
G04 Gerber Fmt 4.6, Leading zero omitted, Abs format (unit mm)*
G04 Created by KiCad (PCBNEW 5.1.4+dfsg1-1~bpo10+1) date 2019-10-02 20:55:18*
%MOMM*%
%LPD*%
G04 APERTURE LIST*
%ADD10C,0.500000*%
%ADD11C,0.362500*%
%ADD12C,0.250000*%
%ADD13C,0.150000*%
%ADD14C,0.010000*%
%ADD15C,0.120000*%
%ADD16C,0.100000*%
%ADD17C,0.254000*%
G04 APERTURE END LIST*
D10*
X29750000Y-5750000D02*
X29750000Y-11000000D01*
D11*
X36685714Y6844047D02*
X35857142Y6844047D01*
X36271428Y6844047D02*
X36271428Y8294047D01*
X36133333Y8086904D01*
X35995238Y7948809D01*
X35857142Y7879761D01*
X38342857Y8155952D02*
X38411904Y8225000D01*
X38550000Y8294047D01*
X38895238Y8294047D01*
X39033333Y8225000D01*
X39102380Y8155952D01*
X39171428Y8017857D01*
X39171428Y7879761D01*
X39102380Y7672619D01*
X38273809Y6844047D01*
X39171428Y6844047D01*
X40759523Y8294047D02*
X41657142Y8294047D01*
X41173809Y7741666D01*
X41380952Y7741666D01*
X41519047Y7672619D01*
X41588095Y7603571D01*
X41657142Y7465476D01*
X41657142Y7120238D01*
X41588095Y6982142D01*
X41519047Y6913095D01*
X41380952Y6844047D01*
X40966666Y6844047D01*
X40828571Y6913095D01*
X40759523Y6982142D01*
X44004761Y7810714D02*
X44004761Y6844047D01*
X43659523Y8363095D02*
X43314285Y7327380D01*
X44211904Y7327380D01*
D10*
X30200000Y13800000D02*
X30200000Y15000000D01*
X26000000Y10600000D02*
X26000000Y11800000D01*
X18800000Y13800000D02*
X18800000Y15000000D01*
X18800000Y10600000D02*
X18800000Y11800000D01*
X26000000Y11200000D02*
X25400000Y11200000D01*
X30200000Y14800000D02*
X27000000Y14800000D01*
X21600000Y11200000D02*
X18800000Y11200000D01*
X20000000Y14800000D02*
X18800000Y14800000D01*
D12*
X21361904Y14821428D02*
X21504761Y14773809D01*
X21552380Y14726190D01*
X21600000Y14630952D01*
X21600000Y14488095D01*
X21552380Y14392857D01*
X21504761Y14345238D01*
X21409523Y14297619D01*
X21028571Y14297619D01*
X21028571Y15297619D01*
X21361904Y15297619D01*
X21457142Y15250000D01*
X21504761Y15202380D01*
X21552380Y15107142D01*
X21552380Y15011904D01*
X21504761Y14916666D01*
X21457142Y14869047D01*
X21361904Y14821428D01*
X21028571Y14821428D01*
X22219047Y14773809D02*
X22219047Y14297619D01*
X21885714Y15297619D02*
X22219047Y14773809D01*
X22552380Y15297619D01*
X22885714Y14297619D02*
X22885714Y15297619D01*
X23266666Y15297619D01*
X23361904Y15250000D01*
X23409523Y15202380D01*
X23457142Y15107142D01*
X23457142Y14964285D01*
X23409523Y14869047D01*
X23361904Y14821428D01*
X23266666Y14773809D01*
X22885714Y14773809D01*
X23838095Y14583333D02*
X24314285Y14583333D01*
X23742857Y14297619D02*
X24076190Y15297619D01*
X24409523Y14297619D01*
X24695238Y14345238D02*
X24838095Y14297619D01*
X25076190Y14297619D01*
X25171428Y14345238D01*
X25219047Y14392857D01*
X25266666Y14488095D01*
X25266666Y14583333D01*
X25219047Y14678571D01*
X25171428Y14726190D01*
X25076190Y14773809D01*
X24885714Y14821428D01*
X24790476Y14869047D01*
X24742857Y14916666D01*
X24695238Y15011904D01*
X24695238Y15107142D01*
X24742857Y15202380D01*
X24790476Y15250000D01*
X24885714Y15297619D01*
X25123809Y15297619D01*
X25266666Y15250000D01*
X25647619Y14345238D02*
X25790476Y14297619D01*
X26028571Y14297619D01*
X26123809Y14345238D01*
X26171428Y14392857D01*
X26219047Y14488095D01*
X26219047Y14583333D01*
X26171428Y14678571D01*
X26123809Y14726190D01*
X26028571Y14773809D01*
X25838095Y14821428D01*
X25742857Y14869047D01*
X25695238Y14916666D01*
X25647619Y15011904D01*
X25647619Y15107142D01*
X25695238Y15202380D01*
X25742857Y15250000D01*
X25838095Y15297619D01*
X26076190Y15297619D01*
X26219047Y15250000D01*
X22242857Y10845238D02*
X22385714Y10797619D01*
X22623809Y10797619D01*
X22719047Y10845238D01*
X22766666Y10892857D01*
X22814285Y10988095D01*
X22814285Y11083333D01*
X22766666Y11178571D01*
X22719047Y11226190D01*
X22623809Y11273809D01*
X22433333Y11321428D01*
X22338095Y11369047D01*
X22290476Y11416666D01*
X22242857Y11511904D01*
X22242857Y11607142D01*
X22290476Y11702380D01*
X22338095Y11750000D01*
X22433333Y11797619D01*
X22671428Y11797619D01*
X22814285Y11750000D01*
X23147619Y11797619D02*
X23385714Y10797619D01*
X23576190Y11511904D01*
X23766666Y10797619D01*
X24004761Y11797619D01*
X24957142Y10797619D02*
X24623809Y11273809D01*
X24385714Y10797619D02*
X24385714Y11797619D01*
X24766666Y11797619D01*
X24861904Y11750000D01*
X24909523Y11702380D01*
X24957142Y11607142D01*
X24957142Y11464285D01*
X24909523Y11369047D01*
X24861904Y11321428D01*
X24766666Y11273809D01*
X24385714Y11273809D01*
D13*
X30787976Y-9186904D02*
X30787976Y-8386904D01*
X30787976Y-8691666D02*
X30864166Y-8653571D01*
X31016547Y-8653571D01*
X31092738Y-8691666D01*
X31130833Y-8729761D01*
X31168928Y-8805952D01*
X31168928Y-9034523D01*
X31130833Y-9110714D01*
X31092738Y-9148809D01*
X31016547Y-9186904D01*
X30864166Y-9186904D01*
X30787976Y-9148809D01*
X31435595Y-8653571D02*
X31626071Y-9186904D01*
X31816547Y-8653571D02*
X31626071Y-9186904D01*
X31549880Y-9377380D01*
X31511785Y-9415476D01*
X31435595Y-9453571D01*
X32883214Y-8386904D02*
X33035595Y-8386904D01*
X33111785Y-8425000D01*
X33187976Y-8501190D01*
X33226071Y-8653571D01*
X33226071Y-8920238D01*
X33187976Y-9072619D01*
X33111785Y-9148809D01*
X33035595Y-9186904D01*
X32883214Y-9186904D01*
X32807023Y-9148809D01*
X32730833Y-9072619D01*
X32692738Y-8920238D01*
X32692738Y-8653571D01*
X32730833Y-8501190D01*
X32807023Y-8425000D01*
X32883214Y-8386904D01*
X33568928Y-9186904D02*
X33568928Y-8386904D01*
X34026071Y-9186904D02*
X33683214Y-8729761D01*
X34026071Y-8386904D02*
X33568928Y-8844047D01*
X34787976Y-9186904D02*
X34330833Y-9186904D01*
X34559404Y-9186904D02*
X34559404Y-8386904D01*
X34483214Y-8501190D01*
X34407023Y-8577380D01*
X34330833Y-8615476D01*
X35130833Y-9186904D02*
X35130833Y-8386904D01*
X35473690Y-8958333D02*
X35854642Y-8958333D01*
X35397500Y-9186904D02*
X35664166Y-8386904D01*
X35930833Y-9186904D01*
X36197500Y-9186904D02*
X36197500Y-8386904D01*
X36654642Y-9186904D02*
X36311785Y-8729761D01*
X36654642Y-8386904D02*
X36197500Y-8844047D01*
X30749880Y-9813095D02*
X30787976Y-9775000D01*
X30864166Y-9736904D01*
X31054642Y-9736904D01*
X31130833Y-9775000D01*
X31168928Y-9813095D01*
X31207023Y-9889285D01*
X31207023Y-9965476D01*
X31168928Y-10079761D01*
X30711785Y-10536904D01*
X31207023Y-10536904D01*
X31702261Y-9736904D02*
X31778452Y-9736904D01*
X31854642Y-9775000D01*
X31892738Y-9813095D01*
X31930833Y-9889285D01*
X31968928Y-10041666D01*
X31968928Y-10232142D01*
X31930833Y-10384523D01*
X31892738Y-10460714D01*
X31854642Y-10498809D01*
X31778452Y-10536904D01*
X31702261Y-10536904D01*
X31626071Y-10498809D01*
X31587976Y-10460714D01*
X31549880Y-10384523D01*
X31511785Y-10232142D01*
X31511785Y-10041666D01*
X31549880Y-9889285D01*
X31587976Y-9813095D01*
X31626071Y-9775000D01*
X31702261Y-9736904D01*
X32730833Y-10536904D02*
X32273690Y-10536904D01*
X32502261Y-10536904D02*
X32502261Y-9736904D01*
X32426071Y-9851190D01*
X32349880Y-9927380D01*
X32273690Y-9965476D01*
X33111785Y-10536904D02*
X33264166Y-10536904D01*
X33340357Y-10498809D01*
X33378452Y-10460714D01*
X33454642Y-10346428D01*
X33492738Y-10194047D01*
X33492738Y-9889285D01*
X33454642Y-9813095D01*
X33416547Y-9775000D01*
X33340357Y-9736904D01*
X33187976Y-9736904D01*
X33111785Y-9775000D01*
X33073690Y-9813095D01*
X33035595Y-9889285D01*
X33035595Y-10079761D01*
X33073690Y-10155952D01*
X33111785Y-10194047D01*
X33187976Y-10232142D01*
X33340357Y-10232142D01*
X33416547Y-10194047D01*
X33454642Y-10155952D01*
X33492738Y-10079761D01*
X33835595Y-10232142D02*
X34445119Y-10232142D01*
X35245119Y-10536904D02*
X34787976Y-10536904D01*
X35016547Y-10536904D02*
X35016547Y-9736904D01*
X34940357Y-9851190D01*
X34864166Y-9927380D01*
X34787976Y-9965476D01*
X35740357Y-9736904D02*
X35816547Y-9736904D01*
X35892738Y-9775000D01*
X35930833Y-9813095D01*
X35968928Y-9889285D01*
X36007023Y-10041666D01*
X36007023Y-10232142D01*
X35968928Y-10384523D01*
X35930833Y-10460714D01*
X35892738Y-10498809D01*
X35816547Y-10536904D01*
X35740357Y-10536904D01*
X35664166Y-10498809D01*
X35626071Y-10460714D01*
X35587976Y-10384523D01*
X35549880Y-10232142D01*
X35549880Y-10041666D01*
X35587976Y-9889285D01*
X35626071Y-9813095D01*
X35664166Y-9775000D01*
X35740357Y-9736904D01*
X36540357Y-10803571D02*
X36540357Y-9660714D01*
X37111785Y-10536904D02*
X37111785Y-10003571D01*
X37111785Y-10155952D02*
X37149880Y-10079761D01*
X37187976Y-10041666D01*
X37264166Y-10003571D01*
X37340357Y-10003571D01*
X37911785Y-10498809D02*
X37835595Y-10536904D01*
X37683214Y-10536904D01*
X37607023Y-10498809D01*
X37568928Y-10422619D01*
X37568928Y-10117857D01*
X37607023Y-10041666D01*
X37683214Y-10003571D01*
X37835595Y-10003571D01*
X37911785Y-10041666D01*
X37949880Y-10117857D01*
X37949880Y-10194047D01*
X37568928Y-10270238D01*
X38216547Y-10003571D02*
X38407023Y-10536904D01*
X38597500Y-10003571D01*
X39054642Y-9736904D02*
X39130833Y-9736904D01*
X39207023Y-9775000D01*
X39245119Y-9813095D01*
X39283214Y-9889285D01*
X39321309Y-10041666D01*
X39321309Y-10232142D01*
X39283214Y-10384523D01*
X39245119Y-10460714D01*
X39207023Y-10498809D01*
X39130833Y-10536904D01*
X39054642Y-10536904D01*
X38978452Y-10498809D01*
X38940357Y-10460714D01*
X38902261Y-10384523D01*
X38864166Y-10232142D01*
X38864166Y-10041666D01*
X38902261Y-9889285D01*
X38940357Y-9813095D01*
X38978452Y-9775000D01*
X39054642Y-9736904D01*
X39664166Y-10460714D02*
X39702261Y-10498809D01*
X39664166Y-10536904D01*
X39626071Y-10498809D01*
X39664166Y-10460714D01*
X39664166Y-10536904D01*
X40464166Y-10536904D02*
X40007023Y-10536904D01*
X40235595Y-10536904D02*
X40235595Y-9736904D01*
X40159404Y-9851190D01*
X40083214Y-9927380D01*
X40007023Y-9965476D01*
D10*
X31571428Y-6857142D02*
X31857142Y-6952380D01*
X31952380Y-7047619D01*
X32047619Y-7238095D01*
X32047619Y-7523809D01*
X31952380Y-7714285D01*
X31857142Y-7809523D01*
X31666666Y-7904761D01*
X30904761Y-7904761D01*
X30904761Y-5904761D01*
X31571428Y-5904761D01*
X31761904Y-6000000D01*
X31857142Y-6095238D01*
X31952380Y-6285714D01*
X31952380Y-6476190D01*
X31857142Y-6666666D01*
X31761904Y-6761904D01*
X31571428Y-6857142D01*
X30904761Y-6857142D01*
X33190476Y-7904761D02*
X33000000Y-7809523D01*
X32904761Y-7619047D01*
X32904761Y-5904761D01*
X33952380Y-7904761D02*
X33952380Y-6571428D01*
X33952380Y-5904761D02*
X33857142Y-6000000D01*
X33952380Y-6095238D01*
X34047619Y-6000000D01*
X33952380Y-5904761D01*
X33952380Y-6095238D01*
X34904761Y-6571428D02*
X34904761Y-7904761D01*
X34904761Y-6761904D02*
X35000000Y-6666666D01*
X35190476Y-6571428D01*
X35476190Y-6571428D01*
X35666666Y-6666666D01*
X35761904Y-6857142D01*
X35761904Y-7904761D01*
X36714285Y-7904761D02*
X36714285Y-5904761D01*
X36904761Y-7142857D02*
X37476190Y-7904761D01*
X37476190Y-6571428D02*
X36714285Y-7333333D01*
X38142857Y-6571428D02*
X38619047Y-7904761D01*
X39095238Y-6571428D02*
X38619047Y-7904761D01*
X38428571Y-8380952D01*
X38333333Y-8476190D01*
X38142857Y-8571428D01*
X39761904Y-7809523D02*
X40047619Y-7904761D01*
X40523809Y-7904761D01*
X40714285Y-7809523D01*
X40809523Y-7714285D01*
X40904761Y-7523809D01*
X40904761Y-7333333D01*
X40809523Y-7142857D01*
X40714285Y-7047619D01*
X40523809Y-6952380D01*
X40142857Y-6857142D01*
X39952380Y-6761904D01*
X39857142Y-6666666D01*
X39761904Y-6476190D01*
X39761904Y-6285714D01*
X39857142Y-6095238D01*
X39952380Y-6000000D01*
X40142857Y-5904761D01*
X40619047Y-5904761D01*
X40904761Y-6000000D01*
X41571428Y-5904761D02*
X42047619Y-7904761D01*
X42428571Y-6476190D01*
X42809523Y-7904761D01*
X43285714Y-5904761D01*
X45190476Y-7904761D02*
X44523809Y-6952380D01*
X44047619Y-7904761D02*
X44047619Y-5904761D01*
X44809523Y-5904761D01*
X45000000Y-6000000D01*
X45095238Y-6095238D01*
X45190476Y-6285714D01*
X45190476Y-6571428D01*
X45095238Y-6761904D01*
X45000000Y-6857142D01*
X44809523Y-6952380D01*
X44047619Y-6952380D01*
X48214285Y-333333D02*
X49166666Y-333333D01*
X48023809Y-904761D02*
X48690476Y1095238D01*
X49357142Y-904761D01*
X50023809Y-904761D02*
X50023809Y1095238D01*
X51166666Y-904761D01*
X51166666Y1095238D01*
X51833333Y1095238D02*
X52976190Y1095238D01*
X52404761Y-904761D02*
X52404761Y1095238D01*
X48976190Y7500000D02*
X48785714Y7595238D01*
X48500000Y7595238D01*
X48214285Y7500000D01*
X48023809Y7309523D01*
X47928571Y7119047D01*
X47833333Y6738095D01*
X47833333Y6452380D01*
X47928571Y6071428D01*
X48023809Y5880952D01*
X48214285Y5690476D01*
X48500000Y5595238D01*
X48690476Y5595238D01*
X48976190Y5690476D01*
X49071428Y5785714D01*
X49071428Y6452380D01*
X48690476Y6452380D01*
X49928571Y5595238D02*
X49928571Y7595238D01*
X51071428Y5595238D01*
X51071428Y7595238D01*
X52023809Y5595238D02*
X52023809Y7595238D01*
X52500000Y7595238D01*
X52785714Y7500000D01*
X52976190Y7309523D01*
X53071428Y7119047D01*
X53166666Y6738095D01*
X53166666Y6452380D01*
X53071428Y6071428D01*
X52976190Y5880952D01*
X52785714Y5690476D01*
X52500000Y5595238D01*
X52023809Y5595238D01*
D14*
G36*
X39603910Y3757652D02*
G01*
X39682454Y3757222D01*
X39739298Y3756058D01*
X39778105Y3753793D01*
X39802538Y3750060D01*
X39816262Y3744494D01*
X39822940Y3736727D01*
X39826236Y3726395D01*
X39826556Y3725057D01*
X39831562Y3700921D01*
X39840829Y3653299D01*
X39853392Y3587259D01*
X39868287Y3507872D01*
X39884551Y3420204D01*
X39885119Y3417125D01*
X39901410Y3331211D01*
X39916652Y3255304D01*
X39929861Y3193955D01*
X39940054Y3151718D01*
X39946248Y3133145D01*
X39946543Y3132816D01*
X39964788Y3123747D01*
X40002405Y3108633D01*
X40051271Y3090738D01*
X40051543Y3090642D01*
X40113093Y3067507D01*
X40185657Y3038035D01*
X40254057Y3008403D01*
X40257294Y3006938D01*
X40368702Y2956374D01*
X40615399Y3124840D01*
X40691077Y3176197D01*
X40759631Y3222111D01*
X40817088Y3259970D01*
X40859476Y3287163D01*
X40882825Y3301079D01*
X40885042Y3302111D01*
X40902010Y3297516D01*
X40933701Y3275345D01*
X40981352Y3234553D01*
X41046198Y3174095D01*
X41112397Y3109773D01*
X41176214Y3046388D01*
X41233329Y2988549D01*
X41280305Y2939825D01*
X41313703Y2903790D01*
X41330085Y2884016D01*
X41330694Y2882998D01*
X41332505Y2869428D01*
X41325683Y2847267D01*
X41308540Y2813522D01*
X41279393Y2765200D01*
X41236555Y2699308D01*
X41179448Y2614483D01*
X41128766Y2539823D01*
X41083461Y2472860D01*
X41046150Y2417484D01*
X41019452Y2377580D01*
X41005985Y2357038D01*
X41005137Y2355644D01*
X41006781Y2335962D01*
X41019245Y2297707D01*
X41040048Y2248111D01*
X41047462Y2232272D01*
X41079814Y2161710D01*
X41114328Y2081647D01*
X41142365Y2012371D01*
X41162568Y1960955D01*
X41178615Y1921881D01*
X41187888Y1901459D01*
X41189041Y1899886D01*
X41206096Y1897279D01*
X41246298Y1890137D01*
X41304302Y1879477D01*
X41374763Y1866315D01*
X41452335Y1851667D01*
X41531672Y1836551D01*
X41607431Y1821982D01*
X41674264Y1808978D01*
X41726828Y1798555D01*
X41759776Y1791730D01*
X41767857Y1789801D01*
X41776205Y1785038D01*
X41782506Y1774282D01*
X41787045Y1753902D01*
X41790104Y1720266D01*
X41791967Y1669745D01*
X41792918Y1598708D01*
X41793240Y1503524D01*
X41793257Y1464508D01*
X41793257Y1147201D01*
X41717057Y1132161D01*
X41674663Y1124005D01*
X41611400Y1112101D01*
X41534962Y1097884D01*
X41453043Y1082790D01*
X41430400Y1078645D01*
X41354806Y1063947D01*
X41288953Y1049495D01*
X41238366Y1036625D01*
X41208574Y1026678D01*
X41203612Y1023713D01*
X41191426Y1002717D01*
X41173953Y962033D01*
X41154577Y909678D01*
X41150734Y898400D01*
X41125339Y828477D01*
X41093817Y749582D01*
X41062969Y678734D01*
X41062817Y678405D01*
X41011447Y567267D01*
X41180399Y318747D01*
X41349352Y70228D01*
X41132429Y-147058D01*
X41066819Y-211726D01*
X41006979Y-268733D01*
X40956267Y-315033D01*
X40918046Y-347584D01*
X40895675Y-363343D01*
X40892466Y-364343D01*
X40873626Y-356469D01*
X40835180Y-334578D01*
X40781330Y-301267D01*
X40716276Y-259131D01*
X40645940Y-211943D01*
X40574555Y-163810D01*
X40510908Y-121928D01*
X40459041Y-88871D01*
X40422995Y-67218D01*
X40406867Y-59543D01*
X40387189Y-66037D01*
X40349875Y-83150D01*
X40302621Y-107326D01*
X40297612Y-110013D01*
X40233977Y-141927D01*
X40190341Y-157579D01*
X40163202Y-157745D01*
X40149057Y-143204D01*
X40148975Y-143000D01*
X40141905Y-125779D01*
X40125042Y-84899D01*
X40099695Y-23525D01*
X40067171Y55181D01*
X40028778Y148053D01*
X39985822Y251928D01*
X39944222Y352498D01*
X39898504Y463484D01*
X39856526Y566297D01*
X39819548Y657785D01*
X39788827Y734799D01*
X39765622Y794185D01*
X39751190Y832791D01*
X39746743Y847200D01*
X39757896Y863728D01*
X39787069Y890070D01*
X39825971Y919113D01*
X39936757Y1010961D01*
X40023351Y1116241D01*
X40084716Y1232734D01*
X40119815Y1358224D01*
X40127608Y1490493D01*
X40121943Y1551543D01*
X40091078Y1678205D01*
X40037920Y1790059D01*
X39965767Y1885999D01*
X39877917Y1964924D01*
X39777665Y2025730D01*
X39668310Y2067313D01*
X39553147Y2088572D01*
X39435475Y2088401D01*
X39318590Y2065699D01*
X39205789Y2019362D01*
X39100369Y1948287D01*
X39056368Y1908089D01*
X38971979Y1804871D01*
X38913222Y1692075D01*
X38879704Y1572990D01*
X38871035Y1450905D01*
X38886823Y1329107D01*
X38926678Y1210884D01*
X38990207Y1099525D01*
X39077021Y998316D01*
X39174029Y919113D01*
X39214437Y888838D01*
X39242982Y862781D01*
X39253257Y847175D01*
X39247877Y830157D01*
X39232575Y789500D01*
X39208612Y728358D01*
X39177244Y649881D01*
X39139732Y557220D01*
X39097333Y453528D01*
X39055663Y352474D01*
X39009690Y241393D01*
X38967107Y138459D01*
X38929221Y46835D01*
X38897340Y-30316D01*
X38872771Y-89831D01*
X38856820Y-128544D01*
X38850910Y-143000D01*
X38836948Y-157685D01*
X38809940Y-157642D01*
X38766413Y-142099D01*
X38702890Y-110284D01*
X38702388Y-110013D01*
X38654560Y-85323D01*
X38615897Y-67338D01*
X38594095Y-59614D01*
X38593133Y-59543D01*
X38576721Y-67378D01*
X38540487Y-89165D01*
X38488474Y-122328D01*
X38424725Y-164291D01*
X38354060Y-211943D01*
X38282116Y-260191D01*
X38217274Y-302151D01*
X38163735Y-335227D01*
X38125697Y-356821D01*
X38107533Y-364343D01*
X38090808Y-354457D01*
X38057180Y-326826D01*
X38010010Y-284495D01*
X37952658Y-230505D01*
X37888484Y-167899D01*
X37867497Y-146983D01*
X37650499Y70377D01*
X37815668Y312780D01*
X37865864Y387219D01*
X37909919Y454028D01*
X37945362Y509335D01*
X37969719Y549271D01*
X37980522Y569964D01*
X37980838Y571437D01*
X37975143Y590942D01*
X37959826Y630178D01*
X37937537Y682570D01*
X37921893Y717645D01*
X37892641Y784799D01*
X37865094Y852642D01*
X37843737Y909966D01*
X37837935Y927428D01*
X37821452Y974062D01*
X37805340Y1010095D01*
X37796490Y1023713D01*
X37776960Y1032048D01*
X37734334Y1043863D01*
X37674145Y1057819D01*
X37601922Y1072578D01*
X37569600Y1078645D01*
X37487522Y1093727D01*
X37408795Y1108331D01*
X37341109Y1121020D01*
X37292160Y1130358D01*
X37282943Y1132161D01*
X37206743Y1147201D01*
X37206743Y1464508D01*
X37206914Y1568846D01*
X37207616Y1647787D01*
X37209134Y1704962D01*
X37211749Y1744001D01*
X37215746Y1768535D01*
X37221409Y1782195D01*
X37229020Y1788611D01*
X37232143Y1789801D01*
X37250978Y1794020D01*
X37292588Y1802438D01*
X37351630Y1814039D01*
X37422757Y1827805D01*
X37500625Y1842720D01*
X37579887Y1857768D01*
X37655198Y1871931D01*
X37721213Y1884194D01*
X37772587Y1893539D01*
X37803975Y1898950D01*
X37810959Y1899886D01*
X37817285Y1912404D01*
X37831290Y1945754D01*
X37850355Y1993623D01*
X37857634Y2012371D01*
X37886996Y2084805D01*
X37921571Y2164830D01*
X37952537Y2232272D01*
X37975323Y2283841D01*
X37990482Y2326215D01*
X37995542Y2352166D01*
X37994736Y2355644D01*
X37984041Y2372064D01*
X37959620Y2408583D01*
X37924095Y2461313D01*
X37880087Y2526365D01*
X37830217Y2599849D01*
X37820356Y2614355D01*
X37762492Y2700296D01*
X37719956Y2765739D01*
X37691054Y2813696D01*
X37674090Y2847180D01*
X37667367Y2869205D01*
X37669190Y2882783D01*
X37669236Y2882869D01*
X37683586Y2900703D01*
X37715323Y2935183D01*
X37761010Y2982732D01*
X37817204Y3039778D01*
X37880468Y3102745D01*
X37887602Y3109773D01*
X37967330Y3186980D01*
X38028857Y3243670D01*
X38073421Y3280890D01*
X38102257Y3299685D01*
X38114958Y3302111D01*
X38133494Y3291529D01*
X38171961Y3267084D01*
X38226386Y3231388D01*
X38292798Y3187053D01*
X38367225Y3136689D01*
X38384601Y3124840D01*
X38631297Y2956374D01*
X38742706Y3006938D01*
X38810457Y3036405D01*
X38883183Y3066041D01*
X38945703Y3089670D01*
X38948457Y3090642D01*
X38997360Y3108543D01*
X39035057Y3123680D01*
X39053425Y3132790D01*
X39053456Y3132816D01*
X39059285Y3149283D01*
X39069192Y3189781D01*
X39082195Y3249758D01*
X39097309Y3324660D01*
X39113552Y3409936D01*
X39114881Y3417125D01*
X39131175Y3504986D01*
X39146133Y3584740D01*
X39158791Y3651319D01*
X39168186Y3699653D01*
X39173354Y3724675D01*
X39173444Y3725057D01*
X39176589Y3735701D01*
X39182704Y3743738D01*
X39195453Y3749533D01*
X39218500Y3753453D01*
X39255509Y3755865D01*
X39310144Y3757135D01*
X39386067Y3757629D01*
X39486944Y3757714D01*
X39500000Y3757714D01*
X39603910Y3757652D01*
X39603910Y3757652D01*
G37*
X39603910Y3757652D02*
X39682454Y3757222D01*
X39739298Y3756058D01*
X39778105Y3753793D01*
X39802538Y3750060D01*
X39816262Y3744494D01*
X39822940Y3736727D01*
X39826236Y3726395D01*
X39826556Y3725057D01*
X39831562Y3700921D01*
X39840829Y3653299D01*
X39853392Y3587259D01*
X39868287Y3507872D01*
X39884551Y3420204D01*
X39885119Y3417125D01*
X39901410Y3331211D01*
X39916652Y3255304D01*
X39929861Y3193955D01*
X39940054Y3151718D01*
X39946248Y3133145D01*
X39946543Y3132816D01*
X39964788Y3123747D01*
X40002405Y3108633D01*
X40051271Y3090738D01*
X40051543Y3090642D01*
X40113093Y3067507D01*
X40185657Y3038035D01*
X40254057Y3008403D01*
X40257294Y3006938D01*
X40368702Y2956374D01*
X40615399Y3124840D01*
X40691077Y3176197D01*
X40759631Y3222111D01*
X40817088Y3259970D01*
X40859476Y3287163D01*
X40882825Y3301079D01*
X40885042Y3302111D01*
X40902010Y3297516D01*
X40933701Y3275345D01*
X40981352Y3234553D01*
X41046198Y3174095D01*
X41112397Y3109773D01*
X41176214Y3046388D01*
X41233329Y2988549D01*
X41280305Y2939825D01*
X41313703Y2903790D01*
X41330085Y2884016D01*
X41330694Y2882998D01*
X41332505Y2869428D01*
X41325683Y2847267D01*
X41308540Y2813522D01*
X41279393Y2765200D01*
X41236555Y2699308D01*
X41179448Y2614483D01*
X41128766Y2539823D01*
X41083461Y2472860D01*
X41046150Y2417484D01*
X41019452Y2377580D01*
X41005985Y2357038D01*
X41005137Y2355644D01*
X41006781Y2335962D01*
X41019245Y2297707D01*
X41040048Y2248111D01*
X41047462Y2232272D01*
X41079814Y2161710D01*
X41114328Y2081647D01*
X41142365Y2012371D01*
X41162568Y1960955D01*
X41178615Y1921881D01*
X41187888Y1901459D01*
X41189041Y1899886D01*
X41206096Y1897279D01*
X41246298Y1890137D01*
X41304302Y1879477D01*
X41374763Y1866315D01*
X41452335Y1851667D01*
X41531672Y1836551D01*
X41607431Y1821982D01*
X41674264Y1808978D01*
X41726828Y1798555D01*
X41759776Y1791730D01*
X41767857Y1789801D01*
X41776205Y1785038D01*
X41782506Y1774282D01*
X41787045Y1753902D01*
X41790104Y1720266D01*
X41791967Y1669745D01*
X41792918Y1598708D01*
X41793240Y1503524D01*
X41793257Y1464508D01*
X41793257Y1147201D01*
X41717057Y1132161D01*
X41674663Y1124005D01*
X41611400Y1112101D01*
X41534962Y1097884D01*
X41453043Y1082790D01*
X41430400Y1078645D01*
X41354806Y1063947D01*
X41288953Y1049495D01*
X41238366Y1036625D01*
X41208574Y1026678D01*
X41203612Y1023713D01*
X41191426Y1002717D01*
X41173953Y962033D01*
X41154577Y909678D01*
X41150734Y898400D01*
X41125339Y828477D01*
X41093817Y749582D01*
X41062969Y678734D01*
X41062817Y678405D01*
X41011447Y567267D01*
X41180399Y318747D01*
X41349352Y70228D01*
X41132429Y-147058D01*
X41066819Y-211726D01*
X41006979Y-268733D01*
X40956267Y-315033D01*
X40918046Y-347584D01*
X40895675Y-363343D01*
X40892466Y-364343D01*
X40873626Y-356469D01*
X40835180Y-334578D01*
X40781330Y-301267D01*
X40716276Y-259131D01*
X40645940Y-211943D01*
X40574555Y-163810D01*
X40510908Y-121928D01*
X40459041Y-88871D01*
X40422995Y-67218D01*
X40406867Y-59543D01*
X40387189Y-66037D01*
X40349875Y-83150D01*
X40302621Y-107326D01*
X40297612Y-110013D01*
X40233977Y-141927D01*
X40190341Y-157579D01*
X40163202Y-157745D01*
X40149057Y-143204D01*
X40148975Y-143000D01*
X40141905Y-125779D01*
X40125042Y-84899D01*
X40099695Y-23525D01*
X40067171Y55181D01*
X40028778Y148053D01*
X39985822Y251928D01*
X39944222Y352498D01*
X39898504Y463484D01*
X39856526Y566297D01*
X39819548Y657785D01*
X39788827Y734799D01*
X39765622Y794185D01*
X39751190Y832791D01*
X39746743Y847200D01*
X39757896Y863728D01*
X39787069Y890070D01*
X39825971Y919113D01*
X39936757Y1010961D01*
X40023351Y1116241D01*
X40084716Y1232734D01*
X40119815Y1358224D01*
X40127608Y1490493D01*
X40121943Y1551543D01*
X40091078Y1678205D01*
X40037920Y1790059D01*
X39965767Y1885999D01*
X39877917Y1964924D01*
X39777665Y2025730D01*
X39668310Y2067313D01*
X39553147Y2088572D01*
X39435475Y2088401D01*
X39318590Y2065699D01*
X39205789Y2019362D01*
X39100369Y1948287D01*
X39056368Y1908089D01*
X38971979Y1804871D01*
X38913222Y1692075D01*
X38879704Y1572990D01*
X38871035Y1450905D01*
X38886823Y1329107D01*
X38926678Y1210884D01*
X38990207Y1099525D01*
X39077021Y998316D01*
X39174029Y919113D01*
X39214437Y888838D01*
X39242982Y862781D01*
X39253257Y847175D01*
X39247877Y830157D01*
X39232575Y789500D01*
X39208612Y728358D01*
X39177244Y649881D01*
X39139732Y557220D01*
X39097333Y453528D01*
X39055663Y352474D01*
X39009690Y241393D01*
X38967107Y138459D01*
X38929221Y46835D01*
X38897340Y-30316D01*
X38872771Y-89831D01*
X38856820Y-128544D01*
X38850910Y-143000D01*
X38836948Y-157685D01*
X38809940Y-157642D01*
X38766413Y-142099D01*
X38702890Y-110284D01*
X38702388Y-110013D01*
X38654560Y-85323D01*
X38615897Y-67338D01*
X38594095Y-59614D01*
X38593133Y-59543D01*
X38576721Y-67378D01*
X38540487Y-89165D01*
X38488474Y-122328D01*
X38424725Y-164291D01*
X38354060Y-211943D01*
X38282116Y-260191D01*
X38217274Y-302151D01*
X38163735Y-335227D01*
X38125697Y-356821D01*
X38107533Y-364343D01*
X38090808Y-354457D01*
X38057180Y-326826D01*
X38010010Y-284495D01*
X37952658Y-230505D01*
X37888484Y-167899D01*
X37867497Y-146983D01*
X37650499Y70377D01*
X37815668Y312780D01*
X37865864Y387219D01*
X37909919Y454028D01*
X37945362Y509335D01*
X37969719Y549271D01*
X37980522Y569964D01*
X37980838Y571437D01*
X37975143Y590942D01*
X37959826Y630178D01*
X37937537Y682570D01*
X37921893Y717645D01*
X37892641Y784799D01*
X37865094Y852642D01*
X37843737Y909966D01*
X37837935Y927428D01*
X37821452Y974062D01*
X37805340Y1010095D01*
X37796490Y1023713D01*
X37776960Y1032048D01*
X37734334Y1043863D01*
X37674145Y1057819D01*
X37601922Y1072578D01*
X37569600Y1078645D01*
X37487522Y1093727D01*
X37408795Y1108331D01*
X37341109Y1121020D01*
X37292160Y1130358D01*
X37282943Y1132161D01*
X37206743Y1147201D01*
X37206743Y1464508D01*
X37206914Y1568846D01*
X37207616Y1647787D01*
X37209134Y1704962D01*
X37211749Y1744001D01*
X37215746Y1768535D01*
X37221409Y1782195D01*
X37229020Y1788611D01*
X37232143Y1789801D01*
X37250978Y1794020D01*
X37292588Y1802438D01*
X37351630Y1814039D01*
X37422757Y1827805D01*
X37500625Y1842720D01*
X37579887Y1857768D01*
X37655198Y1871931D01*
X37721213Y1884194D01*
X37772587Y1893539D01*
X37803975Y1898950D01*
X37810959Y1899886D01*
X37817285Y1912404D01*
X37831290Y1945754D01*
X37850355Y1993623D01*
X37857634Y2012371D01*
X37886996Y2084805D01*
X37921571Y2164830D01*
X37952537Y2232272D01*
X37975323Y2283841D01*
X37990482Y2326215D01*
X37995542Y2352166D01*
X37994736Y2355644D01*
X37984041Y2372064D01*
X37959620Y2408583D01*
X37924095Y2461313D01*
X37880087Y2526365D01*
X37830217Y2599849D01*
X37820356Y2614355D01*
X37762492Y2700296D01*
X37719956Y2765739D01*
X37691054Y2813696D01*
X37674090Y2847180D01*
X37667367Y2869205D01*
X37669190Y2882783D01*
X37669236Y2882869D01*
X37683586Y2900703D01*
X37715323Y2935183D01*
X37761010Y2982732D01*
X37817204Y3039778D01*
X37880468Y3102745D01*
X37887602Y3109773D01*
X37967330Y3186980D01*
X38028857Y3243670D01*
X38073421Y3280890D01*
X38102257Y3299685D01*
X38114958Y3302111D01*
X38133494Y3291529D01*
X38171961Y3267084D01*
X38226386Y3231388D01*
X38292798Y3187053D01*
X38367225Y3136689D01*
X38384601Y3124840D01*
X38631297Y2956374D01*
X38742706Y3006938D01*
X38810457Y3036405D01*
X38883183Y3066041D01*
X38945703Y3089670D01*
X38948457Y3090642D01*
X38997360Y3108543D01*
X39035057Y3123680D01*
X39053425Y3132790D01*
X39053456Y3132816D01*
X39059285Y3149283D01*
X39069192Y3189781D01*
X39082195Y3249758D01*
X39097309Y3324660D01*
X39113552Y3409936D01*
X39114881Y3417125D01*
X39131175Y3504986D01*
X39146133Y3584740D01*
X39158791Y3651319D01*
X39168186Y3699653D01*
X39173354Y3724675D01*
X39173444Y3725057D01*
X39176589Y3735701D01*
X39182704Y3743738D01*
X39195453Y3749533D01*
X39218500Y3753453D01*
X39255509Y3755865D01*
X39310144Y3757135D01*
X39386067Y3757629D01*
X39486944Y3757714D01*
X39500000Y3757714D01*
X39603910Y3757652D01*
G36*
X42653595Y-966966D02*
G01*
X42711021Y-1004497D01*
X42738719Y-1038096D01*
X42760662Y-1099064D01*
X42762405Y-1147308D01*
X42758457Y-1211816D01*
X42609686Y-1276934D01*
X42537349Y-1310202D01*
X42490084Y-1336964D01*
X42465507Y-1360144D01*
X42461237Y-1382667D01*
X42474889Y-1407455D01*
X42489943Y-1423886D01*
X42533746Y-1450235D01*
X42581389Y-1452081D01*
X42625145Y-1431546D01*
X42657289Y-1390752D01*
X42663038Y-1376347D01*
X42690576Y-1331356D01*
X42722258Y-1312182D01*
X42765714Y-1295779D01*
X42765714Y-1357966D01*
X42761872Y-1400283D01*
X42746823Y-1435969D01*
X42715280Y-1476943D01*
X42710592Y-1482267D01*
X42675506Y-1518720D01*
X42645347Y-1538283D01*
X42607615Y-1547283D01*
X42576335Y-1550230D01*
X42520385Y-1550965D01*
X42480555Y-1541660D01*
X42455708Y-1527846D01*
X42416656Y-1497467D01*
X42389625Y-1464613D01*
X42372517Y-1423294D01*
X42363238Y-1367521D01*
X42359693Y-1291305D01*
X42359410Y-1252622D01*
X42360372Y-1206247D01*
X42448007Y-1206247D01*
X42449023Y-1231126D01*
X42451556Y-1235200D01*
X42468274Y-1229665D01*
X42504249Y-1215017D01*
X42552331Y-1194190D01*
X42562386Y-1189714D01*
X42623152Y-1158814D01*
X42656632Y-1131657D01*
X42663990Y-1106220D01*
X42646391Y-1080481D01*
X42631856Y-1069109D01*
X42579410Y-1046364D01*
X42530322Y-1050122D01*
X42489227Y-1077884D01*
X42460758Y-1127152D01*
X42451631Y-1166257D01*
X42448007Y-1206247D01*
X42360372Y-1206247D01*
X42361285Y-1162249D01*
X42368196Y-1095384D01*
X42381884Y-1046695D01*
X42404096Y-1010849D01*
X42436574Y-982513D01*
X42450733Y-973355D01*
X42515053Y-949507D01*
X42585473Y-948006D01*
X42653595Y-966966D01*
X42653595Y-966966D01*
G37*
X42653595Y-966966D02*
X42711021Y-1004497D01*
X42738719Y-1038096D01*
X42760662Y-1099064D01*
X42762405Y-1147308D01*
X42758457Y-1211816D01*
X42609686Y-1276934D01*
X42537349Y-1310202D01*
X42490084Y-1336964D01*
X42465507Y-1360144D01*
X42461237Y-1382667D01*
X42474889Y-1407455D01*
X42489943Y-1423886D01*
X42533746Y-1450235D01*
X42581389Y-1452081D01*
X42625145Y-1431546D01*
X42657289Y-1390752D01*
X42663038Y-1376347D01*
X42690576Y-1331356D01*
X42722258Y-1312182D01*
X42765714Y-1295779D01*
X42765714Y-1357966D01*
X42761872Y-1400283D01*
X42746823Y-1435969D01*
X42715280Y-1476943D01*
X42710592Y-1482267D01*
X42675506Y-1518720D01*
X42645347Y-1538283D01*
X42607615Y-1547283D01*
X42576335Y-1550230D01*
X42520385Y-1550965D01*
X42480555Y-1541660D01*
X42455708Y-1527846D01*
X42416656Y-1497467D01*
X42389625Y-1464613D01*
X42372517Y-1423294D01*
X42363238Y-1367521D01*
X42359693Y-1291305D01*
X42359410Y-1252622D01*
X42360372Y-1206247D01*
X42448007Y-1206247D01*
X42449023Y-1231126D01*
X42451556Y-1235200D01*
X42468274Y-1229665D01*
X42504249Y-1215017D01*
X42552331Y-1194190D01*
X42562386Y-1189714D01*
X42623152Y-1158814D01*
X42656632Y-1131657D01*
X42663990Y-1106220D01*
X42646391Y-1080481D01*
X42631856Y-1069109D01*
X42579410Y-1046364D01*
X42530322Y-1050122D01*
X42489227Y-1077884D01*
X42460758Y-1127152D01*
X42451631Y-1166257D01*
X42448007Y-1206247D01*
X42360372Y-1206247D01*
X42361285Y-1162249D01*
X42368196Y-1095384D01*
X42381884Y-1046695D01*
X42404096Y-1010849D01*
X42436574Y-982513D01*
X42450733Y-973355D01*
X42515053Y-949507D01*
X42585473Y-948006D01*
X42653595Y-966966D01*
G36*
X42152600Y-958752D02*
G01*
X42169948Y-966334D01*
X42211356Y-999128D01*
X42246765Y-1046547D01*
X42268664Y-1097151D01*
X42272229Y-1122098D01*
X42260279Y-1156927D01*
X42234067Y-1175357D01*
X42205964Y-1186516D01*
X42193095Y-1188572D01*
X42186829Y-1173649D01*
X42174456Y-1141175D01*
X42169028Y-1126502D01*
X42138590Y-1075744D01*
X42094520Y-1050427D01*
X42038010Y-1051206D01*
X42033825Y-1052203D01*
X42003655Y-1066507D01*
X41981476Y-1094393D01*
X41966327Y-1139287D01*
X41957250Y-1204615D01*
X41953286Y-1293804D01*
X41952914Y-1341261D01*
X41952730Y-1416071D01*
X41951522Y-1467069D01*
X41948309Y-1499471D01*
X41942109Y-1518495D01*
X41931940Y-1529356D01*
X41916819Y-1537272D01*
X41915946Y-1537670D01*
X41886828Y-1549981D01*
X41872403Y-1554514D01*
X41870186Y-1540809D01*
X41868289Y-1502925D01*
X41866847Y-1445715D01*
X41865998Y-1374027D01*
X41865829Y-1321565D01*
X41866692Y-1220047D01*
X41870070Y-1143032D01*
X41877142Y-1086023D01*
X41889088Y-1044526D01*
X41907090Y-1014043D01*
X41932327Y-990080D01*
X41957247Y-973355D01*
X42017171Y-951097D01*
X42086911Y-946076D01*
X42152600Y-958752D01*
X42152600Y-958752D01*
G37*
X42152600Y-958752D02*
X42169948Y-966334D01*
X42211356Y-999128D01*
X42246765Y-1046547D01*
X42268664Y-1097151D01*
X42272229Y-1122098D01*
X42260279Y-1156927D01*
X42234067Y-1175357D01*
X42205964Y-1186516D01*
X42193095Y-1188572D01*
X42186829Y-1173649D01*
X42174456Y-1141175D01*
X42169028Y-1126502D01*
X42138590Y-1075744D01*
X42094520Y-1050427D01*
X42038010Y-1051206D01*
X42033825Y-1052203D01*
X42003655Y-1066507D01*
X41981476Y-1094393D01*
X41966327Y-1139287D01*
X41957250Y-1204615D01*
X41953286Y-1293804D01*
X41952914Y-1341261D01*
X41952730Y-1416071D01*
X41951522Y-1467069D01*
X41948309Y-1499471D01*
X41942109Y-1518495D01*
X41931940Y-1529356D01*
X41916819Y-1537272D01*
X41915946Y-1537670D01*
X41886828Y-1549981D01*
X41872403Y-1554514D01*
X41870186Y-1540809D01*
X41868289Y-1502925D01*
X41866847Y-1445715D01*
X41865998Y-1374027D01*
X41865829Y-1321565D01*
X41866692Y-1220047D01*
X41870070Y-1143032D01*
X41877142Y-1086023D01*
X41889088Y-1044526D01*
X41907090Y-1014043D01*
X41932327Y-990080D01*
X41957247Y-973355D01*
X42017171Y-951097D01*
X42086911Y-946076D01*
X42152600Y-958752D01*
G36*
X41644876Y-956335D02*
G01*
X41686667Y-975344D01*
X41719469Y-998378D01*
X41743503Y-1024133D01*
X41760097Y-1057358D01*
X41770577Y-1102800D01*
X41776271Y-1165207D01*
X41778507Y-1249327D01*
X41778743Y-1304721D01*
X41778743Y-1520826D01*
X41741774Y-1537670D01*
X41712656Y-1549981D01*
X41698231Y-1554514D01*
X41695472Y-1541025D01*
X41693282Y-1504653D01*
X41691942Y-1451542D01*
X41691657Y-1409372D01*
X41690434Y-1348447D01*
X41687136Y-1300115D01*
X41682321Y-1270518D01*
X41678496Y-1264229D01*
X41652783Y-1270652D01*
X41612418Y-1287125D01*
X41565679Y-1309458D01*
X41520845Y-1333457D01*
X41486193Y-1354930D01*
X41470002Y-1369685D01*
X41469938Y-1369845D01*
X41471330Y-1397152D01*
X41483818Y-1423219D01*
X41505743Y-1444392D01*
X41537743Y-1451474D01*
X41565092Y-1450649D01*
X41603826Y-1450042D01*
X41624158Y-1459116D01*
X41636369Y-1483092D01*
X41637909Y-1487613D01*
X41643203Y-1521806D01*
X41629047Y-1542568D01*
X41592148Y-1552462D01*
X41552289Y-1554292D01*
X41480562Y-1540727D01*
X41443432Y-1521355D01*
X41397576Y-1475845D01*
X41373256Y-1419983D01*
X41371073Y-1360957D01*
X41391629Y-1305953D01*
X41422549Y-1271486D01*
X41453420Y-1252189D01*
X41501942Y-1227759D01*
X41558485Y-1202985D01*
X41567910Y-1199199D01*
X41630019Y-1171791D01*
X41665822Y-1147634D01*
X41677337Y-1123619D01*
X41666580Y-1096635D01*
X41648114Y-1075543D01*
X41604469Y-1049572D01*
X41556446Y-1047624D01*
X41512406Y-1067637D01*
X41480709Y-1107551D01*
X41476549Y-1117848D01*
X41452327Y-1155724D01*
X41416965Y-1183842D01*
X41372343Y-1206917D01*
X41372343Y-1141485D01*
X41374969Y-1101506D01*
X41386230Y-1069997D01*
X41411199Y-1036378D01*
X41435169Y-1010484D01*
X41472441Y-973817D01*
X41501401Y-954121D01*
X41532505Y-946220D01*
X41567713Y-944914D01*
X41644876Y-956335D01*
X41644876Y-956335D01*
G37*
X41644876Y-956335D02*
X41686667Y-975344D01*
X41719469Y-998378D01*
X41743503Y-1024133D01*
X41760097Y-1057358D01*
X41770577Y-1102800D01*
X41776271Y-1165207D01*
X41778507Y-1249327D01*
X41778743Y-1304721D01*
X41778743Y-1520826D01*
X41741774Y-1537670D01*
X41712656Y-1549981D01*
X41698231Y-1554514D01*
X41695472Y-1541025D01*
X41693282Y-1504653D01*
X41691942Y-1451542D01*
X41691657Y-1409372D01*
X41690434Y-1348447D01*
X41687136Y-1300115D01*
X41682321Y-1270518D01*
X41678496Y-1264229D01*
X41652783Y-1270652D01*
X41612418Y-1287125D01*
X41565679Y-1309458D01*
X41520845Y-1333457D01*
X41486193Y-1354930D01*
X41470002Y-1369685D01*
X41469938Y-1369845D01*
X41471330Y-1397152D01*
X41483818Y-1423219D01*
X41505743Y-1444392D01*
X41537743Y-1451474D01*
X41565092Y-1450649D01*
X41603826Y-1450042D01*
X41624158Y-1459116D01*
X41636369Y-1483092D01*
X41637909Y-1487613D01*
X41643203Y-1521806D01*
X41629047Y-1542568D01*
X41592148Y-1552462D01*
X41552289Y-1554292D01*
X41480562Y-1540727D01*
X41443432Y-1521355D01*
X41397576Y-1475845D01*
X41373256Y-1419983D01*
X41371073Y-1360957D01*
X41391629Y-1305953D01*
X41422549Y-1271486D01*
X41453420Y-1252189D01*
X41501942Y-1227759D01*
X41558485Y-1202985D01*
X41567910Y-1199199D01*
X41630019Y-1171791D01*
X41665822Y-1147634D01*
X41677337Y-1123619D01*
X41666580Y-1096635D01*
X41648114Y-1075543D01*
X41604469Y-1049572D01*
X41556446Y-1047624D01*
X41512406Y-1067637D01*
X41480709Y-1107551D01*
X41476549Y-1117848D01*
X41452327Y-1155724D01*
X41416965Y-1183842D01*
X41372343Y-1206917D01*
X41372343Y-1141485D01*
X41374969Y-1101506D01*
X41386230Y-1069997D01*
X41411199Y-1036378D01*
X41435169Y-1010484D01*
X41472441Y-973817D01*
X41501401Y-954121D01*
X41532505Y-946220D01*
X41567713Y-944914D01*
X41644876Y-956335D01*
G36*
X41279833Y-958663D02*
G01*
X41282048Y-996850D01*
X41283784Y-1054886D01*
X41284899Y-1128180D01*
X41285257Y-1205055D01*
X41285257Y-1465196D01*
X41239326Y-1511127D01*
X41207675Y-1539429D01*
X41179890Y-1550893D01*
X41141915Y-1550168D01*
X41126840Y-1548321D01*
X41079726Y-1542948D01*
X41040756Y-1539869D01*
X41031257Y-1539585D01*
X40999233Y-1541445D01*
X40953432Y-1546114D01*
X40935674Y-1548321D01*
X40892057Y-1551735D01*
X40862745Y-1544320D01*
X40833680Y-1521427D01*
X40823188Y-1511127D01*
X40777257Y-1465196D01*
X40777257Y-978602D01*
X40814226Y-961758D01*
X40846059Y-949282D01*
X40864683Y-944914D01*
X40869458Y-958718D01*
X40873921Y-997286D01*
X40877775Y-1056356D01*
X40880722Y-1131663D01*
X40882143Y-1195286D01*
X40886114Y-1445657D01*
X40920759Y-1450556D01*
X40952268Y-1447131D01*
X40967708Y-1436041D01*
X40972023Y-1415308D01*
X40975708Y-1371145D01*
X40978469Y-1309146D01*
X40980012Y-1234909D01*
X40980235Y-1196706D01*
X40980457Y-976783D01*
X41026166Y-960849D01*
X41058518Y-950015D01*
X41076115Y-944962D01*
X41076623Y-944914D01*
X41078388Y-958648D01*
X41080329Y-996730D01*
X41082282Y-1054482D01*
X41084084Y-1127227D01*
X41085343Y-1195286D01*
X41089314Y-1445657D01*
X41176400Y-1445657D01*
X41180396Y-1217240D01*
X41184392Y-988822D01*
X41226847Y-966868D01*
X41258192Y-951793D01*
X41276744Y-944951D01*
X41277279Y-944914D01*
X41279833Y-958663D01*
X41279833Y-958663D01*
G37*
X41279833Y-958663D02*
X41282048Y-996850D01*
X41283784Y-1054886D01*
X41284899Y-1128180D01*
X41285257Y-1205055D01*
X41285257Y-1465196D01*
X41239326Y-1511127D01*
X41207675Y-1539429D01*
X41179890Y-1550893D01*
X41141915Y-1550168D01*
X41126840Y-1548321D01*
X41079726Y-1542948D01*
X41040756Y-1539869D01*
X41031257Y-1539585D01*
X40999233Y-1541445D01*
X40953432Y-1546114D01*
X40935674Y-1548321D01*
X40892057Y-1551735D01*
X40862745Y-1544320D01*
X40833680Y-1521427D01*
X40823188Y-1511127D01*
X40777257Y-1465196D01*
X40777257Y-978602D01*
X40814226Y-961758D01*
X40846059Y-949282D01*
X40864683Y-944914D01*
X40869458Y-958718D01*
X40873921Y-997286D01*
X40877775Y-1056356D01*
X40880722Y-1131663D01*
X40882143Y-1195286D01*
X40886114Y-1445657D01*
X40920759Y-1450556D01*
X40952268Y-1447131D01*
X40967708Y-1436041D01*
X40972023Y-1415308D01*
X40975708Y-1371145D01*
X40978469Y-1309146D01*
X40980012Y-1234909D01*
X40980235Y-1196706D01*
X40980457Y-976783D01*
X41026166Y-960849D01*
X41058518Y-950015D01*
X41076115Y-944962D01*
X41076623Y-944914D01*
X41078388Y-958648D01*
X41080329Y-996730D01*
X41082282Y-1054482D01*
X41084084Y-1127227D01*
X41085343Y-1195286D01*
X41089314Y-1445657D01*
X41176400Y-1445657D01*
X41180396Y-1217240D01*
X41184392Y-988822D01*
X41226847Y-966868D01*
X41258192Y-951793D01*
X41276744Y-944951D01*
X41277279Y-944914D01*
X41279833Y-958663D01*
G36*
X40690117Y-1065358D02*
G01*
X40689933Y-1173837D01*
X40689219Y-1257287D01*
X40687675Y-1319704D01*
X40685001Y-1365085D01*
X40680894Y-1397429D01*
X40675055Y-1420733D01*
X40667182Y-1438995D01*
X40661221Y-1449418D01*
X40611855Y-1505945D01*
X40549264Y-1541377D01*
X40480013Y-1554090D01*
X40410668Y-1542463D01*
X40369375Y-1521568D01*
X40326025Y-1485422D01*
X40296481Y-1441276D01*
X40278655Y-1383462D01*
X40270463Y-1306313D01*
X40269302Y-1249714D01*
X40269458Y-1245647D01*
X40370857Y-1245647D01*
X40371476Y-1310550D01*
X40374314Y-1353514D01*
X40380840Y-1381622D01*
X40392523Y-1401953D01*
X40406483Y-1417288D01*
X40453365Y-1446890D01*
X40503701Y-1449419D01*
X40551276Y-1424705D01*
X40554979Y-1421356D01*
X40570783Y-1403935D01*
X40580693Y-1383209D01*
X40586058Y-1352362D01*
X40588228Y-1304577D01*
X40588571Y-1251748D01*
X40587827Y-1185381D01*
X40584748Y-1141106D01*
X40578061Y-1112009D01*
X40566496Y-1091173D01*
X40557013Y-1080107D01*
X40512960Y-1052198D01*
X40462224Y-1048843D01*
X40413796Y-1070159D01*
X40404450Y-1078073D01*
X40388540Y-1095647D01*
X40378610Y-1116587D01*
X40373278Y-1147782D01*
X40371163Y-1196122D01*
X40370857Y-1245647D01*
X40269458Y-1245647D01*
X40272810Y-1158568D01*
X40284726Y-1090086D01*
X40307135Y-1038600D01*
X40342124Y-998443D01*
X40369375Y-977861D01*
X40418907Y-955625D01*
X40476316Y-945304D01*
X40529682Y-948067D01*
X40559543Y-959212D01*
X40571261Y-962383D01*
X40579037Y-950557D01*
X40584465Y-918866D01*
X40588571Y-870593D01*
X40593067Y-816829D01*
X40599313Y-784482D01*
X40610676Y-765985D01*
X40630528Y-753770D01*
X40643000Y-748362D01*
X40690171Y-728601D01*
X40690117Y-1065358D01*
X40690117Y-1065358D01*
G37*
X40690117Y-1065358D02*
X40689933Y-1173837D01*
X40689219Y-1257287D01*
X40687675Y-1319704D01*
X40685001Y-1365085D01*
X40680894Y-1397429D01*
X40675055Y-1420733D01*
X40667182Y-1438995D01*
X40661221Y-1449418D01*
X40611855Y-1505945D01*
X40549264Y-1541377D01*
X40480013Y-1554090D01*
X40410668Y-1542463D01*
X40369375Y-1521568D01*
X40326025Y-1485422D01*
X40296481Y-1441276D01*
X40278655Y-1383462D01*
X40270463Y-1306313D01*
X40269302Y-1249714D01*
X40269458Y-1245647D01*
X40370857Y-1245647D01*
X40371476Y-1310550D01*
X40374314Y-1353514D01*
X40380840Y-1381622D01*
X40392523Y-1401953D01*
X40406483Y-1417288D01*
X40453365Y-1446890D01*
X40503701Y-1449419D01*
X40551276Y-1424705D01*
X40554979Y-1421356D01*
X40570783Y-1403935D01*
X40580693Y-1383209D01*
X40586058Y-1352362D01*
X40588228Y-1304577D01*
X40588571Y-1251748D01*
X40587827Y-1185381D01*
X40584748Y-1141106D01*
X40578061Y-1112009D01*
X40566496Y-1091173D01*
X40557013Y-1080107D01*
X40512960Y-1052198D01*
X40462224Y-1048843D01*
X40413796Y-1070159D01*
X40404450Y-1078073D01*
X40388540Y-1095647D01*
X40378610Y-1116587D01*
X40373278Y-1147782D01*
X40371163Y-1196122D01*
X40370857Y-1245647D01*
X40269458Y-1245647D01*
X40272810Y-1158568D01*
X40284726Y-1090086D01*
X40307135Y-1038600D01*
X40342124Y-998443D01*
X40369375Y-977861D01*
X40418907Y-955625D01*
X40476316Y-945304D01*
X40529682Y-948067D01*
X40559543Y-959212D01*
X40571261Y-962383D01*
X40579037Y-950557D01*
X40584465Y-918866D01*
X40588571Y-870593D01*
X40593067Y-816829D01*
X40599313Y-784482D01*
X40610676Y-765985D01*
X40630528Y-753770D01*
X40643000Y-748362D01*
X40690171Y-728601D01*
X40690117Y-1065358D01*
G36*
X40029926Y-949755D02*
G01*
X40095858Y-974084D01*
X40149273Y-1017117D01*
X40170164Y-1047409D01*
X40192939Y-1102994D01*
X40192466Y-1143186D01*
X40168562Y-1170217D01*
X40159717Y-1174813D01*
X40121530Y-1189144D01*
X40102028Y-1185472D01*
X40095422Y-1161407D01*
X40095086Y-1148114D01*
X40082992Y-1099210D01*
X40051471Y-1064999D01*
X40007659Y-1048476D01*
X39958695Y-1052634D01*
X39918894Y-1074227D01*
X39905450Y-1086544D01*
X39895921Y-1101487D01*
X39889485Y-1124075D01*
X39885317Y-1159328D01*
X39882597Y-1212266D01*
X39880502Y-1287907D01*
X39879960Y-1311857D01*
X39877981Y-1393790D01*
X39875731Y-1451455D01*
X39872357Y-1489608D01*
X39867006Y-1513004D01*
X39858824Y-1526398D01*
X39846959Y-1534545D01*
X39839362Y-1538144D01*
X39807102Y-1550452D01*
X39788111Y-1554514D01*
X39781836Y-1540948D01*
X39778006Y-1499934D01*
X39776600Y-1430999D01*
X39777598Y-1333669D01*
X39777908Y-1318657D01*
X39780101Y-1229859D01*
X39782693Y-1165019D01*
X39786382Y-1119067D01*
X39791864Y-1086935D01*
X39799835Y-1063553D01*
X39810993Y-1043852D01*
X39816830Y-1035410D01*
X39850296Y-998057D01*
X39887727Y-969003D01*
X39892309Y-966467D01*
X39959426Y-946443D01*
X40029926Y-949755D01*
X40029926Y-949755D01*
G37*
X40029926Y-949755D02*
X40095858Y-974084D01*
X40149273Y-1017117D01*
X40170164Y-1047409D01*
X40192939Y-1102994D01*
X40192466Y-1143186D01*
X40168562Y-1170217D01*
X40159717Y-1174813D01*
X40121530Y-1189144D01*
X40102028Y-1185472D01*
X40095422Y-1161407D01*
X40095086Y-1148114D01*
X40082992Y-1099210D01*
X40051471Y-1064999D01*
X40007659Y-1048476D01*
X39958695Y-1052634D01*
X39918894Y-1074227D01*
X39905450Y-1086544D01*
X39895921Y-1101487D01*
X39889485Y-1124075D01*
X39885317Y-1159328D01*
X39882597Y-1212266D01*
X39880502Y-1287907D01*
X39879960Y-1311857D01*
X39877981Y-1393790D01*
X39875731Y-1451455D01*
X39872357Y-1489608D01*
X39867006Y-1513004D01*
X39858824Y-1526398D01*
X39846959Y-1534545D01*
X39839362Y-1538144D01*
X39807102Y-1550452D01*
X39788111Y-1554514D01*
X39781836Y-1540948D01*
X39778006Y-1499934D01*
X39776600Y-1430999D01*
X39777598Y-1333669D01*
X39777908Y-1318657D01*
X39780101Y-1229859D01*
X39782693Y-1165019D01*
X39786382Y-1119067D01*
X39791864Y-1086935D01*
X39799835Y-1063553D01*
X39810993Y-1043852D01*
X39816830Y-1035410D01*
X39850296Y-998057D01*
X39887727Y-969003D01*
X39892309Y-966467D01*
X39959426Y-946443D01*
X40029926Y-949755D01*
G36*
X39539744Y-950968D02*
G01*
X39596616Y-972087D01*
X39597267Y-972493D01*
X39632440Y-998380D01*
X39658407Y-1028633D01*
X39676670Y-1068058D01*
X39688732Y-1121462D01*
X39696096Y-1193651D01*
X39700264Y-1289432D01*
X39700629Y-1303078D01*
X39705876Y-1508842D01*
X39661716Y-1531678D01*
X39629763Y-1547110D01*
X39610470Y-1554423D01*
X39609578Y-1554514D01*
X39606239Y-1541022D01*
X39603587Y-1504626D01*
X39601956Y-1451452D01*
X39601600Y-1408393D01*
X39601592Y-1338641D01*
X39598403Y-1294837D01*
X39587288Y-1273944D01*
X39563501Y-1272925D01*
X39522296Y-1288741D01*
X39460086Y-1317815D01*
X39414341Y-1341963D01*
X39390813Y-1362913D01*
X39383896Y-1385747D01*
X39383886Y-1386877D01*
X39395299Y-1426212D01*
X39429092Y-1447462D01*
X39480809Y-1450539D01*
X39518061Y-1450006D01*
X39537703Y-1460735D01*
X39549952Y-1486505D01*
X39557002Y-1519337D01*
X39546842Y-1537966D01*
X39543017Y-1540632D01*
X39507001Y-1551340D01*
X39456566Y-1552856D01*
X39404626Y-1545759D01*
X39367822Y-1532788D01*
X39316938Y-1489585D01*
X39288014Y-1429446D01*
X39282286Y-1382462D01*
X39286657Y-1340082D01*
X39302475Y-1305488D01*
X39333797Y-1274763D01*
X39384678Y-1243990D01*
X39459176Y-1209252D01*
X39463714Y-1207288D01*
X39530821Y-1176287D01*
X39572232Y-1150862D01*
X39589981Y-1128014D01*
X39586107Y-1104745D01*
X39562643Y-1078056D01*
X39555627Y-1071914D01*
X39508630Y-1048100D01*
X39459933Y-1049103D01*
X39417522Y-1072451D01*
X39389384Y-1115675D01*
X39386769Y-1124160D01*
X39361308Y-1165308D01*
X39329001Y-1185128D01*
X39282286Y-1204770D01*
X39282286Y-1153950D01*
X39296496Y-1080082D01*
X39338675Y-1012327D01*
X39360624Y-989661D01*
X39410517Y-960569D01*
X39473967Y-947400D01*
X39539744Y-950968D01*
X39539744Y-950968D01*
G37*
X39539744Y-950968D02*
X39596616Y-972087D01*
X39597267Y-972493D01*
X39632440Y-998380D01*
X39658407Y-1028633D01*
X39676670Y-1068058D01*
X39688732Y-1121462D01*
X39696096Y-1193651D01*
X39700264Y-1289432D01*
X39700629Y-1303078D01*
X39705876Y-1508842D01*
X39661716Y-1531678D01*
X39629763Y-1547110D01*
X39610470Y-1554423D01*
X39609578Y-1554514D01*
X39606239Y-1541022D01*
X39603587Y-1504626D01*
X39601956Y-1451452D01*
X39601600Y-1408393D01*
X39601592Y-1338641D01*
X39598403Y-1294837D01*
X39587288Y-1273944D01*
X39563501Y-1272925D01*
X39522296Y-1288741D01*
X39460086Y-1317815D01*
X39414341Y-1341963D01*
X39390813Y-1362913D01*
X39383896Y-1385747D01*
X39383886Y-1386877D01*
X39395299Y-1426212D01*
X39429092Y-1447462D01*
X39480809Y-1450539D01*
X39518061Y-1450006D01*
X39537703Y-1460735D01*
X39549952Y-1486505D01*
X39557002Y-1519337D01*
X39546842Y-1537966D01*
X39543017Y-1540632D01*
X39507001Y-1551340D01*
X39456566Y-1552856D01*
X39404626Y-1545759D01*
X39367822Y-1532788D01*
X39316938Y-1489585D01*
X39288014Y-1429446D01*
X39282286Y-1382462D01*
X39286657Y-1340082D01*
X39302475Y-1305488D01*
X39333797Y-1274763D01*
X39384678Y-1243990D01*
X39459176Y-1209252D01*
X39463714Y-1207288D01*
X39530821Y-1176287D01*
X39572232Y-1150862D01*
X39589981Y-1128014D01*
X39586107Y-1104745D01*
X39562643Y-1078056D01*
X39555627Y-1071914D01*
X39508630Y-1048100D01*
X39459933Y-1049103D01*
X39417522Y-1072451D01*
X39389384Y-1115675D01*
X39386769Y-1124160D01*
X39361308Y-1165308D01*
X39329001Y-1185128D01*
X39282286Y-1204770D01*
X39282286Y-1153950D01*
X39296496Y-1080082D01*
X39338675Y-1012327D01*
X39360624Y-989661D01*
X39410517Y-960569D01*
X39473967Y-947400D01*
X39539744Y-950968D01*
G36*
X38875886Y-851289D02*
G01*
X38880139Y-910613D01*
X38885025Y-945572D01*
X38891795Y-960820D01*
X38901702Y-961015D01*
X38904914Y-959195D01*
X38947644Y-946015D01*
X39003227Y-946785D01*
X39059737Y-960333D01*
X39095082Y-977861D01*
X39131321Y-1005861D01*
X39157813Y-1037549D01*
X39175999Y-1077813D01*
X39187322Y-1131543D01*
X39193222Y-1203626D01*
X39195143Y-1298951D01*
X39195177Y-1317237D01*
X39195200Y-1522646D01*
X39149491Y-1538580D01*
X39117027Y-1549420D01*
X39099215Y-1554468D01*
X39098691Y-1554514D01*
X39096937Y-1540828D01*
X39095444Y-1503076D01*
X39094326Y-1446224D01*
X39093697Y-1375234D01*
X39093600Y-1332073D01*
X39093398Y-1246973D01*
X39092358Y-1185981D01*
X39089831Y-1144177D01*
X39085164Y-1116642D01*
X39077707Y-1098456D01*
X39066811Y-1084698D01*
X39060007Y-1078073D01*
X39013272Y-1051375D01*
X38962272Y-1049375D01*
X38916001Y-1071955D01*
X38907444Y-1080107D01*
X38894893Y-1095436D01*
X38886188Y-1113618D01*
X38880631Y-1139909D01*
X38877526Y-1179562D01*
X38876176Y-1237832D01*
X38875886Y-1318173D01*
X38875886Y-1522646D01*
X38830177Y-1538580D01*
X38797713Y-1549420D01*
X38779901Y-1554468D01*
X38779377Y-1554514D01*
X38778037Y-1540623D01*
X38776828Y-1501439D01*
X38775801Y-1440700D01*
X38775002Y-1362141D01*
X38774481Y-1269498D01*
X38774286Y-1166509D01*
X38774286Y-769342D01*
X38821457Y-749444D01*
X38868629Y-729547D01*
X38875886Y-851289D01*
X38875886Y-851289D01*
G37*
X38875886Y-851289D02*
X38880139Y-910613D01*
X38885025Y-945572D01*
X38891795Y-960820D01*
X38901702Y-961015D01*
X38904914Y-959195D01*
X38947644Y-946015D01*
X39003227Y-946785D01*
X39059737Y-960333D01*
X39095082Y-977861D01*
X39131321Y-1005861D01*
X39157813Y-1037549D01*
X39175999Y-1077813D01*
X39187322Y-1131543D01*
X39193222Y-1203626D01*
X39195143Y-1298951D01*
X39195177Y-1317237D01*
X39195200Y-1522646D01*
X39149491Y-1538580D01*
X39117027Y-1549420D01*
X39099215Y-1554468D01*
X39098691Y-1554514D01*
X39096937Y-1540828D01*
X39095444Y-1503076D01*
X39094326Y-1446224D01*
X39093697Y-1375234D01*
X39093600Y-1332073D01*
X39093398Y-1246973D01*
X39092358Y-1185981D01*
X39089831Y-1144177D01*
X39085164Y-1116642D01*
X39077707Y-1098456D01*
X39066811Y-1084698D01*
X39060007Y-1078073D01*
X39013272Y-1051375D01*
X38962272Y-1049375D01*
X38916001Y-1071955D01*
X38907444Y-1080107D01*
X38894893Y-1095436D01*
X38886188Y-1113618D01*
X38880631Y-1139909D01*
X38877526Y-1179562D01*
X38876176Y-1237832D01*
X38875886Y-1318173D01*
X38875886Y-1522646D01*
X38830177Y-1538580D01*
X38797713Y-1549420D01*
X38779901Y-1554468D01*
X38779377Y-1554514D01*
X38778037Y-1540623D01*
X38776828Y-1501439D01*
X38775801Y-1440700D01*
X38775002Y-1362141D01*
X38774481Y-1269498D01*
X38774286Y-1166509D01*
X38774286Y-769342D01*
X38821457Y-749444D01*
X38868629Y-729547D01*
X38875886Y-851289D01*
G36*
X37668303Y-931239D02*
G01*
X37725527Y-969735D01*
X37769749Y-1025335D01*
X37796167Y-1096086D01*
X37801510Y-1148162D01*
X37800903Y-1169893D01*
X37795822Y-1186531D01*
X37781855Y-1201437D01*
X37754589Y-1217973D01*
X37709612Y-1239498D01*
X37642511Y-1269374D01*
X37642171Y-1269524D01*
X37580407Y-1297813D01*
X37529759Y-1322933D01*
X37495404Y-1342179D01*
X37482518Y-1352848D01*
X37482514Y-1352934D01*
X37493872Y-1376166D01*
X37520431Y-1401774D01*
X37550923Y-1420221D01*
X37566370Y-1423886D01*
X37608515Y-1411212D01*
X37644808Y-1379471D01*
X37662517Y-1344572D01*
X37679552Y-1318845D01*
X37712922Y-1289546D01*
X37752149Y-1264235D01*
X37786756Y-1250471D01*
X37793993Y-1249714D01*
X37802139Y-1262160D01*
X37802630Y-1293972D01*
X37796643Y-1336866D01*
X37785357Y-1382558D01*
X37769950Y-1422761D01*
X37769171Y-1424322D01*
X37722804Y-1489062D01*
X37662711Y-1533097D01*
X37594465Y-1554711D01*
X37523638Y-1552185D01*
X37455804Y-1523804D01*
X37452788Y-1521808D01*
X37399427Y-1473448D01*
X37364340Y-1410352D01*
X37344922Y-1327387D01*
X37342316Y-1304078D01*
X37337701Y-1194055D01*
X37343233Y-1142748D01*
X37482514Y-1142748D01*
X37484324Y-1174753D01*
X37494222Y-1184093D01*
X37518898Y-1177105D01*
X37557795Y-1160587D01*
X37601275Y-1139881D01*
X37602356Y-1139333D01*
X37639209Y-1119949D01*
X37654000Y-1107013D01*
X37650353Y-1093451D01*
X37634995Y-1075632D01*
X37595923Y-1049845D01*
X37553846Y-1047950D01*
X37516103Y-1066717D01*
X37490034Y-1102915D01*
X37482514Y-1142748D01*
X37343233Y-1142748D01*
X37347194Y-1106027D01*
X37371550Y-1036212D01*
X37405456Y-987302D01*
X37466653Y-937878D01*
X37534063Y-913359D01*
X37602880Y-911797D01*
X37668303Y-931239D01*
X37668303Y-931239D01*
G37*
X37668303Y-931239D02*
X37725527Y-969735D01*
X37769749Y-1025335D01*
X37796167Y-1096086D01*
X37801510Y-1148162D01*
X37800903Y-1169893D01*
X37795822Y-1186531D01*
X37781855Y-1201437D01*
X37754589Y-1217973D01*
X37709612Y-1239498D01*
X37642511Y-1269374D01*
X37642171Y-1269524D01*
X37580407Y-1297813D01*
X37529759Y-1322933D01*
X37495404Y-1342179D01*
X37482518Y-1352848D01*
X37482514Y-1352934D01*
X37493872Y-1376166D01*
X37520431Y-1401774D01*
X37550923Y-1420221D01*
X37566370Y-1423886D01*
X37608515Y-1411212D01*
X37644808Y-1379471D01*
X37662517Y-1344572D01*
X37679552Y-1318845D01*
X37712922Y-1289546D01*
X37752149Y-1264235D01*
X37786756Y-1250471D01*
X37793993Y-1249714D01*
X37802139Y-1262160D01*
X37802630Y-1293972D01*
X37796643Y-1336866D01*
X37785357Y-1382558D01*
X37769950Y-1422761D01*
X37769171Y-1424322D01*
X37722804Y-1489062D01*
X37662711Y-1533097D01*
X37594465Y-1554711D01*
X37523638Y-1552185D01*
X37455804Y-1523804D01*
X37452788Y-1521808D01*
X37399427Y-1473448D01*
X37364340Y-1410352D01*
X37344922Y-1327387D01*
X37342316Y-1304078D01*
X37337701Y-1194055D01*
X37343233Y-1142748D01*
X37482514Y-1142748D01*
X37484324Y-1174753D01*
X37494222Y-1184093D01*
X37518898Y-1177105D01*
X37557795Y-1160587D01*
X37601275Y-1139881D01*
X37602356Y-1139333D01*
X37639209Y-1119949D01*
X37654000Y-1107013D01*
X37650353Y-1093451D01*
X37634995Y-1075632D01*
X37595923Y-1049845D01*
X37553846Y-1047950D01*
X37516103Y-1066717D01*
X37490034Y-1102915D01*
X37482514Y-1142748D01*
X37343233Y-1142748D01*
X37347194Y-1106027D01*
X37371550Y-1036212D01*
X37405456Y-987302D01*
X37466653Y-937878D01*
X37534063Y-913359D01*
X37602880Y-911797D01*
X37668303Y-931239D01*
G36*
X36541115Y-921962D02*
G01*
X36609145Y-957733D01*
X36659351Y-1015301D01*
X36677185Y-1052312D01*
X36691063Y-1107882D01*
X36698167Y-1178096D01*
X36698840Y-1254727D01*
X36693427Y-1329552D01*
X36682270Y-1394342D01*
X36665714Y-1440873D01*
X36660626Y-1448887D01*
X36600355Y-1508707D01*
X36528769Y-1544535D01*
X36451092Y-1555020D01*
X36372548Y-1538810D01*
X36350689Y-1529092D01*
X36308122Y-1499143D01*
X36270763Y-1459433D01*
X36267232Y-1454397D01*
X36252881Y-1430124D01*
X36243394Y-1404178D01*
X36237790Y-1370022D01*
X36235086Y-1321119D01*
X36234299Y-1250935D01*
X36234286Y-1235200D01*
X36234322Y-1230192D01*
X36379429Y-1230192D01*
X36380273Y-1296430D01*
X36383596Y-1340386D01*
X36390583Y-1368779D01*
X36402416Y-1388325D01*
X36408457Y-1394857D01*
X36443186Y-1419680D01*
X36476903Y-1418548D01*
X36510995Y-1397016D01*
X36531329Y-1374029D01*
X36543371Y-1340478D01*
X36550134Y-1287569D01*
X36550598Y-1281399D01*
X36551752Y-1185513D01*
X36539688Y-1114299D01*
X36514570Y-1068194D01*
X36476560Y-1047635D01*
X36462992Y-1046514D01*
X36427364Y-1052152D01*
X36402994Y-1071686D01*
X36388093Y-1109042D01*
X36380875Y-1168150D01*
X36379429Y-1230192D01*
X36234322Y-1230192D01*
X36234826Y-1160413D01*
X36237096Y-1108159D01*
X36242068Y-1071949D01*
X36250713Y-1045299D01*
X36264005Y-1021722D01*
X36266943Y-1017338D01*
X36316313Y-958249D01*
X36370109Y-923947D01*
X36435602Y-910331D01*
X36457842Y-909665D01*
X36541115Y-921962D01*
X36541115Y-921962D01*
G37*
X36541115Y-921962D02*
X36609145Y-957733D01*
X36659351Y-1015301D01*
X36677185Y-1052312D01*
X36691063Y-1107882D01*
X36698167Y-1178096D01*
X36698840Y-1254727D01*
X36693427Y-1329552D01*
X36682270Y-1394342D01*
X36665714Y-1440873D01*
X36660626Y-1448887D01*
X36600355Y-1508707D01*
X36528769Y-1544535D01*
X36451092Y-1555020D01*
X36372548Y-1538810D01*
X36350689Y-1529092D01*
X36308122Y-1499143D01*
X36270763Y-1459433D01*
X36267232Y-1454397D01*
X36252881Y-1430124D01*
X36243394Y-1404178D01*
X36237790Y-1370022D01*
X36235086Y-1321119D01*
X36234299Y-1250935D01*
X36234286Y-1235200D01*
X36234322Y-1230192D01*
X36379429Y-1230192D01*
X36380273Y-1296430D01*
X36383596Y-1340386D01*
X36390583Y-1368779D01*
X36402416Y-1388325D01*
X36408457Y-1394857D01*
X36443186Y-1419680D01*
X36476903Y-1418548D01*
X36510995Y-1397016D01*
X36531329Y-1374029D01*
X36543371Y-1340478D01*
X36550134Y-1287569D01*
X36550598Y-1281399D01*
X36551752Y-1185513D01*
X36539688Y-1114299D01*
X36514570Y-1068194D01*
X36476560Y-1047635D01*
X36462992Y-1046514D01*
X36427364Y-1052152D01*
X36402994Y-1071686D01*
X36388093Y-1109042D01*
X36380875Y-1168150D01*
X36379429Y-1230192D01*
X36234322Y-1230192D01*
X36234826Y-1160413D01*
X36237096Y-1108159D01*
X36242068Y-1071949D01*
X36250713Y-1045299D01*
X36264005Y-1021722D01*
X36266943Y-1017338D01*
X36316313Y-958249D01*
X36370109Y-923947D01*
X36435602Y-910331D01*
X36457842Y-909665D01*
X36541115Y-921962D01*
G36*
X38216093Y-927780D02*
G01*
X38262672Y-954723D01*
X38295057Y-981466D01*
X38318742Y-1009484D01*
X38335059Y-1043748D01*
X38345339Y-1089227D01*
X38350914Y-1150892D01*
X38353116Y-1233711D01*
X38353371Y-1293246D01*
X38353371Y-1512391D01*
X38291686Y-1540044D01*
X38230000Y-1567697D01*
X38222743Y-1327670D01*
X38219744Y-1238028D01*
X38216598Y-1172962D01*
X38212701Y-1128026D01*
X38207447Y-1098770D01*
X38200231Y-1080748D01*
X38190450Y-1069511D01*
X38187312Y-1067079D01*
X38139761Y-1048083D01*
X38091697Y-1055600D01*
X38063086Y-1075543D01*
X38051447Y-1089675D01*
X38043391Y-1108220D01*
X38038271Y-1136334D01*
X38035441Y-1179173D01*
X38034256Y-1241895D01*
X38034057Y-1307261D01*
X38034018Y-1389268D01*
X38032614Y-1447316D01*
X38027914Y-1486465D01*
X38017987Y-1511780D01*
X38000903Y-1528323D01*
X37974732Y-1541156D01*
X37939775Y-1554491D01*
X37901596Y-1569007D01*
X37906141Y-1311389D01*
X37907971Y-1218519D01*
X37910112Y-1149889D01*
X37913181Y-1100711D01*
X37917794Y-1066198D01*
X37924568Y-1041562D01*
X37934119Y-1022016D01*
X37945634Y-1004770D01*
X38001190Y-949680D01*
X38068980Y-917822D01*
X38142713Y-910191D01*
X38216093Y-927780D01*
X38216093Y-927780D01*
G37*
X38216093Y-927780D02*
X38262672Y-954723D01*
X38295057Y-981466D01*
X38318742Y-1009484D01*
X38335059Y-1043748D01*
X38345339Y-1089227D01*
X38350914Y-1150892D01*
X38353116Y-1233711D01*
X38353371Y-1293246D01*
X38353371Y-1512391D01*
X38291686Y-1540044D01*
X38230000Y-1567697D01*
X38222743Y-1327670D01*
X38219744Y-1238028D01*
X38216598Y-1172962D01*
X38212701Y-1128026D01*
X38207447Y-1098770D01*
X38200231Y-1080748D01*
X38190450Y-1069511D01*
X38187312Y-1067079D01*
X38139761Y-1048083D01*
X38091697Y-1055600D01*
X38063086Y-1075543D01*
X38051447Y-1089675D01*
X38043391Y-1108220D01*
X38038271Y-1136334D01*
X38035441Y-1179173D01*
X38034256Y-1241895D01*
X38034057Y-1307261D01*
X38034018Y-1389268D01*
X38032614Y-1447316D01*
X38027914Y-1486465D01*
X38017987Y-1511780D01*
X38000903Y-1528323D01*
X37974732Y-1541156D01*
X37939775Y-1554491D01*
X37901596Y-1569007D01*
X37906141Y-1311389D01*
X37907971Y-1218519D01*
X37910112Y-1149889D01*
X37913181Y-1100711D01*
X37917794Y-1066198D01*
X37924568Y-1041562D01*
X37934119Y-1022016D01*
X37945634Y-1004770D01*
X38001190Y-949680D01*
X38068980Y-917822D01*
X38142713Y-910191D01*
X38216093Y-927780D01*
G36*
X37099744Y-919918D02*
G01*
X37155201Y-947568D01*
X37204148Y-998480D01*
X37217629Y-1017338D01*
X37232314Y-1042015D01*
X37241842Y-1068816D01*
X37247293Y-1104587D01*
X37249747Y-1156169D01*
X37250286Y-1224267D01*
X37247852Y-1317588D01*
X37239394Y-1387657D01*
X37223174Y-1439931D01*
X37197454Y-1479869D01*
X37160497Y-1512929D01*
X37157782Y-1514886D01*
X37121360Y-1534908D01*
X37077502Y-1544815D01*
X37021724Y-1547257D01*
X36931048Y-1547257D01*
X36931010Y-1635283D01*
X36930166Y-1684308D01*
X36925024Y-1713065D01*
X36911587Y-1730311D01*
X36885858Y-1744808D01*
X36879679Y-1747769D01*
X36850764Y-1761648D01*
X36828376Y-1770414D01*
X36811729Y-1771171D01*
X36800036Y-1761023D01*
X36792510Y-1737073D01*
X36788366Y-1696426D01*
X36786815Y-1636186D01*
X36787071Y-1553455D01*
X36788349Y-1445339D01*
X36788748Y-1413000D01*
X36790185Y-1301524D01*
X36791472Y-1228603D01*
X36930971Y-1228603D01*
X36931755Y-1290499D01*
X36935240Y-1330997D01*
X36943124Y-1357708D01*
X36957105Y-1378244D01*
X36966597Y-1388260D01*
X37005404Y-1417567D01*
X37039763Y-1419952D01*
X37075216Y-1395750D01*
X37076114Y-1394857D01*
X37090539Y-1376153D01*
X37099313Y-1350732D01*
X37103739Y-1311584D01*
X37105118Y-1251697D01*
X37105143Y-1238430D01*
X37101812Y-1155901D01*
X37090969Y-1098691D01*
X37071340Y-1063766D01*
X37041650Y-1048094D01*
X37024491Y-1046514D01*
X36983766Y-1053926D01*
X36955832Y-1078330D01*
X36939017Y-1122980D01*
X36931650Y-1191130D01*
X36930971Y-1228603D01*
X36791472Y-1228603D01*
X36791708Y-1215245D01*
X36793677Y-1150333D01*
X36796450Y-1102958D01*
X36800388Y-1069290D01*
X36805849Y-1045498D01*
X36813192Y-1027753D01*
X36822777Y-1012224D01*
X36826887Y-1006381D01*
X36881405Y-951185D01*
X36950336Y-919890D01*
X37030072Y-911165D01*
X37099744Y-919918D01*
X37099744Y-919918D01*
G37*
X37099744Y-919918D02*
X37155201Y-947568D01*
X37204148Y-998480D01*
X37217629Y-1017338D01*
X37232314Y-1042015D01*
X37241842Y-1068816D01*
X37247293Y-1104587D01*
X37249747Y-1156169D01*
X37250286Y-1224267D01*
X37247852Y-1317588D01*
X37239394Y-1387657D01*
X37223174Y-1439931D01*
X37197454Y-1479869D01*
X37160497Y-1512929D01*
X37157782Y-1514886D01*
X37121360Y-1534908D01*
X37077502Y-1544815D01*
X37021724Y-1547257D01*
X36931048Y-1547257D01*
X36931010Y-1635283D01*
X36930166Y-1684308D01*
X36925024Y-1713065D01*
X36911587Y-1730311D01*
X36885858Y-1744808D01*
X36879679Y-1747769D01*
X36850764Y-1761648D01*
X36828376Y-1770414D01*
X36811729Y-1771171D01*
X36800036Y-1761023D01*
X36792510Y-1737073D01*
X36788366Y-1696426D01*
X36786815Y-1636186D01*
X36787071Y-1553455D01*
X36788349Y-1445339D01*
X36788748Y-1413000D01*
X36790185Y-1301524D01*
X36791472Y-1228603D01*
X36930971Y-1228603D01*
X36931755Y-1290499D01*
X36935240Y-1330997D01*
X36943124Y-1357708D01*
X36957105Y-1378244D01*
X36966597Y-1388260D01*
X37005404Y-1417567D01*
X37039763Y-1419952D01*
X37075216Y-1395750D01*
X37076114Y-1394857D01*
X37090539Y-1376153D01*
X37099313Y-1350732D01*
X37103739Y-1311584D01*
X37105118Y-1251697D01*
X37105143Y-1238430D01*
X37101812Y-1155901D01*
X37090969Y-1098691D01*
X37071340Y-1063766D01*
X37041650Y-1048094D01*
X37024491Y-1046514D01*
X36983766Y-1053926D01*
X36955832Y-1078330D01*
X36939017Y-1122980D01*
X36931650Y-1191130D01*
X36930971Y-1228603D01*
X36791472Y-1228603D01*
X36791708Y-1215245D01*
X36793677Y-1150333D01*
X36796450Y-1102958D01*
X36800388Y-1069290D01*
X36805849Y-1045498D01*
X36813192Y-1027753D01*
X36822777Y-1012224D01*
X36826887Y-1006381D01*
X36881405Y-951185D01*
X36950336Y-919890D01*
X37030072Y-911165D01*
X37099744Y-919918D01*
D13*
X45550000Y14050000D02*
X44000000Y14050000D01*
X42730000Y11230000D02*
X42730000Y13770000D01*
X45270000Y11230000D02*
X42730000Y11230000D01*
X45550000Y12500000D02*
X45550000Y14050000D01*
X45270000Y8690000D02*
X45270000Y11230000D01*
X35110000Y8690000D02*
X45270000Y8690000D01*
X35110000Y13770000D02*
X35110000Y8690000D01*
X42730000Y13770000D02*
X35110000Y13770000D01*
X30950000Y16630000D02*
X34050000Y16630000D01*
X30950000Y15080000D02*
X30950000Y16630000D01*
X33770000Y13810000D02*
X31230000Y13810000D01*
X34050000Y16630000D02*
X34050000Y15080000D01*
X33770000Y8730000D02*
X33770000Y13810000D01*
X31230000Y8730000D02*
X33770000Y8730000D01*
X31230000Y13810000D02*
X31230000Y8730000D01*
X14950000Y16550000D02*
X18050000Y16550000D01*
X14950000Y15000000D02*
X14950000Y16550000D01*
X17770000Y13730000D02*
X15230000Y13730000D01*
X18050000Y16550000D02*
X18050000Y15000000D01*
X17770000Y8650000D02*
X17770000Y13730000D01*
X15230000Y8650000D02*
X17770000Y8650000D01*
X15230000Y13730000D02*
X15230000Y8650000D01*
X23500000Y-2452000D02*
X22500000Y-2452000D01*
X22500000Y-4152000D02*
X23500000Y-4152000D01*
X27332000Y12297000D02*
X29332000Y12297000D01*
X29332000Y10147000D02*
X27332000Y10147000D01*
X27332000Y9757000D02*
X29332000Y9757000D01*
X29332000Y7607000D02*
X27332000Y7607000D01*
X25455000Y5050000D02*
X25455000Y3050000D01*
X23305000Y3050000D02*
X23305000Y5050000D01*
X20765000Y7545800D02*
X20765000Y9545800D01*
X22915000Y9545800D02*
X22915000Y7545800D01*
X23305000Y7545800D02*
X23305000Y9545800D01*
X25455000Y9545800D02*
X25455000Y7545800D01*
X22915000Y5050000D02*
X22915000Y3050000D01*
X20765000Y3050000D02*
X20765000Y5050000D01*
X18092000Y-9750000D02*
X18092000Y-7950000D01*
X19492000Y-9750000D02*
X19492000Y-7950000D01*
X17460000Y-7550000D02*
X17460000Y-9350000D01*
X16060000Y-7550000D02*
X16060000Y-9350000D01*
X14028000Y-9750000D02*
X14028000Y-7950000D01*
X15428000Y-9750000D02*
X15428000Y-7950000D01*
X13396000Y-7550000D02*
X13396000Y-9350000D01*
X11996000Y-7550000D02*
X11996000Y-9350000D01*
X9964000Y-9750000D02*
X9964000Y-7950000D01*
X11364000Y-9750000D02*
X11364000Y-7950000D01*
X9332000Y-7550000D02*
X9332000Y-9350000D01*
X7932000Y-7550000D02*
X7932000Y-9350000D01*
D15*
X25796000Y1370000D02*
X23346000Y1370000D01*
X23996000Y-1850000D02*
X25796000Y-1850000D01*
D13*
X29556000Y-113000D02*
X28356000Y-113000D01*
X28356000Y1637000D02*
X29556000Y1637000D01*
X32625000Y2886000D02*
X32625000Y1686000D01*
X30875000Y1686000D02*
X30875000Y2886000D01*
X24546000Y-9031000D02*
X25746000Y-9031000D01*
X25746000Y-10781000D02*
X24546000Y-10781000D01*
X10322000Y1637000D02*
X11522000Y1637000D01*
X11522000Y-113000D02*
X10322000Y-113000D01*
X9003000Y2886000D02*
X9003000Y1686000D01*
X7253000Y1686000D02*
X7253000Y2886000D01*
X18683000Y162000D02*
X18683000Y1362000D01*
X20433000Y1362000D02*
X20433000Y162000D01*
X21936000Y-9257000D02*
X20736000Y-9257000D01*
X20736000Y-7507000D02*
X21936000Y-7507000D01*
X12030000Y-6209000D02*
X10830000Y-6209000D01*
X10830000Y-4459000D02*
X12030000Y-4459000D01*
X9511000Y-4226000D02*
X9511000Y-5426000D01*
X7761000Y-5426000D02*
X7761000Y-4226000D01*
X14939000Y-1299000D02*
X13539000Y-1299000D01*
X14939000Y-6399000D02*
X19089000Y-6399000D01*
X14939000Y-1249000D02*
X19089000Y-1249000D01*
X14939000Y-6399000D02*
X14939000Y-6254000D01*
X19089000Y-6399000D02*
X19089000Y-6254000D01*
X19089000Y-1249000D02*
X19089000Y-1394000D01*
X14939000Y-1249000D02*
X14939000Y-1299000D01*
X28564000Y3080000D02*
X28564000Y6080000D01*
X30364000Y3080000D02*
X30364000Y6080000D01*
X15886000Y7080000D02*
X15886000Y4080000D01*
X14086000Y7080000D02*
X14086000Y4080000D01*
X18404000Y6382000D02*
X18404000Y9382000D01*
X20204000Y6382000D02*
X20204000Y9382000D01*
X9514000Y7080000D02*
X9514000Y4080000D01*
X11314000Y7080000D02*
X11314000Y4080000D01*
X28710000Y-2374000D02*
X29710000Y-2374000D01*
X29710000Y-674000D02*
X28710000Y-674000D01*
X27520000Y3818000D02*
X27520000Y4818000D01*
X25820000Y4818000D02*
X25820000Y3818000D01*
X11422000Y-420000D02*
X10422000Y-420000D01*
X10422000Y-2120000D02*
X11422000Y-2120000D01*
X13550000Y5088000D02*
X13550000Y6088000D01*
X11850000Y6088000D02*
X11850000Y5088000D01*
X20154000Y3818000D02*
X20154000Y4818000D01*
X18454000Y4818000D02*
X18454000Y3818000D01*
X16010000Y-850000D02*
X17010000Y-850000D01*
X17010000Y850000D02*
X16010000Y850000D01*
X20998000Y260000D02*
X20998000Y-740000D01*
X22698000Y-740000D02*
X22698000Y260000D01*
D16*
X46726190Y9630952D02*
X46226190Y9630952D01*
X46226190Y9821428D01*
X46250000Y9869047D01*
X46273809Y9892857D01*
X46321428Y9916666D01*
X46392857Y9916666D01*
X46440476Y9892857D01*
X46464285Y9869047D01*
X46488095Y9821428D01*
X46488095Y9630952D01*
X46726190Y10392857D02*
X46726190Y10107142D01*
X46726190Y10250000D02*
X46226190Y10250000D01*
X46297619Y10202380D01*
X46345238Y10154761D01*
X46369047Y10107142D01*
X32083333Y8273809D02*
X32083333Y7916666D01*
X32059523Y7845238D01*
X32011904Y7797619D01*
X31940476Y7773809D01*
X31892857Y7773809D01*
X32321428Y7773809D02*
X32321428Y8273809D01*
X32511904Y8273809D01*
X32559523Y8250000D01*
X32583333Y8226190D01*
X32607142Y8178571D01*
X32607142Y8107142D01*
X32583333Y8059523D01*
X32559523Y8035714D01*
X32511904Y8011904D01*
X32321428Y8011904D01*
X32797619Y8226190D02*
X32821428Y8250000D01*
X32869047Y8273809D01*
X32988095Y8273809D01*
X33035714Y8250000D01*
X33059523Y8226190D01*
X33083333Y8178571D01*
X33083333Y8130952D01*
X33059523Y8059523D01*
X32773809Y7773809D01*
X33083333Y7773809D01*
X16083333Y8273809D02*
X16083333Y7916666D01*
X16059523Y7845238D01*
X16011904Y7797619D01*
X15940476Y7773809D01*
X15892857Y7773809D01*
X16321428Y7773809D02*
X16321428Y8273809D01*
X16511904Y8273809D01*
X16559523Y8250000D01*
X16583333Y8226190D01*
X16607142Y8178571D01*
X16607142Y8107142D01*
X16583333Y8059523D01*
X16559523Y8035714D01*
X16511904Y8011904D01*
X16321428Y8011904D01*
X17083333Y7773809D02*
X16797619Y7773809D01*
X16940476Y7773809D02*
X16940476Y8273809D01*
X16892857Y8202380D01*
X16845238Y8154761D01*
X16797619Y8130952D01*
X25324571Y-3385333D02*
X25348380Y-3409142D01*
X25372190Y-3480571D01*
X25372190Y-3528190D01*
X25348380Y-3599619D01*
X25300761Y-3647238D01*
X25253142Y-3671047D01*
X25157904Y-3694857D01*
X25086476Y-3694857D01*
X24991238Y-3671047D01*
X24943619Y-3647238D01*
X24896000Y-3599619D01*
X24872190Y-3528190D01*
X24872190Y-3480571D01*
X24896000Y-3409142D01*
X24919809Y-3385333D01*
X25086476Y-3099619D02*
X25062666Y-3147238D01*
X25038857Y-3171047D01*
X24991238Y-3194857D01*
X24967428Y-3194857D01*
X24919809Y-3171047D01*
X24896000Y-3147238D01*
X24872190Y-3099619D01*
X24872190Y-3004380D01*
X24896000Y-2956761D01*
X24919809Y-2932952D01*
X24967428Y-2909142D01*
X24991238Y-2909142D01*
X25038857Y-2932952D01*
X25062666Y-2956761D01*
X25086476Y-3004380D01*
X25086476Y-3099619D01*
X25110285Y-3147238D01*
X25134095Y-3171047D01*
X25181714Y-3194857D01*
X25276952Y-3194857D01*
X25324571Y-3171047D01*
X25348380Y-3147238D01*
X25372190Y-3099619D01*
X25372190Y-3004380D01*
X25348380Y-2956761D01*
X25324571Y-2932952D01*
X25276952Y-2909142D01*
X25181714Y-2909142D01*
X25134095Y-2932952D01*
X25110285Y-2956761D01*
X25086476Y-3004380D01*
X30507809Y11555428D02*
X30745904Y11722095D01*
X30507809Y11841142D02*
X31007809Y11841142D01*
X31007809Y11650666D01*
X30984000Y11603047D01*
X30960190Y11579238D01*
X30912571Y11555428D01*
X30841142Y11555428D01*
X30793523Y11579238D01*
X30769714Y11603047D01*
X30745904Y11650666D01*
X30745904Y11841142D01*
X30507809Y11079238D02*
X30507809Y11364952D01*
X30507809Y11222095D02*
X31007809Y11222095D01*
X30936380Y11269714D01*
X30888761Y11317333D01*
X30864952Y11364952D01*
X31007809Y10626857D02*
X31007809Y10864952D01*
X30769714Y10888761D01*
X30793523Y10864952D01*
X30817333Y10817333D01*
X30817333Y10698285D01*
X30793523Y10650666D01*
X30769714Y10626857D01*
X30722095Y10603047D01*
X30603047Y10603047D01*
X30555428Y10626857D01*
X30531619Y10650666D01*
X30507809Y10698285D01*
X30507809Y10817333D01*
X30531619Y10864952D01*
X30555428Y10888761D01*
X30507809Y9015428D02*
X30745904Y9182095D01*
X30507809Y9301142D02*
X31007809Y9301142D01*
X31007809Y9110666D01*
X30984000Y9063047D01*
X30960190Y9039238D01*
X30912571Y9015428D01*
X30841142Y9015428D01*
X30793523Y9039238D01*
X30769714Y9063047D01*
X30745904Y9110666D01*
X30745904Y9301142D01*
X30507809Y8539238D02*
X30507809Y8824952D01*
X30507809Y8682095D02*
X31007809Y8682095D01*
X30936380Y8729714D01*
X30888761Y8777333D01*
X30864952Y8824952D01*
X30841142Y8110666D02*
X30507809Y8110666D01*
X31031619Y8229714D02*
X30674476Y8348761D01*
X30674476Y8039238D01*
X24062571Y1551809D02*
X23895904Y1789904D01*
X23776857Y1551809D02*
X23776857Y2051809D01*
X23967333Y2051809D01*
X24014952Y2028000D01*
X24038761Y2004190D01*
X24062571Y1956571D01*
X24062571Y1885142D01*
X24038761Y1837523D01*
X24014952Y1813714D01*
X23967333Y1789904D01*
X23776857Y1789904D01*
X24538761Y1551809D02*
X24253047Y1551809D01*
X24395904Y1551809D02*
X24395904Y2051809D01*
X24348285Y1980380D01*
X24300666Y1932761D01*
X24253047Y1908952D01*
X24705428Y2051809D02*
X25014952Y2051809D01*
X24848285Y1861333D01*
X24919714Y1861333D01*
X24967333Y1837523D01*
X24991142Y1813714D01*
X25014952Y1766095D01*
X25014952Y1647047D01*
X24991142Y1599428D01*
X24967333Y1575619D01*
X24919714Y1551809D01*
X24776857Y1551809D01*
X24729238Y1575619D01*
X24705428Y1599428D01*
X20826190Y6478571D02*
X20588095Y6311904D01*
X20826190Y6192857D02*
X20326190Y6192857D01*
X20326190Y6383333D01*
X20350000Y6430952D01*
X20373809Y6454761D01*
X20421428Y6478571D01*
X20492857Y6478571D01*
X20540476Y6454761D01*
X20564285Y6430952D01*
X20588095Y6383333D01*
X20588095Y6192857D01*
X20826190Y6954761D02*
X20826190Y6669047D01*
X20826190Y6811904D02*
X20326190Y6811904D01*
X20397619Y6764285D01*
X20445238Y6716666D01*
X20469047Y6669047D01*
X20326190Y7264285D02*
X20326190Y7311904D01*
X20350000Y7359523D01*
X20373809Y7383333D01*
X20421428Y7407142D01*
X20516666Y7430952D01*
X20635714Y7430952D01*
X20730952Y7407142D01*
X20778571Y7383333D01*
X20802380Y7359523D01*
X20826190Y7311904D01*
X20826190Y7264285D01*
X20802380Y7216666D01*
X20778571Y7192857D01*
X20730952Y7169047D01*
X20635714Y7145238D01*
X20516666Y7145238D01*
X20421428Y7169047D01*
X20373809Y7192857D01*
X20350000Y7216666D01*
X20326190Y7264285D01*
X26026190Y9916666D02*
X25788095Y9750000D01*
X26026190Y9630952D02*
X25526190Y9630952D01*
X25526190Y9821428D01*
X25550000Y9869047D01*
X25573809Y9892857D01*
X25621428Y9916666D01*
X25692857Y9916666D01*
X25740476Y9892857D01*
X25764285Y9869047D01*
X25788095Y9821428D01*
X25788095Y9630952D01*
X26026190Y10154761D02*
X26026190Y10250000D01*
X26002380Y10297619D01*
X25978571Y10321428D01*
X25907142Y10369047D01*
X25811904Y10392857D01*
X25621428Y10392857D01*
X25573809Y10369047D01*
X25550000Y10345238D01*
X25526190Y10297619D01*
X25526190Y10202380D01*
X25550000Y10154761D01*
X25573809Y10130952D01*
X25621428Y10107142D01*
X25740476Y10107142D01*
X25788095Y10130952D01*
X25811904Y10154761D01*
X25835714Y10202380D01*
X25835714Y10297619D01*
X25811904Y10345238D01*
X25788095Y10369047D01*
X25740476Y10392857D01*
X21768666Y1551809D02*
X21602000Y1789904D01*
X21482952Y1551809D02*
X21482952Y2051809D01*
X21673428Y2051809D01*
X21721047Y2028000D01*
X21744857Y2004190D01*
X21768666Y1956571D01*
X21768666Y1885142D01*
X21744857Y1837523D01*
X21721047Y1813714D01*
X21673428Y1789904D01*
X21482952Y1789904D01*
X21935333Y2051809D02*
X22268666Y2051809D01*
X22054380Y1551809D01*
X18434952Y-11066190D02*
X18434952Y-10566190D01*
X18554000Y-10566190D01*
X18625428Y-10590000D01*
X18673047Y-10637619D01*
X18696857Y-10685238D01*
X18720666Y-10780476D01*
X18720666Y-10851904D01*
X18696857Y-10947142D01*
X18673047Y-10994761D01*
X18625428Y-11042380D01*
X18554000Y-11066190D01*
X18434952Y-11066190D01*
X19149238Y-10566190D02*
X19054000Y-10566190D01*
X19006380Y-10590000D01*
X18982571Y-10613809D01*
X18934952Y-10685238D01*
X18911142Y-10780476D01*
X18911142Y-10970952D01*
X18934952Y-11018571D01*
X18958761Y-11042380D01*
X19006380Y-11066190D01*
X19101619Y-11066190D01*
X19149238Y-11042380D01*
X19173047Y-11018571D01*
X19196857Y-10970952D01*
X19196857Y-10851904D01*
X19173047Y-10804285D01*
X19149238Y-10780476D01*
X19101619Y-10756666D01*
X19006380Y-10756666D01*
X18958761Y-10780476D01*
X18934952Y-10804285D01*
X18911142Y-10851904D01*
X16402952Y-11066190D02*
X16402952Y-10566190D01*
X16522000Y-10566190D01*
X16593428Y-10590000D01*
X16641047Y-10637619D01*
X16664857Y-10685238D01*
X16688666Y-10780476D01*
X16688666Y-10851904D01*
X16664857Y-10947142D01*
X16641047Y-10994761D01*
X16593428Y-11042380D01*
X16522000Y-11066190D01*
X16402952Y-11066190D01*
X17141047Y-10566190D02*
X16902952Y-10566190D01*
X16879142Y-10804285D01*
X16902952Y-10780476D01*
X16950571Y-10756666D01*
X17069619Y-10756666D01*
X17117238Y-10780476D01*
X17141047Y-10804285D01*
X17164857Y-10851904D01*
X17164857Y-10970952D01*
X17141047Y-11018571D01*
X17117238Y-11042380D01*
X17069619Y-11066190D01*
X16950571Y-11066190D01*
X16902952Y-11042380D01*
X16879142Y-11018571D01*
X14370952Y-11066190D02*
X14370952Y-10566190D01*
X14490000Y-10566190D01*
X14561428Y-10590000D01*
X14609047Y-10637619D01*
X14632857Y-10685238D01*
X14656666Y-10780476D01*
X14656666Y-10851904D01*
X14632857Y-10947142D01*
X14609047Y-10994761D01*
X14561428Y-11042380D01*
X14490000Y-11066190D01*
X14370952Y-11066190D01*
X15085238Y-10732857D02*
X15085238Y-11066190D01*
X14966190Y-10542380D02*
X14847142Y-10899523D01*
X15156666Y-10899523D01*
X12338952Y-11066190D02*
X12338952Y-10566190D01*
X12458000Y-10566190D01*
X12529428Y-10590000D01*
X12577047Y-10637619D01*
X12600857Y-10685238D01*
X12624666Y-10780476D01*
X12624666Y-10851904D01*
X12600857Y-10947142D01*
X12577047Y-10994761D01*
X12529428Y-11042380D01*
X12458000Y-11066190D01*
X12338952Y-11066190D01*
X12791333Y-10566190D02*
X13100857Y-10566190D01*
X12934190Y-10756666D01*
X13005619Y-10756666D01*
X13053238Y-10780476D01*
X13077047Y-10804285D01*
X13100857Y-10851904D01*
X13100857Y-10970952D01*
X13077047Y-11018571D01*
X13053238Y-11042380D01*
X13005619Y-11066190D01*
X12862761Y-11066190D01*
X12815142Y-11042380D01*
X12791333Y-11018571D01*
X10306952Y-11066190D02*
X10306952Y-10566190D01*
X10426000Y-10566190D01*
X10497428Y-10590000D01*
X10545047Y-10637619D01*
X10568857Y-10685238D01*
X10592666Y-10780476D01*
X10592666Y-10851904D01*
X10568857Y-10947142D01*
X10545047Y-10994761D01*
X10497428Y-11042380D01*
X10426000Y-11066190D01*
X10306952Y-11066190D01*
X10783142Y-10613809D02*
X10806952Y-10590000D01*
X10854571Y-10566190D01*
X10973619Y-10566190D01*
X11021238Y-10590000D01*
X11045047Y-10613809D01*
X11068857Y-10661428D01*
X11068857Y-10709047D01*
X11045047Y-10780476D01*
X10759333Y-11066190D01*
X11068857Y-11066190D01*
X8274952Y-11066190D02*
X8274952Y-10566190D01*
X8394000Y-10566190D01*
X8465428Y-10590000D01*
X8513047Y-10637619D01*
X8536857Y-10685238D01*
X8560666Y-10780476D01*
X8560666Y-10851904D01*
X8536857Y-10947142D01*
X8513047Y-10994761D01*
X8465428Y-11042380D01*
X8394000Y-11066190D01*
X8274952Y-11066190D01*
X9036857Y-11066190D02*
X8751142Y-11066190D01*
X8894000Y-11066190D02*
X8894000Y-10566190D01*
X8846380Y-10637619D01*
X8798761Y-10685238D01*
X8751142Y-10709047D01*
X25527047Y-2266190D02*
X25527047Y-2670952D01*
X25550857Y-2718571D01*
X25574666Y-2742380D01*
X25622285Y-2766190D01*
X25717523Y-2766190D01*
X25765142Y-2742380D01*
X25788952Y-2718571D01*
X25812761Y-2670952D01*
X25812761Y-2266190D01*
X26312761Y-2766190D02*
X26027047Y-2766190D01*
X26169904Y-2766190D02*
X26169904Y-2266190D01*
X26122285Y-2337619D01*
X26074666Y-2385238D01*
X26027047Y-2409047D01*
X27308190Y452571D02*
X27070095Y285904D01*
X27308190Y166857D02*
X26808190Y166857D01*
X26808190Y357333D01*
X26832000Y404952D01*
X26855809Y428761D01*
X26903428Y452571D01*
X26974857Y452571D01*
X27022476Y428761D01*
X27046285Y404952D01*
X27070095Y357333D01*
X27070095Y166857D01*
X27308190Y928761D02*
X27308190Y643047D01*
X27308190Y785904D02*
X26808190Y785904D01*
X26879619Y738285D01*
X26927238Y690666D01*
X26951047Y643047D01*
X26855809Y1119238D02*
X26832000Y1143047D01*
X26808190Y1190666D01*
X26808190Y1309714D01*
X26832000Y1357333D01*
X26855809Y1381142D01*
X26903428Y1404952D01*
X26951047Y1404952D01*
X27022476Y1381142D01*
X27308190Y1095428D01*
X27308190Y1404952D01*
X33404190Y1964571D02*
X33166095Y1797904D01*
X33404190Y1678857D02*
X32904190Y1678857D01*
X32904190Y1869333D01*
X32928000Y1916952D01*
X32951809Y1940761D01*
X32999428Y1964571D01*
X33070857Y1964571D01*
X33118476Y1940761D01*
X33142285Y1916952D01*
X33166095Y1869333D01*
X33166095Y1678857D01*
X33404190Y2440761D02*
X33404190Y2155047D01*
X33404190Y2297904D02*
X32904190Y2297904D01*
X32975619Y2250285D01*
X33023238Y2202666D01*
X33047047Y2155047D01*
X33404190Y2916952D02*
X33404190Y2631238D01*
X33404190Y2774095D02*
X32904190Y2774095D01*
X32975619Y2726476D01*
X33023238Y2678857D01*
X33047047Y2631238D01*
X27204162Y-10040133D02*
X26966067Y-10206800D01*
X27204162Y-10325847D02*
X26704162Y-10325847D01*
X26704162Y-10135371D01*
X26727972Y-10087752D01*
X26751781Y-10063942D01*
X26799400Y-10040133D01*
X26870829Y-10040133D01*
X26918448Y-10063942D01*
X26942257Y-10087752D01*
X26966067Y-10135371D01*
X26966067Y-10325847D01*
X26918448Y-9754419D02*
X26894638Y-9802038D01*
X26870829Y-9825847D01*
X26823210Y-9849657D01*
X26799400Y-9849657D01*
X26751781Y-9825847D01*
X26727972Y-9802038D01*
X26704162Y-9754419D01*
X26704162Y-9659180D01*
X26727972Y-9611561D01*
X26751781Y-9587752D01*
X26799400Y-9563942D01*
X26823210Y-9563942D01*
X26870829Y-9587752D01*
X26894638Y-9611561D01*
X26918448Y-9659180D01*
X26918448Y-9754419D01*
X26942257Y-9802038D01*
X26966067Y-9825847D01*
X27013686Y-9849657D01*
X27108924Y-9849657D01*
X27156543Y-9825847D01*
X27180352Y-9802038D01*
X27204162Y-9754419D01*
X27204162Y-9659180D01*
X27180352Y-9611561D01*
X27156543Y-9587752D01*
X27108924Y-9563942D01*
X27013686Y-9563942D01*
X26966067Y-9587752D01*
X26942257Y-9611561D01*
X26918448Y-9659180D01*
X9116190Y170666D02*
X8878095Y4000D01*
X9116190Y-115047D02*
X8616190Y-115047D01*
X8616190Y75428D01*
X8640000Y123047D01*
X8663809Y146857D01*
X8711428Y170666D01*
X8782857Y170666D01*
X8830476Y146857D01*
X8854285Y123047D01*
X8878095Y75428D01*
X8878095Y-115047D01*
X8616190Y599238D02*
X8616190Y504000D01*
X8640000Y456380D01*
X8663809Y432571D01*
X8735238Y384952D01*
X8830476Y361142D01*
X9020952Y361142D01*
X9068571Y384952D01*
X9092380Y408761D01*
X9116190Y456380D01*
X9116190Y551619D01*
X9092380Y599238D01*
X9068571Y623047D01*
X9020952Y646857D01*
X8901904Y646857D01*
X8854285Y623047D01*
X8830476Y599238D01*
X8806666Y551619D01*
X8806666Y456380D01*
X8830476Y408761D01*
X8854285Y384952D01*
X8901904Y361142D01*
X8044666Y3837809D02*
X7878000Y4075904D01*
X7758952Y3837809D02*
X7758952Y4337809D01*
X7949428Y4337809D01*
X7997047Y4314000D01*
X8020857Y4290190D01*
X8044666Y4242571D01*
X8044666Y4171142D01*
X8020857Y4123523D01*
X7997047Y4099714D01*
X7949428Y4075904D01*
X7758952Y4075904D01*
X8497047Y4337809D02*
X8258952Y4337809D01*
X8235142Y4099714D01*
X8258952Y4123523D01*
X8306571Y4147333D01*
X8425619Y4147333D01*
X8473238Y4123523D01*
X8497047Y4099714D01*
X8520857Y4052095D01*
X8520857Y3933047D01*
X8497047Y3885428D01*
X8473238Y3861619D01*
X8425619Y3837809D01*
X8306571Y3837809D01*
X8258952Y3861619D01*
X8235142Y3885428D01*
X21150190Y678666D02*
X20912095Y512000D01*
X21150190Y392952D02*
X20650190Y392952D01*
X20650190Y583428D01*
X20674000Y631047D01*
X20697809Y654857D01*
X20745428Y678666D01*
X20816857Y678666D01*
X20864476Y654857D01*
X20888285Y631047D01*
X20912095Y583428D01*
X20912095Y392952D01*
X20816857Y1107238D02*
X21150190Y1107238D01*
X20626380Y988190D02*
X20983523Y869142D01*
X20983523Y1178666D01*
X23582190Y-8479333D02*
X23344095Y-8646000D01*
X23582190Y-8765047D02*
X23082190Y-8765047D01*
X23082190Y-8574571D01*
X23106000Y-8526952D01*
X23129809Y-8503142D01*
X23177428Y-8479333D01*
X23248857Y-8479333D01*
X23296476Y-8503142D01*
X23320285Y-8526952D01*
X23344095Y-8574571D01*
X23344095Y-8765047D01*
X23082190Y-8312666D02*
X23082190Y-8003142D01*
X23272666Y-8169809D01*
X23272666Y-8098380D01*
X23296476Y-8050761D01*
X23320285Y-8026952D01*
X23367904Y-8003142D01*
X23486952Y-8003142D01*
X23534571Y-8026952D01*
X23558380Y-8050761D01*
X23582190Y-8098380D01*
X23582190Y-8241238D01*
X23558380Y-8288857D01*
X23534571Y-8312666D01*
X9834666Y-4194190D02*
X9668000Y-3956095D01*
X9548952Y-4194190D02*
X9548952Y-3694190D01*
X9739428Y-3694190D01*
X9787047Y-3718000D01*
X9810857Y-3741809D01*
X9834666Y-3789428D01*
X9834666Y-3860857D01*
X9810857Y-3908476D01*
X9787047Y-3932285D01*
X9739428Y-3956095D01*
X9548952Y-3956095D01*
X10025142Y-3741809D02*
X10048952Y-3718000D01*
X10096571Y-3694190D01*
X10215619Y-3694190D01*
X10263238Y-3718000D01*
X10287047Y-3741809D01*
X10310857Y-3789428D01*
X10310857Y-3837047D01*
X10287047Y-3908476D01*
X10001333Y-4194190D01*
X10310857Y-4194190D01*
X7496190Y-4897333D02*
X7258095Y-5064000D01*
X7496190Y-5183047D02*
X6996190Y-5183047D01*
X6996190Y-4992571D01*
X7020000Y-4944952D01*
X7043809Y-4921142D01*
X7091428Y-4897333D01*
X7162857Y-4897333D01*
X7210476Y-4921142D01*
X7234285Y-4944952D01*
X7258095Y-4992571D01*
X7258095Y-5183047D01*
X7496190Y-4421142D02*
X7496190Y-4706857D01*
X7496190Y-4564000D02*
X6996190Y-4564000D01*
X7067619Y-4611619D01*
X7115238Y-4659238D01*
X7139047Y-4706857D01*
X16525904Y-7256190D02*
X16525904Y-6756190D01*
X17049714Y-7208571D02*
X17025904Y-7232380D01*
X16954476Y-7256190D01*
X16906857Y-7256190D01*
X16835428Y-7232380D01*
X16787809Y-7184761D01*
X16764000Y-7137142D01*
X16740190Y-7041904D01*
X16740190Y-6970476D01*
X16764000Y-6875238D01*
X16787809Y-6827619D01*
X16835428Y-6780000D01*
X16906857Y-6756190D01*
X16954476Y-6756190D01*
X17025904Y-6780000D01*
X17049714Y-6803809D01*
X17525904Y-7256190D02*
X17240190Y-7256190D01*
X17383047Y-7256190D02*
X17383047Y-6756190D01*
X17335428Y-6827619D01*
X17287809Y-6875238D01*
X17240190Y-6899047D01*
X28868857Y2155809D02*
X28868857Y2655809D01*
X28987904Y2655809D01*
X29059333Y2632000D01*
X29106952Y2584380D01*
X29130761Y2536761D01*
X29154571Y2441523D01*
X29154571Y2370095D01*
X29130761Y2274857D01*
X29106952Y2227238D01*
X29059333Y2179619D01*
X28987904Y2155809D01*
X28868857Y2155809D01*
X29630761Y2155809D02*
X29345047Y2155809D01*
X29487904Y2155809D02*
X29487904Y2655809D01*
X29440285Y2584380D01*
X29392666Y2536761D01*
X29345047Y2512952D01*
X29940285Y2655809D02*
X29987904Y2655809D01*
X30035523Y2632000D01*
X30059333Y2608190D01*
X30083142Y2560571D01*
X30106952Y2465333D01*
X30106952Y2346285D01*
X30083142Y2251047D01*
X30059333Y2203428D01*
X30035523Y2179619D01*
X29987904Y2155809D01*
X29940285Y2155809D01*
X29892666Y2179619D01*
X29868857Y2203428D01*
X29845047Y2251047D01*
X29821238Y2346285D01*
X29821238Y2465333D01*
X29845047Y2560571D01*
X29868857Y2608190D01*
X29892666Y2632000D01*
X29940285Y2655809D01*
X14616952Y7393809D02*
X14616952Y7893809D01*
X14736000Y7893809D01*
X14807428Y7870000D01*
X14855047Y7822380D01*
X14878857Y7774761D01*
X14902666Y7679523D01*
X14902666Y7608095D01*
X14878857Y7512857D01*
X14855047Y7465238D01*
X14807428Y7417619D01*
X14736000Y7393809D01*
X14616952Y7393809D01*
X15140761Y7393809D02*
X15236000Y7393809D01*
X15283619Y7417619D01*
X15307428Y7441428D01*
X15355047Y7512857D01*
X15378857Y7608095D01*
X15378857Y7798571D01*
X15355047Y7846190D01*
X15331238Y7870000D01*
X15283619Y7893809D01*
X15188380Y7893809D01*
X15140761Y7870000D01*
X15116952Y7846190D01*
X15093142Y7798571D01*
X15093142Y7679523D01*
X15116952Y7631904D01*
X15140761Y7608095D01*
X15188380Y7584285D01*
X15283619Y7584285D01*
X15331238Y7608095D01*
X15355047Y7631904D01*
X15378857Y7679523D01*
X18226190Y6430952D02*
X17726190Y6430952D01*
X17726190Y6550000D01*
X17750000Y6621428D01*
X17797619Y6669047D01*
X17845238Y6692857D01*
X17940476Y6716666D01*
X18011904Y6716666D01*
X18107142Y6692857D01*
X18154761Y6669047D01*
X18202380Y6621428D01*
X18226190Y6550000D01*
X18226190Y6430952D01*
X17940476Y7002380D02*
X17916666Y6954761D01*
X17892857Y6930952D01*
X17845238Y6907142D01*
X17821428Y6907142D01*
X17773809Y6930952D01*
X17750000Y6954761D01*
X17726190Y7002380D01*
X17726190Y7097619D01*
X17750000Y7145238D01*
X17773809Y7169047D01*
X17821428Y7192857D01*
X17845238Y7192857D01*
X17892857Y7169047D01*
X17916666Y7145238D01*
X17940476Y7097619D01*
X17940476Y7002380D01*
X17964285Y6954761D01*
X17988095Y6930952D01*
X18035714Y6907142D01*
X18130952Y6907142D01*
X18178571Y6930952D01*
X18202380Y6954761D01*
X18226190Y7002380D01*
X18226190Y7097619D01*
X18202380Y7145238D01*
X18178571Y7169047D01*
X18130952Y7192857D01*
X18035714Y7192857D01*
X17988095Y7169047D01*
X17964285Y7145238D01*
X17940476Y7097619D01*
X10044952Y7393809D02*
X10044952Y7893809D01*
X10164000Y7893809D01*
X10235428Y7870000D01*
X10283047Y7822380D01*
X10306857Y7774761D01*
X10330666Y7679523D01*
X10330666Y7608095D01*
X10306857Y7512857D01*
X10283047Y7465238D01*
X10235428Y7417619D01*
X10164000Y7393809D01*
X10044952Y7393809D01*
X10497333Y7893809D02*
X10830666Y7893809D01*
X10616380Y7393809D01*
X27514571Y-1595333D02*
X27538380Y-1619142D01*
X27562190Y-1690571D01*
X27562190Y-1738190D01*
X27538380Y-1809619D01*
X27490761Y-1857238D01*
X27443142Y-1881047D01*
X27347904Y-1904857D01*
X27276476Y-1904857D01*
X27181238Y-1881047D01*
X27133619Y-1857238D01*
X27086000Y-1809619D01*
X27062190Y-1738190D01*
X27062190Y-1690571D01*
X27086000Y-1619142D01*
X27109809Y-1595333D01*
X27062190Y-1428666D02*
X27062190Y-1095333D01*
X27562190Y-1309619D01*
X26586666Y6171428D02*
X26562857Y6147619D01*
X26491428Y6123809D01*
X26443809Y6123809D01*
X26372380Y6147619D01*
X26324761Y6195238D01*
X26300952Y6242857D01*
X26277142Y6338095D01*
X26277142Y6409523D01*
X26300952Y6504761D01*
X26324761Y6552380D01*
X26372380Y6600000D01*
X26443809Y6623809D01*
X26491428Y6623809D01*
X26562857Y6600000D01*
X26586666Y6576190D01*
X27015238Y6623809D02*
X26920000Y6623809D01*
X26872380Y6600000D01*
X26848571Y6576190D01*
X26800952Y6504761D01*
X26777142Y6409523D01*
X26777142Y6219047D01*
X26800952Y6171428D01*
X26824761Y6147619D01*
X26872380Y6123809D01*
X26967619Y6123809D01*
X27015238Y6147619D01*
X27039047Y6171428D01*
X27062857Y6219047D01*
X27062857Y6338095D01*
X27039047Y6385714D01*
X27015238Y6409523D01*
X26967619Y6433333D01*
X26872380Y6433333D01*
X26824761Y6409523D01*
X26800952Y6385714D01*
X26777142Y6338095D01*
X9068571Y-1353333D02*
X9092380Y-1377142D01*
X9116190Y-1448571D01*
X9116190Y-1496190D01*
X9092380Y-1567619D01*
X9044761Y-1615238D01*
X8997142Y-1639047D01*
X8901904Y-1662857D01*
X8830476Y-1662857D01*
X8735238Y-1639047D01*
X8687619Y-1615238D01*
X8640000Y-1567619D01*
X8616190Y-1496190D01*
X8616190Y-1448571D01*
X8640000Y-1377142D01*
X8663809Y-1353333D01*
X8616190Y-900952D02*
X8616190Y-1139047D01*
X8854285Y-1162857D01*
X8830476Y-1139047D01*
X8806666Y-1091428D01*
X8806666Y-972380D01*
X8830476Y-924761D01*
X8854285Y-900952D01*
X8901904Y-877142D01*
X9020952Y-877142D01*
X9068571Y-900952D01*
X9092380Y-924761D01*
X9116190Y-972380D01*
X9116190Y-1091428D01*
X9092380Y-1139047D01*
X9068571Y-1162857D01*
X12604666Y7441428D02*
X12580857Y7417619D01*
X12509428Y7393809D01*
X12461809Y7393809D01*
X12390380Y7417619D01*
X12342761Y7465238D01*
X12318952Y7512857D01*
X12295142Y7608095D01*
X12295142Y7679523D01*
X12318952Y7774761D01*
X12342761Y7822380D01*
X12390380Y7870000D01*
X12461809Y7893809D01*
X12509428Y7893809D01*
X12580857Y7870000D01*
X12604666Y7846190D01*
X13033238Y7727142D02*
X13033238Y7393809D01*
X12914190Y7917619D02*
X12795142Y7560476D01*
X13104666Y7560476D01*
X19220666Y2361428D02*
X19196857Y2337619D01*
X19125428Y2313809D01*
X19077809Y2313809D01*
X19006380Y2337619D01*
X18958761Y2385238D01*
X18934952Y2432857D01*
X18911142Y2528095D01*
X18911142Y2599523D01*
X18934952Y2694761D01*
X18958761Y2742380D01*
X19006380Y2790000D01*
X19077809Y2813809D01*
X19125428Y2813809D01*
X19196857Y2790000D01*
X19220666Y2766190D01*
X19387333Y2813809D02*
X19696857Y2813809D01*
X19530190Y2623333D01*
X19601619Y2623333D01*
X19649238Y2599523D01*
X19673047Y2575714D01*
X19696857Y2528095D01*
X19696857Y2409047D01*
X19673047Y2361428D01*
X19649238Y2337619D01*
X19601619Y2313809D01*
X19458761Y2313809D01*
X19411142Y2337619D01*
X19387333Y2361428D01*
X18808666Y571428D02*
X18784857Y547619D01*
X18713428Y523809D01*
X18665809Y523809D01*
X18594380Y547619D01*
X18546761Y595238D01*
X18522952Y642857D01*
X18499142Y738095D01*
X18499142Y809523D01*
X18522952Y904761D01*
X18546761Y952380D01*
X18594380Y1000000D01*
X18665809Y1023809D01*
X18713428Y1023809D01*
X18784857Y1000000D01*
X18808666Y976190D01*
X18999142Y976190D02*
X19022952Y1000000D01*
X19070571Y1023809D01*
X19189619Y1023809D01*
X19237238Y1000000D01*
X19261047Y976190D01*
X19284857Y928571D01*
X19284857Y880952D01*
X19261047Y809523D01*
X18975333Y523809D01*
X19284857Y523809D01*
X23030666Y-2210571D02*
X23006857Y-2234380D01*
X22935428Y-2258190D01*
X22887809Y-2258190D01*
X22816380Y-2234380D01*
X22768761Y-2186761D01*
X22744952Y-2139142D01*
X22721142Y-2043904D01*
X22721142Y-1972476D01*
X22744952Y-1877238D01*
X22768761Y-1829619D01*
X22816380Y-1782000D01*
X22887809Y-1758190D01*
X22935428Y-1758190D01*
X23006857Y-1782000D01*
X23030666Y-1805809D01*
X23506857Y-2258190D02*
X23221142Y-2258190D01*
X23364000Y-2258190D02*
X23364000Y-1758190D01*
X23316380Y-1829619D01*
X23268761Y-1877238D01*
X23221142Y-1901047D01*
D17*
G36*
X55500000Y2127000D02*
G01*
X44127000Y2127000D01*
X44127000Y4873000D01*
X55500000Y4873000D01*
X55500000Y2127000D01*
X55500000Y2127000D01*
G37*
X55500000Y2127000D02*
X44127000Y2127000D01*
X44127000Y4873000D01*
X55500000Y4873000D01*
X55500000Y2127000D01*
M02*
