G04 #@! TF.GenerationSoftware,KiCad,Pcbnew,5.1.4+dfsg1-1~bpo10+1*
G04 #@! TF.CreationDate,2019-10-02T20:55:17+02:00*
G04 #@! TF.ProjectId,iak-swr-meter,69616b2d-7377-4722-9d6d-657465722e6b,rev?*
G04 #@! TF.SameCoordinates,Original*
G04 #@! TF.FileFunction,Copper,L2,Bot*
G04 #@! TF.FilePolarity,Positive*
%FSLAX46Y46*%
G04 Gerber Fmt 4.6, Leading zero omitted, Abs format (unit mm)*
G04 Created by KiCad (PCBNEW 5.1.4+dfsg1-1~bpo10+1) date 2019-10-02 20:55:17*
%MOMM*%
%LPD*%
G04 APERTURE LIST*
%ADD10C,2.500000*%
%ADD11C,2.000000*%
%ADD12O,1.727200X1.727200*%
%ADD13R,1.727200X1.727200*%
%ADD14O,1.600000X1.600000*%
%ADD15C,1.600000*%
%ADD16C,0.600000*%
%ADD17C,6.400000*%
%ADD18O,2.032000X1.727200*%
%ADD19R,2.032000X1.727200*%
%ADD20C,1.000000*%
%ADD21R,2.000000X2.000000*%
%ADD22C,0.800000*%
%ADD23C,0.500000*%
%ADD24C,1.000000*%
%ADD25C,0.254000*%
G04 APERTURE END LIST*
D10*
X41460000Y15040000D03*
X36380000Y15040000D03*
D11*
X38920000Y12500000D03*
D12*
X36380000Y9960000D03*
X36380000Y12500000D03*
X38920000Y9960000D03*
X41460000Y9960000D03*
X41460000Y12500000D03*
X44000000Y9960000D03*
D13*
X44000000Y12500000D03*
D14*
X54000000Y8500000D03*
D15*
X54000000Y-1500000D03*
D16*
X52197056Y13197056D03*
X50500000Y13900000D03*
X48802944Y13197056D03*
X48100000Y11500000D03*
X48802944Y9802944D03*
X50500000Y9100000D03*
X52197056Y9802944D03*
X52900000Y11500000D03*
D17*
X50500000Y11500000D03*
D16*
X52197056Y-3302944D03*
X50500000Y-2600000D03*
X48802944Y-3302944D03*
X48100000Y-5000000D03*
X48802944Y-6697056D03*
X50500000Y-7400000D03*
X52197056Y-6697056D03*
X52900000Y-5000000D03*
D17*
X50500000Y-5000000D03*
D15*
X42272971Y-4772971D03*
X44394291Y176777D03*
X42449747Y4949747D03*
X37676777Y6894291D03*
X35201903Y2298097D03*
X32727029Y4772971D03*
D18*
X32500000Y10000000D03*
X32500000Y12540000D03*
D19*
X32500000Y15080000D03*
D18*
X16500000Y9920000D03*
X16500000Y12460000D03*
D19*
X16500000Y15000000D03*
D20*
X16672000Y1858000D03*
X16672000Y4858000D03*
X17872000Y4858000D03*
X17872000Y1858000D03*
D10*
X7460000Y9960000D03*
X12540000Y9960000D03*
X7460000Y15040000D03*
X12540000Y15040000D03*
D11*
X10000000Y12500000D03*
X26996400Y-5842000D03*
D21*
X21996400Y-5842000D03*
D22*
X22899998Y-3327400D03*
X18262600Y-1955800D03*
X18584608Y797710D03*
X25247600Y-3378200D03*
X15784800Y-5729000D03*
X15748000Y-2032000D03*
X23677246Y-7224943D03*
X18500000Y13000000D03*
X19500000Y13000000D03*
X20500000Y13000000D03*
X21500000Y13000000D03*
X22500000Y13000000D03*
X23500000Y13000000D03*
X24500000Y13000000D03*
X25500000Y13000000D03*
X26500000Y13000000D03*
X27500000Y13000000D03*
X28500000Y13000000D03*
X29500000Y13000000D03*
X30500000Y13000000D03*
X25500000Y8500000D03*
X24500000Y8500000D03*
X23500000Y8500000D03*
X22500000Y8500000D03*
X21500000Y8500000D03*
X20500000Y8500000D03*
X19500000Y8500000D03*
X18500000Y8500000D03*
X17500000Y8500000D03*
X26000000Y7000000D03*
X27000000Y7000000D03*
X28000000Y7000000D03*
X28500000Y12000000D03*
X28500000Y11000000D03*
X28500000Y10000000D03*
X28500000Y9000000D03*
X28500000Y8000000D03*
X28000000Y6000000D03*
X29000000Y5500000D03*
X30000000Y5500000D03*
X31000000Y6000000D03*
X22000000Y4000000D03*
X23000000Y4000000D03*
X24000000Y4000000D03*
X25000000Y4000000D03*
X11000000Y4500000D03*
X10000000Y4500000D03*
X12000000Y3000000D03*
X13000000Y3000000D03*
X14500000Y4500000D03*
X15500000Y4500000D03*
X16500000Y8000000D03*
X15500000Y8000000D03*
X14500000Y8500000D03*
X27500000Y16500000D03*
X26500000Y16500000D03*
X25500000Y16500000D03*
X22500000Y16500000D03*
X23500000Y16500000D03*
X24500000Y16500000D03*
X28500000Y16500000D03*
X29500000Y16500000D03*
X30500000Y16500000D03*
X20500000Y16500000D03*
X21500000Y16500000D03*
X18500000Y16500000D03*
X19500000Y16500000D03*
X17500000Y16500000D03*
X16500000Y16500000D03*
X15500000Y16500000D03*
X14500000Y16500000D03*
X31500000Y16500000D03*
X32500000Y16500000D03*
X33500000Y16500000D03*
X34500000Y16500000D03*
X34500000Y15500000D03*
X34500000Y14500000D03*
X34500000Y11000000D03*
X34500000Y10000000D03*
X34500000Y9000000D03*
X34500000Y8000000D03*
X33500000Y8000000D03*
X32500000Y8000000D03*
X31500000Y8000000D03*
X31000000Y7000000D03*
X40500000Y16500000D03*
X38500000Y16500000D03*
X44500000Y16500000D03*
X42500000Y16500000D03*
X46500000Y16500000D03*
X48500000Y16500000D03*
X52500000Y16500000D03*
X50500000Y16500000D03*
X6000000Y6500000D03*
X6000000Y2500000D03*
X6000000Y12500000D03*
X6000000Y4500000D03*
D23*
X22910800Y-3338202D02*
X22899998Y-3327400D01*
X21996400Y-5842000D02*
X22910800Y-4927600D01*
X22910800Y-4927600D02*
X22910800Y-3338202D01*
X21996400Y-5689600D02*
X18262600Y-1955800D01*
X21996400Y-5842000D02*
X21996400Y-5689600D01*
D24*
X26996400Y-5842000D02*
X26996400Y-5127000D01*
X26996400Y-5127000D02*
X25247600Y-3378200D01*
X21071690Y797710D02*
X18584608Y797710D01*
X25247600Y-3378200D02*
X21071690Y797710D01*
X18345698Y558800D02*
X18584608Y797710D01*
X17119600Y558800D02*
X18345698Y558800D01*
X16672000Y1858000D02*
X16672000Y1006400D01*
X16672000Y1006400D02*
X17119600Y558800D01*
X18463200Y-8407400D02*
X16184799Y-6128999D01*
X26996400Y-5842000D02*
X24431000Y-8407400D01*
X16184799Y-6128999D02*
X15784800Y-5729000D01*
X24431000Y-8407400D02*
X18463200Y-8407400D01*
D23*
X15748000Y-2032000D02*
X15748000Y-2597685D01*
X20591748Y-7441433D02*
X23460756Y-7441433D01*
X15748000Y-2597685D02*
X20591748Y-7441433D01*
X23460756Y-7441433D02*
X23677246Y-7224943D01*
D24*
X42272971Y-3641601D02*
X42272971Y-4772971D01*
X42272971Y275459D02*
X42272971Y-3641601D01*
X44000000Y2002488D02*
X42272971Y275459D01*
X44000000Y9960000D02*
X44000000Y2002488D01*
D25*
G36*
X53014003Y17095913D02*
G01*
X53508427Y16946639D01*
X53964449Y16704168D01*
X54364680Y16377748D01*
X54693894Y15979797D01*
X54939537Y15525487D01*
X55092262Y15032115D01*
X55147991Y14501883D01*
X55148001Y14499060D01*
X55148000Y1627000D01*
X44737022Y1627000D01*
X44767744Y1684477D01*
X44767745Y1684478D01*
X44815034Y1840368D01*
X44827000Y1961864D01*
X44827000Y1961874D01*
X44831000Y2002488D01*
X44827000Y2043102D01*
X44827000Y9098491D01*
X44845954Y9114046D01*
X44885107Y9161754D01*
X49873000Y9161754D01*
X49873000Y9038246D01*
X49897095Y8917111D01*
X49944360Y8803004D01*
X50012977Y8700311D01*
X50100311Y8612977D01*
X50203004Y8544360D01*
X50317111Y8497095D01*
X50438246Y8473000D01*
X50561754Y8473000D01*
X50682889Y8497095D01*
X50796996Y8544360D01*
X50899689Y8612977D01*
X50987023Y8700311D01*
X51055640Y8803004D01*
X51102905Y8917111D01*
X51127000Y9038246D01*
X51127000Y9161754D01*
X51102905Y9282889D01*
X51055640Y9396996D01*
X50987023Y9499689D01*
X50899689Y9587023D01*
X50796996Y9655640D01*
X50682889Y9702905D01*
X50561754Y9727000D01*
X50438246Y9727000D01*
X50317111Y9702905D01*
X50203004Y9655640D01*
X50100311Y9587023D01*
X50012977Y9499689D01*
X49944360Y9396996D01*
X49897095Y9282889D01*
X49873000Y9161754D01*
X44885107Y9161754D01*
X44994737Y9295338D01*
X45105293Y9502173D01*
X45173372Y9726602D01*
X45186973Y9864698D01*
X48175944Y9864698D01*
X48175944Y9741190D01*
X48200039Y9620055D01*
X48247304Y9505948D01*
X48315921Y9403255D01*
X48403255Y9315921D01*
X48505948Y9247304D01*
X48620055Y9200039D01*
X48741190Y9175944D01*
X48864698Y9175944D01*
X48985833Y9200039D01*
X49099940Y9247304D01*
X49202633Y9315921D01*
X49289967Y9403255D01*
X49358584Y9505948D01*
X49405849Y9620055D01*
X49429944Y9741190D01*
X49429944Y9864698D01*
X51570056Y9864698D01*
X51570056Y9741190D01*
X51594151Y9620055D01*
X51641416Y9505948D01*
X51710033Y9403255D01*
X51797367Y9315921D01*
X51900060Y9247304D01*
X52014167Y9200039D01*
X52135302Y9175944D01*
X52258810Y9175944D01*
X52379945Y9200039D01*
X52494052Y9247304D01*
X52596745Y9315921D01*
X52684079Y9403255D01*
X52752696Y9505948D01*
X52799961Y9620055D01*
X52824056Y9741190D01*
X52824056Y9864698D01*
X52799961Y9985833D01*
X52752696Y10099940D01*
X52684079Y10202633D01*
X52596745Y10289967D01*
X52494052Y10358584D01*
X52379945Y10405849D01*
X52258810Y10429944D01*
X52135302Y10429944D01*
X52014167Y10405849D01*
X51900060Y10358584D01*
X51797367Y10289967D01*
X51710033Y10202633D01*
X51641416Y10099940D01*
X51594151Y9985833D01*
X51570056Y9864698D01*
X49429944Y9864698D01*
X49405849Y9985833D01*
X49358584Y10099940D01*
X49289967Y10202633D01*
X49202633Y10289967D01*
X49099940Y10358584D01*
X48985833Y10405849D01*
X48864698Y10429944D01*
X48741190Y10429944D01*
X48620055Y10405849D01*
X48505948Y10358584D01*
X48403255Y10289967D01*
X48315921Y10202633D01*
X48247304Y10099940D01*
X48200039Y9985833D01*
X48175944Y9864698D01*
X45186973Y9864698D01*
X45196360Y9960000D01*
X45173372Y10193398D01*
X45105293Y10417827D01*
X44994737Y10624662D01*
X44845954Y10805954D01*
X44664662Y10954737D01*
X44457827Y11065293D01*
X44233398Y11133372D01*
X44058481Y11150600D01*
X43941519Y11150600D01*
X43766602Y11133372D01*
X43542173Y11065293D01*
X43335338Y10954737D01*
X43154046Y10805954D01*
X43005263Y10624662D01*
X42894707Y10417827D01*
X42826628Y10193398D01*
X42803640Y9960000D01*
X42826628Y9726602D01*
X42894707Y9502173D01*
X43005263Y9295338D01*
X43154046Y9114046D01*
X43173000Y9098491D01*
X43173001Y5820312D01*
X43168168Y5825145D01*
X42983582Y5948481D01*
X42778481Y6033437D01*
X42560747Y6076747D01*
X42338747Y6076747D01*
X42121013Y6033437D01*
X41915912Y5948481D01*
X41731326Y5825145D01*
X41574349Y5668168D01*
X41451013Y5483582D01*
X41366057Y5278481D01*
X41322747Y5060747D01*
X41322747Y4838747D01*
X41366057Y4621013D01*
X41451013Y4415912D01*
X41574349Y4231326D01*
X41731326Y4074349D01*
X41915912Y3951013D01*
X42121013Y3866057D01*
X42338747Y3822747D01*
X42560747Y3822747D01*
X42778481Y3866057D01*
X42983582Y3951013D01*
X43168168Y4074349D01*
X43173001Y4079182D01*
X43173001Y2345043D01*
X42454958Y1627000D01*
X36108922Y1627000D01*
X36200637Y1764262D01*
X36285593Y1969363D01*
X36328903Y2187097D01*
X36328903Y2409097D01*
X36285593Y2626831D01*
X36200637Y2831932D01*
X36077301Y3016518D01*
X35920324Y3173495D01*
X35735738Y3296831D01*
X35530637Y3381787D01*
X35312903Y3425097D01*
X35090903Y3425097D01*
X34873169Y3381787D01*
X34668068Y3296831D01*
X34483482Y3173495D01*
X34326505Y3016518D01*
X34203169Y2831932D01*
X34118213Y2626831D01*
X34074903Y2409097D01*
X34074903Y2187097D01*
X34118213Y1969363D01*
X34203169Y1764262D01*
X34294884Y1627000D01*
X21089052Y1627000D01*
X21071690Y1628710D01*
X21054328Y1627000D01*
X18669253Y1627000D01*
X18699000Y1776548D01*
X18699000Y1939452D01*
X18667218Y2099227D01*
X18604877Y2249731D01*
X18514372Y2385181D01*
X18399181Y2500372D01*
X18263731Y2590877D01*
X18113227Y2653218D01*
X17953452Y2685000D01*
X17790548Y2685000D01*
X17630773Y2653218D01*
X17480269Y2590877D01*
X17344819Y2500372D01*
X17273330Y2428883D01*
X17259606Y2445606D01*
X17228049Y2471504D01*
X17199181Y2500372D01*
X17165234Y2523054D01*
X17133678Y2548952D01*
X17097677Y2568195D01*
X17063731Y2590877D01*
X17026013Y2606500D01*
X16990009Y2625745D01*
X16950942Y2637596D01*
X16913227Y2653218D01*
X16873188Y2661182D01*
X16834119Y2673034D01*
X16793492Y2677035D01*
X16753452Y2685000D01*
X16712624Y2685000D01*
X16672000Y2689001D01*
X16631376Y2685000D01*
X16590548Y2685000D01*
X16550508Y2677035D01*
X16509880Y2673034D01*
X16470809Y2661182D01*
X16430773Y2653218D01*
X16393061Y2637597D01*
X16353990Y2625745D01*
X16317982Y2606498D01*
X16280269Y2590877D01*
X16246327Y2568198D01*
X16210321Y2548952D01*
X16178762Y2523052D01*
X16144819Y2500372D01*
X16115952Y2471505D01*
X16084394Y2445606D01*
X16058496Y2414049D01*
X16029628Y2385181D01*
X16006946Y2351234D01*
X15981048Y2319678D01*
X15961805Y2283677D01*
X15939123Y2249731D01*
X15923500Y2212013D01*
X15904255Y2176009D01*
X15892404Y2136942D01*
X15876782Y2099227D01*
X15868818Y2059188D01*
X15856966Y2020119D01*
X15852965Y1979492D01*
X15845000Y1939452D01*
X15845000Y1627000D01*
X5352000Y1627000D01*
X5352000Y4939452D01*
X15845000Y4939452D01*
X15845000Y4776548D01*
X15876782Y4616773D01*
X15939123Y4466269D01*
X16029628Y4330819D01*
X16144819Y4215628D01*
X16280269Y4125123D01*
X16430773Y4062782D01*
X16590548Y4031000D01*
X16753452Y4031000D01*
X16913227Y4062782D01*
X17063731Y4125123D01*
X17199181Y4215628D01*
X17272000Y4288447D01*
X17344819Y4215628D01*
X17480269Y4125123D01*
X17630773Y4062782D01*
X17790548Y4031000D01*
X17953452Y4031000D01*
X18113227Y4062782D01*
X18263731Y4125123D01*
X18399181Y4215628D01*
X18514372Y4330819D01*
X18575859Y4422842D01*
X31328241Y4422842D01*
X31423425Y4156680D01*
X31568706Y3914201D01*
X31758501Y3704724D01*
X31985516Y3536300D01*
X32241027Y3415400D01*
X32376900Y3374183D01*
X32600029Y3496078D01*
X32600029Y4645971D01*
X32854029Y4645971D01*
X32854029Y3496078D01*
X33077158Y3374183D01*
X33343320Y3469367D01*
X33585799Y3614648D01*
X33795276Y3804443D01*
X33963700Y4031458D01*
X34084600Y4286969D01*
X34125817Y4422842D01*
X34003922Y4645971D01*
X32854029Y4645971D01*
X32600029Y4645971D01*
X31450136Y4645971D01*
X31328241Y4422842D01*
X18575859Y4422842D01*
X18604877Y4466269D01*
X18667218Y4616773D01*
X18699000Y4776548D01*
X18699000Y4939452D01*
X18667218Y5099227D01*
X18657330Y5123100D01*
X31328241Y5123100D01*
X31450136Y4899971D01*
X32600029Y4899971D01*
X32600029Y6049864D01*
X32854029Y6049864D01*
X32854029Y4899971D01*
X34003922Y4899971D01*
X34125817Y5123100D01*
X34030633Y5389262D01*
X33885352Y5631741D01*
X33695557Y5841218D01*
X33468542Y6009642D01*
X33213031Y6130542D01*
X33077158Y6171759D01*
X32854029Y6049864D01*
X32600029Y6049864D01*
X32376900Y6171759D01*
X32110738Y6076575D01*
X31868259Y5931294D01*
X31658782Y5741499D01*
X31490358Y5514484D01*
X31369458Y5258973D01*
X31328241Y5123100D01*
X18657330Y5123100D01*
X18604877Y5249731D01*
X18514372Y5385181D01*
X18399181Y5500372D01*
X18263731Y5590877D01*
X18113227Y5653218D01*
X17953452Y5685000D01*
X17790548Y5685000D01*
X17630773Y5653218D01*
X17480269Y5590877D01*
X17344819Y5500372D01*
X17272000Y5427553D01*
X17199181Y5500372D01*
X17063731Y5590877D01*
X16913227Y5653218D01*
X16753452Y5685000D01*
X16590548Y5685000D01*
X16430773Y5653218D01*
X16280269Y5590877D01*
X16144819Y5500372D01*
X16029628Y5385181D01*
X15939123Y5249731D01*
X15876782Y5099227D01*
X15845000Y4939452D01*
X5352000Y4939452D01*
X5352000Y7005291D01*
X36549777Y7005291D01*
X36549777Y6783291D01*
X36593087Y6565557D01*
X36678043Y6360456D01*
X36801379Y6175870D01*
X36958356Y6018893D01*
X37142942Y5895557D01*
X37348043Y5810601D01*
X37565777Y5767291D01*
X37787777Y5767291D01*
X38005511Y5810601D01*
X38210612Y5895557D01*
X38395198Y6018893D01*
X38552175Y6175870D01*
X38675511Y6360456D01*
X38760467Y6565557D01*
X38803777Y6783291D01*
X38803777Y7005291D01*
X38760467Y7223025D01*
X38675511Y7428126D01*
X38552175Y7612712D01*
X38395198Y7769689D01*
X38210612Y7893025D01*
X38005511Y7977981D01*
X37787777Y8021291D01*
X37565777Y8021291D01*
X37348043Y7977981D01*
X37142942Y7893025D01*
X36958356Y7769689D01*
X36801379Y7612712D01*
X36678043Y7428126D01*
X36593087Y7223025D01*
X36549777Y7005291D01*
X5352000Y7005291D01*
X5352000Y8646395D01*
X6326000Y8646395D01*
X6451914Y8356423D01*
X6784126Y8190567D01*
X7142312Y8092710D01*
X7512706Y8066611D01*
X7881075Y8113275D01*
X8233262Y8230906D01*
X8468086Y8356423D01*
X8594000Y8646395D01*
X7460000Y9780395D01*
X6326000Y8646395D01*
X5352000Y8646395D01*
X5352000Y9907294D01*
X5566611Y9907294D01*
X5613275Y9538925D01*
X5730906Y9186738D01*
X5856423Y8951914D01*
X6146395Y8826000D01*
X7280395Y9960000D01*
X7639605Y9960000D01*
X8773605Y8826000D01*
X9063577Y8951914D01*
X9229433Y9284126D01*
X9327290Y9642312D01*
X9346856Y9920000D01*
X15151240Y9920000D01*
X15174228Y9686602D01*
X15242307Y9462173D01*
X15352863Y9255338D01*
X15501646Y9074046D01*
X15682938Y8925263D01*
X15889773Y8814707D01*
X16114202Y8746628D01*
X16289119Y8729400D01*
X16710881Y8729400D01*
X16885798Y8746628D01*
X17110227Y8814707D01*
X17317062Y8925263D01*
X17498354Y9074046D01*
X17647137Y9255338D01*
X17757693Y9462173D01*
X17825772Y9686602D01*
X17848760Y9920000D01*
X17840881Y10000000D01*
X31151240Y10000000D01*
X31174228Y9766602D01*
X31242307Y9542173D01*
X31352863Y9335338D01*
X31501646Y9154046D01*
X31682938Y9005263D01*
X31889773Y8894707D01*
X32114202Y8826628D01*
X32289119Y8809400D01*
X32710881Y8809400D01*
X32885798Y8826628D01*
X33110227Y8894707D01*
X33317062Y9005263D01*
X33498354Y9154046D01*
X33647137Y9335338D01*
X33757693Y9542173D01*
X33825772Y9766602D01*
X33844820Y9960000D01*
X35183640Y9960000D01*
X35206628Y9726602D01*
X35274707Y9502173D01*
X35385263Y9295338D01*
X35534046Y9114046D01*
X35715338Y8965263D01*
X35922173Y8854707D01*
X36146602Y8786628D01*
X36321519Y8769400D01*
X36438481Y8769400D01*
X36613398Y8786628D01*
X36837827Y8854707D01*
X37044662Y8965263D01*
X37225954Y9114046D01*
X37374737Y9295338D01*
X37485293Y9502173D01*
X37553372Y9726602D01*
X37576360Y9960000D01*
X37723640Y9960000D01*
X37746628Y9726602D01*
X37814707Y9502173D01*
X37925263Y9295338D01*
X38074046Y9114046D01*
X38255338Y8965263D01*
X38462173Y8854707D01*
X38686602Y8786628D01*
X38861519Y8769400D01*
X38978481Y8769400D01*
X39153398Y8786628D01*
X39377827Y8854707D01*
X39584662Y8965263D01*
X39765954Y9114046D01*
X39914737Y9295338D01*
X40025293Y9502173D01*
X40093372Y9726602D01*
X40116360Y9960000D01*
X40263640Y9960000D01*
X40286628Y9726602D01*
X40354707Y9502173D01*
X40465263Y9295338D01*
X40614046Y9114046D01*
X40795338Y8965263D01*
X41002173Y8854707D01*
X41226602Y8786628D01*
X41401519Y8769400D01*
X41518481Y8769400D01*
X41693398Y8786628D01*
X41917827Y8854707D01*
X42124662Y8965263D01*
X42305954Y9114046D01*
X42454737Y9295338D01*
X42565293Y9502173D01*
X42633372Y9726602D01*
X42656360Y9960000D01*
X42633372Y10193398D01*
X42565293Y10417827D01*
X42454737Y10624662D01*
X42305954Y10805954D01*
X42124662Y10954737D01*
X41917827Y11065293D01*
X41693398Y11133372D01*
X41518481Y11150600D01*
X41401519Y11150600D01*
X41226602Y11133372D01*
X41002173Y11065293D01*
X40795338Y10954737D01*
X40614046Y10805954D01*
X40465263Y10624662D01*
X40354707Y10417827D01*
X40286628Y10193398D01*
X40263640Y9960000D01*
X40116360Y9960000D01*
X40093372Y10193398D01*
X40025293Y10417827D01*
X39914737Y10624662D01*
X39765954Y10805954D01*
X39584662Y10954737D01*
X39377827Y11065293D01*
X39153398Y11133372D01*
X38978481Y11150600D01*
X38861519Y11150600D01*
X38686602Y11133372D01*
X38462173Y11065293D01*
X38255338Y10954737D01*
X38074046Y10805954D01*
X37925263Y10624662D01*
X37814707Y10417827D01*
X37746628Y10193398D01*
X37723640Y9960000D01*
X37576360Y9960000D01*
X37553372Y10193398D01*
X37485293Y10417827D01*
X37374737Y10624662D01*
X37225954Y10805954D01*
X37044662Y10954737D01*
X36837827Y11065293D01*
X36613398Y11133372D01*
X36438481Y11150600D01*
X36321519Y11150600D01*
X36146602Y11133372D01*
X35922173Y11065293D01*
X35715338Y10954737D01*
X35534046Y10805954D01*
X35385263Y10624662D01*
X35274707Y10417827D01*
X35206628Y10193398D01*
X35183640Y9960000D01*
X33844820Y9960000D01*
X33848760Y10000000D01*
X33825772Y10233398D01*
X33757693Y10457827D01*
X33647137Y10664662D01*
X33498354Y10845954D01*
X33317062Y10994737D01*
X33110227Y11105293D01*
X32885798Y11173372D01*
X32710881Y11190600D01*
X32289119Y11190600D01*
X32114202Y11173372D01*
X31889773Y11105293D01*
X31682938Y10994737D01*
X31501646Y10845954D01*
X31352863Y10664662D01*
X31242307Y10457827D01*
X31174228Y10233398D01*
X31151240Y10000000D01*
X17840881Y10000000D01*
X17825772Y10153398D01*
X17757693Y10377827D01*
X17647137Y10584662D01*
X17498354Y10765954D01*
X17317062Y10914737D01*
X17110227Y11025293D01*
X16885798Y11093372D01*
X16710881Y11110600D01*
X16289119Y11110600D01*
X16114202Y11093372D01*
X15889773Y11025293D01*
X15682938Y10914737D01*
X15501646Y10765954D01*
X15352863Y10584662D01*
X15242307Y10377827D01*
X15174228Y10153398D01*
X15151240Y9920000D01*
X9346856Y9920000D01*
X9353389Y10012706D01*
X9306725Y10381075D01*
X9189094Y10733262D01*
X9063577Y10968086D01*
X8773605Y11094000D01*
X7639605Y9960000D01*
X7280395Y9960000D01*
X6146395Y11094000D01*
X5856423Y10968086D01*
X5690567Y10635874D01*
X5592710Y10277688D01*
X5566611Y9907294D01*
X5352000Y9907294D01*
X5352000Y11273605D01*
X6326000Y11273605D01*
X7460000Y10139605D01*
X8594000Y11273605D01*
X8468086Y11563577D01*
X8135874Y11729433D01*
X7777688Y11827290D01*
X7407294Y11853389D01*
X7038925Y11806725D01*
X6686738Y11689094D01*
X6451914Y11563577D01*
X6326000Y11273605D01*
X5352000Y11273605D01*
X5352000Y12630698D01*
X8673000Y12630698D01*
X8673000Y12369302D01*
X8723996Y12112928D01*
X8824028Y11871430D01*
X8969252Y11654087D01*
X9154087Y11469252D01*
X9371430Y11324028D01*
X9612928Y11223996D01*
X9869302Y11173000D01*
X10130698Y11173000D01*
X10387072Y11223996D01*
X10628570Y11324028D01*
X10845913Y11469252D01*
X11030748Y11654087D01*
X11175972Y11871430D01*
X11276004Y12112928D01*
X11327000Y12369302D01*
X11327000Y12460000D01*
X15151240Y12460000D01*
X15174228Y12226602D01*
X15242307Y12002173D01*
X15352863Y11795338D01*
X15501646Y11614046D01*
X15682938Y11465263D01*
X15889773Y11354707D01*
X16114202Y11286628D01*
X16289119Y11269400D01*
X16710881Y11269400D01*
X16885798Y11286628D01*
X17110227Y11354707D01*
X17317062Y11465263D01*
X17498354Y11614046D01*
X17647137Y11795338D01*
X17757693Y12002173D01*
X17825772Y12226602D01*
X17848760Y12460000D01*
X17840881Y12540000D01*
X31151240Y12540000D01*
X31174228Y12306602D01*
X31242307Y12082173D01*
X31352863Y11875338D01*
X31501646Y11694046D01*
X31682938Y11545263D01*
X31889773Y11434707D01*
X32114202Y11366628D01*
X32289119Y11349400D01*
X32710881Y11349400D01*
X32885798Y11366628D01*
X33110227Y11434707D01*
X33317062Y11545263D01*
X33498354Y11694046D01*
X33647137Y11875338D01*
X33757693Y12082173D01*
X33825772Y12306602D01*
X33844820Y12500000D01*
X35183640Y12500000D01*
X35206628Y12266602D01*
X35274707Y12042173D01*
X35385263Y11835338D01*
X35534046Y11654046D01*
X35715338Y11505263D01*
X35922173Y11394707D01*
X36146602Y11326628D01*
X36321519Y11309400D01*
X36438481Y11309400D01*
X36613398Y11326628D01*
X36837827Y11394707D01*
X37044662Y11505263D01*
X37225954Y11654046D01*
X37374737Y11835338D01*
X37485293Y12042173D01*
X37553372Y12266602D01*
X37576360Y12500000D01*
X37563488Y12630698D01*
X37593000Y12630698D01*
X37593000Y12369302D01*
X37643996Y12112928D01*
X37744028Y11871430D01*
X37889252Y11654087D01*
X38074087Y11469252D01*
X38291430Y11324028D01*
X38532928Y11223996D01*
X38789302Y11173000D01*
X39050698Y11173000D01*
X39307072Y11223996D01*
X39548570Y11324028D01*
X39765913Y11469252D01*
X39950748Y11654087D01*
X40095972Y11871430D01*
X40196004Y12112928D01*
X40247000Y12369302D01*
X40247000Y12500000D01*
X40263640Y12500000D01*
X40286628Y12266602D01*
X40354707Y12042173D01*
X40465263Y11835338D01*
X40614046Y11654046D01*
X40795338Y11505263D01*
X41002173Y11394707D01*
X41226602Y11326628D01*
X41401519Y11309400D01*
X41518481Y11309400D01*
X41693398Y11326628D01*
X41917827Y11394707D01*
X42124662Y11505263D01*
X42305954Y11654046D01*
X42454737Y11835338D01*
X42565293Y12042173D01*
X42633372Y12266602D01*
X42656360Y12500000D01*
X42633372Y12733398D01*
X42565293Y12957827D01*
X42454737Y13164662D01*
X42305954Y13345954D01*
X42303145Y13348259D01*
X42331845Y13363600D01*
X42807818Y13363600D01*
X42807818Y11636400D01*
X42814132Y11572297D01*
X42832830Y11510657D01*
X42863194Y11453850D01*
X42904057Y11404057D01*
X42953850Y11363194D01*
X43010657Y11332830D01*
X43072297Y11314132D01*
X43136400Y11307818D01*
X44863600Y11307818D01*
X44927703Y11314132D01*
X44989343Y11332830D01*
X45046150Y11363194D01*
X45095943Y11404057D01*
X45136806Y11453850D01*
X45167170Y11510657D01*
X45182669Y11561754D01*
X47473000Y11561754D01*
X47473000Y11438246D01*
X47497095Y11317111D01*
X47544360Y11203004D01*
X47612977Y11100311D01*
X47700311Y11012977D01*
X47803004Y10944360D01*
X47917111Y10897095D01*
X48038246Y10873000D01*
X48161754Y10873000D01*
X48282889Y10897095D01*
X48396996Y10944360D01*
X48499689Y11012977D01*
X48587023Y11100311D01*
X48655640Y11203004D01*
X48702905Y11317111D01*
X48727000Y11438246D01*
X48727000Y11561754D01*
X52273000Y11561754D01*
X52273000Y11438246D01*
X52297095Y11317111D01*
X52344360Y11203004D01*
X52412977Y11100311D01*
X52500311Y11012977D01*
X52603004Y10944360D01*
X52717111Y10897095D01*
X52838246Y10873000D01*
X52961754Y10873000D01*
X53082889Y10897095D01*
X53196996Y10944360D01*
X53299689Y11012977D01*
X53387023Y11100311D01*
X53455640Y11203004D01*
X53502905Y11317111D01*
X53527000Y11438246D01*
X53527000Y11561754D01*
X53502905Y11682889D01*
X53455640Y11796996D01*
X53387023Y11899689D01*
X53299689Y11987023D01*
X53196996Y12055640D01*
X53082889Y12102905D01*
X52961754Y12127000D01*
X52838246Y12127000D01*
X52717111Y12102905D01*
X52603004Y12055640D01*
X52500311Y11987023D01*
X52412977Y11899689D01*
X52344360Y11796996D01*
X52297095Y11682889D01*
X52273000Y11561754D01*
X48727000Y11561754D01*
X48702905Y11682889D01*
X48655640Y11796996D01*
X48587023Y11899689D01*
X48499689Y11987023D01*
X48396996Y12055640D01*
X48282889Y12102905D01*
X48161754Y12127000D01*
X48038246Y12127000D01*
X47917111Y12102905D01*
X47803004Y12055640D01*
X47700311Y11987023D01*
X47612977Y11899689D01*
X47544360Y11796996D01*
X47497095Y11682889D01*
X47473000Y11561754D01*
X45182669Y11561754D01*
X45185868Y11572297D01*
X45192182Y11636400D01*
X45192182Y13258810D01*
X48175944Y13258810D01*
X48175944Y13135302D01*
X48200039Y13014167D01*
X48247304Y12900060D01*
X48315921Y12797367D01*
X48403255Y12710033D01*
X48505948Y12641416D01*
X48620055Y12594151D01*
X48741190Y12570056D01*
X48864698Y12570056D01*
X48985833Y12594151D01*
X49099940Y12641416D01*
X49202633Y12710033D01*
X49289967Y12797367D01*
X49358584Y12900060D01*
X49405849Y13014167D01*
X49429944Y13135302D01*
X49429944Y13258810D01*
X51570056Y13258810D01*
X51570056Y13135302D01*
X51594151Y13014167D01*
X51641416Y12900060D01*
X51710033Y12797367D01*
X51797367Y12710033D01*
X51900060Y12641416D01*
X52014167Y12594151D01*
X52135302Y12570056D01*
X52258810Y12570056D01*
X52379945Y12594151D01*
X52494052Y12641416D01*
X52596745Y12710033D01*
X52684079Y12797367D01*
X52752696Y12900060D01*
X52799961Y13014167D01*
X52824056Y13135302D01*
X52824056Y13258810D01*
X52799961Y13379945D01*
X52752696Y13494052D01*
X52684079Y13596745D01*
X52596745Y13684079D01*
X52494052Y13752696D01*
X52379945Y13799961D01*
X52258810Y13824056D01*
X52135302Y13824056D01*
X52014167Y13799961D01*
X51900060Y13752696D01*
X51797367Y13684079D01*
X51710033Y13596745D01*
X51641416Y13494052D01*
X51594151Y13379945D01*
X51570056Y13258810D01*
X49429944Y13258810D01*
X49405849Y13379945D01*
X49358584Y13494052D01*
X49289967Y13596745D01*
X49202633Y13684079D01*
X49099940Y13752696D01*
X48985833Y13799961D01*
X48864698Y13824056D01*
X48741190Y13824056D01*
X48620055Y13799961D01*
X48505948Y13752696D01*
X48403255Y13684079D01*
X48315921Y13596745D01*
X48247304Y13494052D01*
X48200039Y13379945D01*
X48175944Y13258810D01*
X45192182Y13258810D01*
X45192182Y13363600D01*
X45185868Y13427703D01*
X45167170Y13489343D01*
X45136806Y13546150D01*
X45095943Y13595943D01*
X45046150Y13636806D01*
X44989343Y13667170D01*
X44927703Y13685868D01*
X44863600Y13692182D01*
X43136400Y13692182D01*
X43072297Y13685868D01*
X43010657Y13667170D01*
X42953850Y13636806D01*
X42904057Y13595943D01*
X42863194Y13546150D01*
X42832830Y13489343D01*
X42814132Y13427703D01*
X42807818Y13363600D01*
X42331845Y13363600D01*
X42468086Y13436423D01*
X42594000Y13726395D01*
X41460000Y14860395D01*
X40326000Y13726395D01*
X40451914Y13436423D01*
X40621262Y13351876D01*
X40614046Y13345954D01*
X40465263Y13164662D01*
X40354707Y12957827D01*
X40286628Y12733398D01*
X40263640Y12500000D01*
X40247000Y12500000D01*
X40247000Y12630698D01*
X40196004Y12887072D01*
X40095972Y13128570D01*
X39950748Y13345913D01*
X39765913Y13530748D01*
X39548570Y13675972D01*
X39307072Y13776004D01*
X39050698Y13827000D01*
X38789302Y13827000D01*
X38532928Y13776004D01*
X38291430Y13675972D01*
X38074087Y13530748D01*
X37889252Y13345913D01*
X37744028Y13128570D01*
X37643996Y12887072D01*
X37593000Y12630698D01*
X37563488Y12630698D01*
X37553372Y12733398D01*
X37485293Y12957827D01*
X37374737Y13164662D01*
X37225954Y13345954D01*
X37223145Y13348259D01*
X37388086Y13436423D01*
X37514000Y13726395D01*
X36380000Y14860395D01*
X35246000Y13726395D01*
X35371914Y13436423D01*
X35541262Y13351876D01*
X35534046Y13345954D01*
X35385263Y13164662D01*
X35274707Y12957827D01*
X35206628Y12733398D01*
X35183640Y12500000D01*
X33844820Y12500000D01*
X33848760Y12540000D01*
X33825772Y12773398D01*
X33757693Y12997827D01*
X33647137Y13204662D01*
X33498354Y13385954D01*
X33317062Y13534737D01*
X33110227Y13645293D01*
X32885798Y13713372D01*
X32710881Y13730600D01*
X32289119Y13730600D01*
X32114202Y13713372D01*
X31889773Y13645293D01*
X31682938Y13534737D01*
X31501646Y13385954D01*
X31352863Y13204662D01*
X31242307Y12997827D01*
X31174228Y12773398D01*
X31151240Y12540000D01*
X17840881Y12540000D01*
X17825772Y12693398D01*
X17757693Y12917827D01*
X17647137Y13124662D01*
X17498354Y13305954D01*
X17317062Y13454737D01*
X17110227Y13565293D01*
X16885798Y13633372D01*
X16710881Y13650600D01*
X16289119Y13650600D01*
X16114202Y13633372D01*
X15889773Y13565293D01*
X15682938Y13454737D01*
X15501646Y13305954D01*
X15352863Y13124662D01*
X15242307Y12917827D01*
X15174228Y12693398D01*
X15151240Y12460000D01*
X11327000Y12460000D01*
X11327000Y12630698D01*
X11276004Y12887072D01*
X11175972Y13128570D01*
X11030748Y13345913D01*
X10845913Y13530748D01*
X10628570Y13675972D01*
X10387072Y13776004D01*
X10130698Y13827000D01*
X9869302Y13827000D01*
X9612928Y13776004D01*
X9371430Y13675972D01*
X9154087Y13530748D01*
X8969252Y13345913D01*
X8824028Y13128570D01*
X8723996Y12887072D01*
X8673000Y12630698D01*
X5352000Y12630698D01*
X5352000Y13726395D01*
X6326000Y13726395D01*
X6451914Y13436423D01*
X6784126Y13270567D01*
X7142312Y13172710D01*
X7512706Y13146611D01*
X7881075Y13193275D01*
X8233262Y13310906D01*
X8468086Y13436423D01*
X8594000Y13726395D01*
X7460000Y14860395D01*
X6326000Y13726395D01*
X5352000Y13726395D01*
X5352000Y14482785D01*
X5404087Y15014003D01*
X5553361Y15508427D01*
X5795832Y15964449D01*
X5844395Y16023995D01*
X5690567Y15715874D01*
X5592710Y15357688D01*
X5566611Y14987294D01*
X5613275Y14618925D01*
X5730906Y14266738D01*
X5856423Y14031914D01*
X6146395Y13906000D01*
X7280395Y15040000D01*
X7639605Y15040000D01*
X8773605Y13906000D01*
X9063577Y14031914D01*
X9229433Y14364126D01*
X9327290Y14722312D01*
X9353389Y15092706D01*
X9306725Y15461075D01*
X9189094Y15813262D01*
X9162188Y15863600D01*
X15155418Y15863600D01*
X15155418Y14136400D01*
X15161732Y14072297D01*
X15180430Y14010657D01*
X15210794Y13953850D01*
X15251657Y13904057D01*
X15301450Y13863194D01*
X15358257Y13832830D01*
X15419897Y13814132D01*
X15484000Y13807818D01*
X17516000Y13807818D01*
X17580103Y13814132D01*
X17641743Y13832830D01*
X17698550Y13863194D01*
X17748343Y13904057D01*
X17789206Y13953850D01*
X17819570Y14010657D01*
X17838268Y14072297D01*
X17844582Y14136400D01*
X17844582Y15863600D01*
X17838268Y15927703D01*
X17833446Y15943600D01*
X31155418Y15943600D01*
X31155418Y14216400D01*
X31161732Y14152297D01*
X31180430Y14090657D01*
X31210794Y14033850D01*
X31251657Y13984057D01*
X31301450Y13943194D01*
X31358257Y13912830D01*
X31419897Y13894132D01*
X31484000Y13887818D01*
X33516000Y13887818D01*
X33580103Y13894132D01*
X33641743Y13912830D01*
X33698550Y13943194D01*
X33748343Y13984057D01*
X33789206Y14033850D01*
X33819570Y14090657D01*
X33838268Y14152297D01*
X33844582Y14216400D01*
X33844582Y14987294D01*
X34486611Y14987294D01*
X34533275Y14618925D01*
X34650906Y14266738D01*
X34776423Y14031914D01*
X35066395Y13906000D01*
X36200395Y15040000D01*
X36559605Y15040000D01*
X37693605Y13906000D01*
X37983577Y14031914D01*
X38149433Y14364126D01*
X38247290Y14722312D01*
X38265961Y14987294D01*
X39566611Y14987294D01*
X39613275Y14618925D01*
X39730906Y14266738D01*
X39856423Y14031914D01*
X40146395Y13906000D01*
X41280395Y15040000D01*
X41639605Y15040000D01*
X42773605Y13906000D01*
X42902002Y13961754D01*
X49873000Y13961754D01*
X49873000Y13838246D01*
X49897095Y13717111D01*
X49944360Y13603004D01*
X50012977Y13500311D01*
X50100311Y13412977D01*
X50203004Y13344360D01*
X50317111Y13297095D01*
X50438246Y13273000D01*
X50561754Y13273000D01*
X50682889Y13297095D01*
X50796996Y13344360D01*
X50899689Y13412977D01*
X50987023Y13500311D01*
X51055640Y13603004D01*
X51102905Y13717111D01*
X51127000Y13838246D01*
X51127000Y13961754D01*
X51102905Y14082889D01*
X51055640Y14196996D01*
X50987023Y14299689D01*
X50899689Y14387023D01*
X50796996Y14455640D01*
X50682889Y14502905D01*
X50561754Y14527000D01*
X50438246Y14527000D01*
X50317111Y14502905D01*
X50203004Y14455640D01*
X50100311Y14387023D01*
X50012977Y14299689D01*
X49944360Y14196996D01*
X49897095Y14082889D01*
X49873000Y13961754D01*
X42902002Y13961754D01*
X43063577Y14031914D01*
X43229433Y14364126D01*
X43327290Y14722312D01*
X43353389Y15092706D01*
X43306725Y15461075D01*
X43189094Y15813262D01*
X43063577Y16048086D01*
X42773605Y16174000D01*
X41639605Y15040000D01*
X41280395Y15040000D01*
X40146395Y16174000D01*
X39856423Y16048086D01*
X39690567Y15715874D01*
X39592710Y15357688D01*
X39566611Y14987294D01*
X38265961Y14987294D01*
X38273389Y15092706D01*
X38226725Y15461075D01*
X38109094Y15813262D01*
X37983577Y16048086D01*
X37693605Y16174000D01*
X36559605Y15040000D01*
X36200395Y15040000D01*
X35066395Y16174000D01*
X34776423Y16048086D01*
X34610567Y15715874D01*
X34512710Y15357688D01*
X34486611Y14987294D01*
X33844582Y14987294D01*
X33844582Y15943600D01*
X33838268Y16007703D01*
X33819570Y16069343D01*
X33789206Y16126150D01*
X33748343Y16175943D01*
X33698550Y16216806D01*
X33641743Y16247170D01*
X33580103Y16265868D01*
X33516000Y16272182D01*
X31484000Y16272182D01*
X31419897Y16265868D01*
X31358257Y16247170D01*
X31301450Y16216806D01*
X31251657Y16175943D01*
X31210794Y16126150D01*
X31180430Y16069343D01*
X31161732Y16007703D01*
X31155418Y15943600D01*
X17833446Y15943600D01*
X17819570Y15989343D01*
X17789206Y16046150D01*
X17748343Y16095943D01*
X17698550Y16136806D01*
X17641743Y16167170D01*
X17580103Y16185868D01*
X17516000Y16192182D01*
X15484000Y16192182D01*
X15419897Y16185868D01*
X15358257Y16167170D01*
X15301450Y16136806D01*
X15251657Y16095943D01*
X15210794Y16046150D01*
X15180430Y15989343D01*
X15161732Y15927703D01*
X15155418Y15863600D01*
X9162188Y15863600D01*
X9063577Y16048086D01*
X8773605Y16174000D01*
X7639605Y15040000D01*
X7280395Y15040000D01*
X7266253Y15054143D01*
X7445858Y15233748D01*
X7460000Y15219605D01*
X8594000Y16353605D01*
X35246000Y16353605D01*
X36380000Y15219605D01*
X37514000Y16353605D01*
X40326000Y16353605D01*
X41460000Y15219605D01*
X42594000Y16353605D01*
X42468086Y16643577D01*
X42135874Y16809433D01*
X41777688Y16907290D01*
X41407294Y16933389D01*
X41038925Y16886725D01*
X40686738Y16769094D01*
X40451914Y16643577D01*
X40326000Y16353605D01*
X37514000Y16353605D01*
X37388086Y16643577D01*
X37055874Y16809433D01*
X36697688Y16907290D01*
X36327294Y16933389D01*
X35958925Y16886725D01*
X35606738Y16769094D01*
X35371914Y16643577D01*
X35246000Y16353605D01*
X8594000Y16353605D01*
X8468086Y16643577D01*
X8135874Y16809433D01*
X7777688Y16907290D01*
X7407294Y16933389D01*
X7038925Y16886725D01*
X6686738Y16769094D01*
X6473012Y16654854D01*
X6520203Y16693894D01*
X6974513Y16939537D01*
X7467885Y17092262D01*
X7998117Y17147991D01*
X8000653Y17148000D01*
X52482785Y17148000D01*
X53014003Y17095913D01*
X53014003Y17095913D01*
G37*
X53014003Y17095913D02*
X53508427Y16946639D01*
X53964449Y16704168D01*
X54364680Y16377748D01*
X54693894Y15979797D01*
X54939537Y15525487D01*
X55092262Y15032115D01*
X55147991Y14501883D01*
X55148001Y14499060D01*
X55148000Y1627000D01*
X44737022Y1627000D01*
X44767744Y1684477D01*
X44767745Y1684478D01*
X44815034Y1840368D01*
X44827000Y1961864D01*
X44827000Y1961874D01*
X44831000Y2002488D01*
X44827000Y2043102D01*
X44827000Y9098491D01*
X44845954Y9114046D01*
X44885107Y9161754D01*
X49873000Y9161754D01*
X49873000Y9038246D01*
X49897095Y8917111D01*
X49944360Y8803004D01*
X50012977Y8700311D01*
X50100311Y8612977D01*
X50203004Y8544360D01*
X50317111Y8497095D01*
X50438246Y8473000D01*
X50561754Y8473000D01*
X50682889Y8497095D01*
X50796996Y8544360D01*
X50899689Y8612977D01*
X50987023Y8700311D01*
X51055640Y8803004D01*
X51102905Y8917111D01*
X51127000Y9038246D01*
X51127000Y9161754D01*
X51102905Y9282889D01*
X51055640Y9396996D01*
X50987023Y9499689D01*
X50899689Y9587023D01*
X50796996Y9655640D01*
X50682889Y9702905D01*
X50561754Y9727000D01*
X50438246Y9727000D01*
X50317111Y9702905D01*
X50203004Y9655640D01*
X50100311Y9587023D01*
X50012977Y9499689D01*
X49944360Y9396996D01*
X49897095Y9282889D01*
X49873000Y9161754D01*
X44885107Y9161754D01*
X44994737Y9295338D01*
X45105293Y9502173D01*
X45173372Y9726602D01*
X45186973Y9864698D01*
X48175944Y9864698D01*
X48175944Y9741190D01*
X48200039Y9620055D01*
X48247304Y9505948D01*
X48315921Y9403255D01*
X48403255Y9315921D01*
X48505948Y9247304D01*
X48620055Y9200039D01*
X48741190Y9175944D01*
X48864698Y9175944D01*
X48985833Y9200039D01*
X49099940Y9247304D01*
X49202633Y9315921D01*
X49289967Y9403255D01*
X49358584Y9505948D01*
X49405849Y9620055D01*
X49429944Y9741190D01*
X49429944Y9864698D01*
X51570056Y9864698D01*
X51570056Y9741190D01*
X51594151Y9620055D01*
X51641416Y9505948D01*
X51710033Y9403255D01*
X51797367Y9315921D01*
X51900060Y9247304D01*
X52014167Y9200039D01*
X52135302Y9175944D01*
X52258810Y9175944D01*
X52379945Y9200039D01*
X52494052Y9247304D01*
X52596745Y9315921D01*
X52684079Y9403255D01*
X52752696Y9505948D01*
X52799961Y9620055D01*
X52824056Y9741190D01*
X52824056Y9864698D01*
X52799961Y9985833D01*
X52752696Y10099940D01*
X52684079Y10202633D01*
X52596745Y10289967D01*
X52494052Y10358584D01*
X52379945Y10405849D01*
X52258810Y10429944D01*
X52135302Y10429944D01*
X52014167Y10405849D01*
X51900060Y10358584D01*
X51797367Y10289967D01*
X51710033Y10202633D01*
X51641416Y10099940D01*
X51594151Y9985833D01*
X51570056Y9864698D01*
X49429944Y9864698D01*
X49405849Y9985833D01*
X49358584Y10099940D01*
X49289967Y10202633D01*
X49202633Y10289967D01*
X49099940Y10358584D01*
X48985833Y10405849D01*
X48864698Y10429944D01*
X48741190Y10429944D01*
X48620055Y10405849D01*
X48505948Y10358584D01*
X48403255Y10289967D01*
X48315921Y10202633D01*
X48247304Y10099940D01*
X48200039Y9985833D01*
X48175944Y9864698D01*
X45186973Y9864698D01*
X45196360Y9960000D01*
X45173372Y10193398D01*
X45105293Y10417827D01*
X44994737Y10624662D01*
X44845954Y10805954D01*
X44664662Y10954737D01*
X44457827Y11065293D01*
X44233398Y11133372D01*
X44058481Y11150600D01*
X43941519Y11150600D01*
X43766602Y11133372D01*
X43542173Y11065293D01*
X43335338Y10954737D01*
X43154046Y10805954D01*
X43005263Y10624662D01*
X42894707Y10417827D01*
X42826628Y10193398D01*
X42803640Y9960000D01*
X42826628Y9726602D01*
X42894707Y9502173D01*
X43005263Y9295338D01*
X43154046Y9114046D01*
X43173000Y9098491D01*
X43173001Y5820312D01*
X43168168Y5825145D01*
X42983582Y5948481D01*
X42778481Y6033437D01*
X42560747Y6076747D01*
X42338747Y6076747D01*
X42121013Y6033437D01*
X41915912Y5948481D01*
X41731326Y5825145D01*
X41574349Y5668168D01*
X41451013Y5483582D01*
X41366057Y5278481D01*
X41322747Y5060747D01*
X41322747Y4838747D01*
X41366057Y4621013D01*
X41451013Y4415912D01*
X41574349Y4231326D01*
X41731326Y4074349D01*
X41915912Y3951013D01*
X42121013Y3866057D01*
X42338747Y3822747D01*
X42560747Y3822747D01*
X42778481Y3866057D01*
X42983582Y3951013D01*
X43168168Y4074349D01*
X43173001Y4079182D01*
X43173001Y2345043D01*
X42454958Y1627000D01*
X36108922Y1627000D01*
X36200637Y1764262D01*
X36285593Y1969363D01*
X36328903Y2187097D01*
X36328903Y2409097D01*
X36285593Y2626831D01*
X36200637Y2831932D01*
X36077301Y3016518D01*
X35920324Y3173495D01*
X35735738Y3296831D01*
X35530637Y3381787D01*
X35312903Y3425097D01*
X35090903Y3425097D01*
X34873169Y3381787D01*
X34668068Y3296831D01*
X34483482Y3173495D01*
X34326505Y3016518D01*
X34203169Y2831932D01*
X34118213Y2626831D01*
X34074903Y2409097D01*
X34074903Y2187097D01*
X34118213Y1969363D01*
X34203169Y1764262D01*
X34294884Y1627000D01*
X21089052Y1627000D01*
X21071690Y1628710D01*
X21054328Y1627000D01*
X18669253Y1627000D01*
X18699000Y1776548D01*
X18699000Y1939452D01*
X18667218Y2099227D01*
X18604877Y2249731D01*
X18514372Y2385181D01*
X18399181Y2500372D01*
X18263731Y2590877D01*
X18113227Y2653218D01*
X17953452Y2685000D01*
X17790548Y2685000D01*
X17630773Y2653218D01*
X17480269Y2590877D01*
X17344819Y2500372D01*
X17273330Y2428883D01*
X17259606Y2445606D01*
X17228049Y2471504D01*
X17199181Y2500372D01*
X17165234Y2523054D01*
X17133678Y2548952D01*
X17097677Y2568195D01*
X17063731Y2590877D01*
X17026013Y2606500D01*
X16990009Y2625745D01*
X16950942Y2637596D01*
X16913227Y2653218D01*
X16873188Y2661182D01*
X16834119Y2673034D01*
X16793492Y2677035D01*
X16753452Y2685000D01*
X16712624Y2685000D01*
X16672000Y2689001D01*
X16631376Y2685000D01*
X16590548Y2685000D01*
X16550508Y2677035D01*
X16509880Y2673034D01*
X16470809Y2661182D01*
X16430773Y2653218D01*
X16393061Y2637597D01*
X16353990Y2625745D01*
X16317982Y2606498D01*
X16280269Y2590877D01*
X16246327Y2568198D01*
X16210321Y2548952D01*
X16178762Y2523052D01*
X16144819Y2500372D01*
X16115952Y2471505D01*
X16084394Y2445606D01*
X16058496Y2414049D01*
X16029628Y2385181D01*
X16006946Y2351234D01*
X15981048Y2319678D01*
X15961805Y2283677D01*
X15939123Y2249731D01*
X15923500Y2212013D01*
X15904255Y2176009D01*
X15892404Y2136942D01*
X15876782Y2099227D01*
X15868818Y2059188D01*
X15856966Y2020119D01*
X15852965Y1979492D01*
X15845000Y1939452D01*
X15845000Y1627000D01*
X5352000Y1627000D01*
X5352000Y4939452D01*
X15845000Y4939452D01*
X15845000Y4776548D01*
X15876782Y4616773D01*
X15939123Y4466269D01*
X16029628Y4330819D01*
X16144819Y4215628D01*
X16280269Y4125123D01*
X16430773Y4062782D01*
X16590548Y4031000D01*
X16753452Y4031000D01*
X16913227Y4062782D01*
X17063731Y4125123D01*
X17199181Y4215628D01*
X17272000Y4288447D01*
X17344819Y4215628D01*
X17480269Y4125123D01*
X17630773Y4062782D01*
X17790548Y4031000D01*
X17953452Y4031000D01*
X18113227Y4062782D01*
X18263731Y4125123D01*
X18399181Y4215628D01*
X18514372Y4330819D01*
X18575859Y4422842D01*
X31328241Y4422842D01*
X31423425Y4156680D01*
X31568706Y3914201D01*
X31758501Y3704724D01*
X31985516Y3536300D01*
X32241027Y3415400D01*
X32376900Y3374183D01*
X32600029Y3496078D01*
X32600029Y4645971D01*
X32854029Y4645971D01*
X32854029Y3496078D01*
X33077158Y3374183D01*
X33343320Y3469367D01*
X33585799Y3614648D01*
X33795276Y3804443D01*
X33963700Y4031458D01*
X34084600Y4286969D01*
X34125817Y4422842D01*
X34003922Y4645971D01*
X32854029Y4645971D01*
X32600029Y4645971D01*
X31450136Y4645971D01*
X31328241Y4422842D01*
X18575859Y4422842D01*
X18604877Y4466269D01*
X18667218Y4616773D01*
X18699000Y4776548D01*
X18699000Y4939452D01*
X18667218Y5099227D01*
X18657330Y5123100D01*
X31328241Y5123100D01*
X31450136Y4899971D01*
X32600029Y4899971D01*
X32600029Y6049864D01*
X32854029Y6049864D01*
X32854029Y4899971D01*
X34003922Y4899971D01*
X34125817Y5123100D01*
X34030633Y5389262D01*
X33885352Y5631741D01*
X33695557Y5841218D01*
X33468542Y6009642D01*
X33213031Y6130542D01*
X33077158Y6171759D01*
X32854029Y6049864D01*
X32600029Y6049864D01*
X32376900Y6171759D01*
X32110738Y6076575D01*
X31868259Y5931294D01*
X31658782Y5741499D01*
X31490358Y5514484D01*
X31369458Y5258973D01*
X31328241Y5123100D01*
X18657330Y5123100D01*
X18604877Y5249731D01*
X18514372Y5385181D01*
X18399181Y5500372D01*
X18263731Y5590877D01*
X18113227Y5653218D01*
X17953452Y5685000D01*
X17790548Y5685000D01*
X17630773Y5653218D01*
X17480269Y5590877D01*
X17344819Y5500372D01*
X17272000Y5427553D01*
X17199181Y5500372D01*
X17063731Y5590877D01*
X16913227Y5653218D01*
X16753452Y5685000D01*
X16590548Y5685000D01*
X16430773Y5653218D01*
X16280269Y5590877D01*
X16144819Y5500372D01*
X16029628Y5385181D01*
X15939123Y5249731D01*
X15876782Y5099227D01*
X15845000Y4939452D01*
X5352000Y4939452D01*
X5352000Y7005291D01*
X36549777Y7005291D01*
X36549777Y6783291D01*
X36593087Y6565557D01*
X36678043Y6360456D01*
X36801379Y6175870D01*
X36958356Y6018893D01*
X37142942Y5895557D01*
X37348043Y5810601D01*
X37565777Y5767291D01*
X37787777Y5767291D01*
X38005511Y5810601D01*
X38210612Y5895557D01*
X38395198Y6018893D01*
X38552175Y6175870D01*
X38675511Y6360456D01*
X38760467Y6565557D01*
X38803777Y6783291D01*
X38803777Y7005291D01*
X38760467Y7223025D01*
X38675511Y7428126D01*
X38552175Y7612712D01*
X38395198Y7769689D01*
X38210612Y7893025D01*
X38005511Y7977981D01*
X37787777Y8021291D01*
X37565777Y8021291D01*
X37348043Y7977981D01*
X37142942Y7893025D01*
X36958356Y7769689D01*
X36801379Y7612712D01*
X36678043Y7428126D01*
X36593087Y7223025D01*
X36549777Y7005291D01*
X5352000Y7005291D01*
X5352000Y8646395D01*
X6326000Y8646395D01*
X6451914Y8356423D01*
X6784126Y8190567D01*
X7142312Y8092710D01*
X7512706Y8066611D01*
X7881075Y8113275D01*
X8233262Y8230906D01*
X8468086Y8356423D01*
X8594000Y8646395D01*
X7460000Y9780395D01*
X6326000Y8646395D01*
X5352000Y8646395D01*
X5352000Y9907294D01*
X5566611Y9907294D01*
X5613275Y9538925D01*
X5730906Y9186738D01*
X5856423Y8951914D01*
X6146395Y8826000D01*
X7280395Y9960000D01*
X7639605Y9960000D01*
X8773605Y8826000D01*
X9063577Y8951914D01*
X9229433Y9284126D01*
X9327290Y9642312D01*
X9346856Y9920000D01*
X15151240Y9920000D01*
X15174228Y9686602D01*
X15242307Y9462173D01*
X15352863Y9255338D01*
X15501646Y9074046D01*
X15682938Y8925263D01*
X15889773Y8814707D01*
X16114202Y8746628D01*
X16289119Y8729400D01*
X16710881Y8729400D01*
X16885798Y8746628D01*
X17110227Y8814707D01*
X17317062Y8925263D01*
X17498354Y9074046D01*
X17647137Y9255338D01*
X17757693Y9462173D01*
X17825772Y9686602D01*
X17848760Y9920000D01*
X17840881Y10000000D01*
X31151240Y10000000D01*
X31174228Y9766602D01*
X31242307Y9542173D01*
X31352863Y9335338D01*
X31501646Y9154046D01*
X31682938Y9005263D01*
X31889773Y8894707D01*
X32114202Y8826628D01*
X32289119Y8809400D01*
X32710881Y8809400D01*
X32885798Y8826628D01*
X33110227Y8894707D01*
X33317062Y9005263D01*
X33498354Y9154046D01*
X33647137Y9335338D01*
X33757693Y9542173D01*
X33825772Y9766602D01*
X33844820Y9960000D01*
X35183640Y9960000D01*
X35206628Y9726602D01*
X35274707Y9502173D01*
X35385263Y9295338D01*
X35534046Y9114046D01*
X35715338Y8965263D01*
X35922173Y8854707D01*
X36146602Y8786628D01*
X36321519Y8769400D01*
X36438481Y8769400D01*
X36613398Y8786628D01*
X36837827Y8854707D01*
X37044662Y8965263D01*
X37225954Y9114046D01*
X37374737Y9295338D01*
X37485293Y9502173D01*
X37553372Y9726602D01*
X37576360Y9960000D01*
X37723640Y9960000D01*
X37746628Y9726602D01*
X37814707Y9502173D01*
X37925263Y9295338D01*
X38074046Y9114046D01*
X38255338Y8965263D01*
X38462173Y8854707D01*
X38686602Y8786628D01*
X38861519Y8769400D01*
X38978481Y8769400D01*
X39153398Y8786628D01*
X39377827Y8854707D01*
X39584662Y8965263D01*
X39765954Y9114046D01*
X39914737Y9295338D01*
X40025293Y9502173D01*
X40093372Y9726602D01*
X40116360Y9960000D01*
X40263640Y9960000D01*
X40286628Y9726602D01*
X40354707Y9502173D01*
X40465263Y9295338D01*
X40614046Y9114046D01*
X40795338Y8965263D01*
X41002173Y8854707D01*
X41226602Y8786628D01*
X41401519Y8769400D01*
X41518481Y8769400D01*
X41693398Y8786628D01*
X41917827Y8854707D01*
X42124662Y8965263D01*
X42305954Y9114046D01*
X42454737Y9295338D01*
X42565293Y9502173D01*
X42633372Y9726602D01*
X42656360Y9960000D01*
X42633372Y10193398D01*
X42565293Y10417827D01*
X42454737Y10624662D01*
X42305954Y10805954D01*
X42124662Y10954737D01*
X41917827Y11065293D01*
X41693398Y11133372D01*
X41518481Y11150600D01*
X41401519Y11150600D01*
X41226602Y11133372D01*
X41002173Y11065293D01*
X40795338Y10954737D01*
X40614046Y10805954D01*
X40465263Y10624662D01*
X40354707Y10417827D01*
X40286628Y10193398D01*
X40263640Y9960000D01*
X40116360Y9960000D01*
X40093372Y10193398D01*
X40025293Y10417827D01*
X39914737Y10624662D01*
X39765954Y10805954D01*
X39584662Y10954737D01*
X39377827Y11065293D01*
X39153398Y11133372D01*
X38978481Y11150600D01*
X38861519Y11150600D01*
X38686602Y11133372D01*
X38462173Y11065293D01*
X38255338Y10954737D01*
X38074046Y10805954D01*
X37925263Y10624662D01*
X37814707Y10417827D01*
X37746628Y10193398D01*
X37723640Y9960000D01*
X37576360Y9960000D01*
X37553372Y10193398D01*
X37485293Y10417827D01*
X37374737Y10624662D01*
X37225954Y10805954D01*
X37044662Y10954737D01*
X36837827Y11065293D01*
X36613398Y11133372D01*
X36438481Y11150600D01*
X36321519Y11150600D01*
X36146602Y11133372D01*
X35922173Y11065293D01*
X35715338Y10954737D01*
X35534046Y10805954D01*
X35385263Y10624662D01*
X35274707Y10417827D01*
X35206628Y10193398D01*
X35183640Y9960000D01*
X33844820Y9960000D01*
X33848760Y10000000D01*
X33825772Y10233398D01*
X33757693Y10457827D01*
X33647137Y10664662D01*
X33498354Y10845954D01*
X33317062Y10994737D01*
X33110227Y11105293D01*
X32885798Y11173372D01*
X32710881Y11190600D01*
X32289119Y11190600D01*
X32114202Y11173372D01*
X31889773Y11105293D01*
X31682938Y10994737D01*
X31501646Y10845954D01*
X31352863Y10664662D01*
X31242307Y10457827D01*
X31174228Y10233398D01*
X31151240Y10000000D01*
X17840881Y10000000D01*
X17825772Y10153398D01*
X17757693Y10377827D01*
X17647137Y10584662D01*
X17498354Y10765954D01*
X17317062Y10914737D01*
X17110227Y11025293D01*
X16885798Y11093372D01*
X16710881Y11110600D01*
X16289119Y11110600D01*
X16114202Y11093372D01*
X15889773Y11025293D01*
X15682938Y10914737D01*
X15501646Y10765954D01*
X15352863Y10584662D01*
X15242307Y10377827D01*
X15174228Y10153398D01*
X15151240Y9920000D01*
X9346856Y9920000D01*
X9353389Y10012706D01*
X9306725Y10381075D01*
X9189094Y10733262D01*
X9063577Y10968086D01*
X8773605Y11094000D01*
X7639605Y9960000D01*
X7280395Y9960000D01*
X6146395Y11094000D01*
X5856423Y10968086D01*
X5690567Y10635874D01*
X5592710Y10277688D01*
X5566611Y9907294D01*
X5352000Y9907294D01*
X5352000Y11273605D01*
X6326000Y11273605D01*
X7460000Y10139605D01*
X8594000Y11273605D01*
X8468086Y11563577D01*
X8135874Y11729433D01*
X7777688Y11827290D01*
X7407294Y11853389D01*
X7038925Y11806725D01*
X6686738Y11689094D01*
X6451914Y11563577D01*
X6326000Y11273605D01*
X5352000Y11273605D01*
X5352000Y12630698D01*
X8673000Y12630698D01*
X8673000Y12369302D01*
X8723996Y12112928D01*
X8824028Y11871430D01*
X8969252Y11654087D01*
X9154087Y11469252D01*
X9371430Y11324028D01*
X9612928Y11223996D01*
X9869302Y11173000D01*
X10130698Y11173000D01*
X10387072Y11223996D01*
X10628570Y11324028D01*
X10845913Y11469252D01*
X11030748Y11654087D01*
X11175972Y11871430D01*
X11276004Y12112928D01*
X11327000Y12369302D01*
X11327000Y12460000D01*
X15151240Y12460000D01*
X15174228Y12226602D01*
X15242307Y12002173D01*
X15352863Y11795338D01*
X15501646Y11614046D01*
X15682938Y11465263D01*
X15889773Y11354707D01*
X16114202Y11286628D01*
X16289119Y11269400D01*
X16710881Y11269400D01*
X16885798Y11286628D01*
X17110227Y11354707D01*
X17317062Y11465263D01*
X17498354Y11614046D01*
X17647137Y11795338D01*
X17757693Y12002173D01*
X17825772Y12226602D01*
X17848760Y12460000D01*
X17840881Y12540000D01*
X31151240Y12540000D01*
X31174228Y12306602D01*
X31242307Y12082173D01*
X31352863Y11875338D01*
X31501646Y11694046D01*
X31682938Y11545263D01*
X31889773Y11434707D01*
X32114202Y11366628D01*
X32289119Y11349400D01*
X32710881Y11349400D01*
X32885798Y11366628D01*
X33110227Y11434707D01*
X33317062Y11545263D01*
X33498354Y11694046D01*
X33647137Y11875338D01*
X33757693Y12082173D01*
X33825772Y12306602D01*
X33844820Y12500000D01*
X35183640Y12500000D01*
X35206628Y12266602D01*
X35274707Y12042173D01*
X35385263Y11835338D01*
X35534046Y11654046D01*
X35715338Y11505263D01*
X35922173Y11394707D01*
X36146602Y11326628D01*
X36321519Y11309400D01*
X36438481Y11309400D01*
X36613398Y11326628D01*
X36837827Y11394707D01*
X37044662Y11505263D01*
X37225954Y11654046D01*
X37374737Y11835338D01*
X37485293Y12042173D01*
X37553372Y12266602D01*
X37576360Y12500000D01*
X37563488Y12630698D01*
X37593000Y12630698D01*
X37593000Y12369302D01*
X37643996Y12112928D01*
X37744028Y11871430D01*
X37889252Y11654087D01*
X38074087Y11469252D01*
X38291430Y11324028D01*
X38532928Y11223996D01*
X38789302Y11173000D01*
X39050698Y11173000D01*
X39307072Y11223996D01*
X39548570Y11324028D01*
X39765913Y11469252D01*
X39950748Y11654087D01*
X40095972Y11871430D01*
X40196004Y12112928D01*
X40247000Y12369302D01*
X40247000Y12500000D01*
X40263640Y12500000D01*
X40286628Y12266602D01*
X40354707Y12042173D01*
X40465263Y11835338D01*
X40614046Y11654046D01*
X40795338Y11505263D01*
X41002173Y11394707D01*
X41226602Y11326628D01*
X41401519Y11309400D01*
X41518481Y11309400D01*
X41693398Y11326628D01*
X41917827Y11394707D01*
X42124662Y11505263D01*
X42305954Y11654046D01*
X42454737Y11835338D01*
X42565293Y12042173D01*
X42633372Y12266602D01*
X42656360Y12500000D01*
X42633372Y12733398D01*
X42565293Y12957827D01*
X42454737Y13164662D01*
X42305954Y13345954D01*
X42303145Y13348259D01*
X42331845Y13363600D01*
X42807818Y13363600D01*
X42807818Y11636400D01*
X42814132Y11572297D01*
X42832830Y11510657D01*
X42863194Y11453850D01*
X42904057Y11404057D01*
X42953850Y11363194D01*
X43010657Y11332830D01*
X43072297Y11314132D01*
X43136400Y11307818D01*
X44863600Y11307818D01*
X44927703Y11314132D01*
X44989343Y11332830D01*
X45046150Y11363194D01*
X45095943Y11404057D01*
X45136806Y11453850D01*
X45167170Y11510657D01*
X45182669Y11561754D01*
X47473000Y11561754D01*
X47473000Y11438246D01*
X47497095Y11317111D01*
X47544360Y11203004D01*
X47612977Y11100311D01*
X47700311Y11012977D01*
X47803004Y10944360D01*
X47917111Y10897095D01*
X48038246Y10873000D01*
X48161754Y10873000D01*
X48282889Y10897095D01*
X48396996Y10944360D01*
X48499689Y11012977D01*
X48587023Y11100311D01*
X48655640Y11203004D01*
X48702905Y11317111D01*
X48727000Y11438246D01*
X48727000Y11561754D01*
X52273000Y11561754D01*
X52273000Y11438246D01*
X52297095Y11317111D01*
X52344360Y11203004D01*
X52412977Y11100311D01*
X52500311Y11012977D01*
X52603004Y10944360D01*
X52717111Y10897095D01*
X52838246Y10873000D01*
X52961754Y10873000D01*
X53082889Y10897095D01*
X53196996Y10944360D01*
X53299689Y11012977D01*
X53387023Y11100311D01*
X53455640Y11203004D01*
X53502905Y11317111D01*
X53527000Y11438246D01*
X53527000Y11561754D01*
X53502905Y11682889D01*
X53455640Y11796996D01*
X53387023Y11899689D01*
X53299689Y11987023D01*
X53196996Y12055640D01*
X53082889Y12102905D01*
X52961754Y12127000D01*
X52838246Y12127000D01*
X52717111Y12102905D01*
X52603004Y12055640D01*
X52500311Y11987023D01*
X52412977Y11899689D01*
X52344360Y11796996D01*
X52297095Y11682889D01*
X52273000Y11561754D01*
X48727000Y11561754D01*
X48702905Y11682889D01*
X48655640Y11796996D01*
X48587023Y11899689D01*
X48499689Y11987023D01*
X48396996Y12055640D01*
X48282889Y12102905D01*
X48161754Y12127000D01*
X48038246Y12127000D01*
X47917111Y12102905D01*
X47803004Y12055640D01*
X47700311Y11987023D01*
X47612977Y11899689D01*
X47544360Y11796996D01*
X47497095Y11682889D01*
X47473000Y11561754D01*
X45182669Y11561754D01*
X45185868Y11572297D01*
X45192182Y11636400D01*
X45192182Y13258810D01*
X48175944Y13258810D01*
X48175944Y13135302D01*
X48200039Y13014167D01*
X48247304Y12900060D01*
X48315921Y12797367D01*
X48403255Y12710033D01*
X48505948Y12641416D01*
X48620055Y12594151D01*
X48741190Y12570056D01*
X48864698Y12570056D01*
X48985833Y12594151D01*
X49099940Y12641416D01*
X49202633Y12710033D01*
X49289967Y12797367D01*
X49358584Y12900060D01*
X49405849Y13014167D01*
X49429944Y13135302D01*
X49429944Y13258810D01*
X51570056Y13258810D01*
X51570056Y13135302D01*
X51594151Y13014167D01*
X51641416Y12900060D01*
X51710033Y12797367D01*
X51797367Y12710033D01*
X51900060Y12641416D01*
X52014167Y12594151D01*
X52135302Y12570056D01*
X52258810Y12570056D01*
X52379945Y12594151D01*
X52494052Y12641416D01*
X52596745Y12710033D01*
X52684079Y12797367D01*
X52752696Y12900060D01*
X52799961Y13014167D01*
X52824056Y13135302D01*
X52824056Y13258810D01*
X52799961Y13379945D01*
X52752696Y13494052D01*
X52684079Y13596745D01*
X52596745Y13684079D01*
X52494052Y13752696D01*
X52379945Y13799961D01*
X52258810Y13824056D01*
X52135302Y13824056D01*
X52014167Y13799961D01*
X51900060Y13752696D01*
X51797367Y13684079D01*
X51710033Y13596745D01*
X51641416Y13494052D01*
X51594151Y13379945D01*
X51570056Y13258810D01*
X49429944Y13258810D01*
X49405849Y13379945D01*
X49358584Y13494052D01*
X49289967Y13596745D01*
X49202633Y13684079D01*
X49099940Y13752696D01*
X48985833Y13799961D01*
X48864698Y13824056D01*
X48741190Y13824056D01*
X48620055Y13799961D01*
X48505948Y13752696D01*
X48403255Y13684079D01*
X48315921Y13596745D01*
X48247304Y13494052D01*
X48200039Y13379945D01*
X48175944Y13258810D01*
X45192182Y13258810D01*
X45192182Y13363600D01*
X45185868Y13427703D01*
X45167170Y13489343D01*
X45136806Y13546150D01*
X45095943Y13595943D01*
X45046150Y13636806D01*
X44989343Y13667170D01*
X44927703Y13685868D01*
X44863600Y13692182D01*
X43136400Y13692182D01*
X43072297Y13685868D01*
X43010657Y13667170D01*
X42953850Y13636806D01*
X42904057Y13595943D01*
X42863194Y13546150D01*
X42832830Y13489343D01*
X42814132Y13427703D01*
X42807818Y13363600D01*
X42331845Y13363600D01*
X42468086Y13436423D01*
X42594000Y13726395D01*
X41460000Y14860395D01*
X40326000Y13726395D01*
X40451914Y13436423D01*
X40621262Y13351876D01*
X40614046Y13345954D01*
X40465263Y13164662D01*
X40354707Y12957827D01*
X40286628Y12733398D01*
X40263640Y12500000D01*
X40247000Y12500000D01*
X40247000Y12630698D01*
X40196004Y12887072D01*
X40095972Y13128570D01*
X39950748Y13345913D01*
X39765913Y13530748D01*
X39548570Y13675972D01*
X39307072Y13776004D01*
X39050698Y13827000D01*
X38789302Y13827000D01*
X38532928Y13776004D01*
X38291430Y13675972D01*
X38074087Y13530748D01*
X37889252Y13345913D01*
X37744028Y13128570D01*
X37643996Y12887072D01*
X37593000Y12630698D01*
X37563488Y12630698D01*
X37553372Y12733398D01*
X37485293Y12957827D01*
X37374737Y13164662D01*
X37225954Y13345954D01*
X37223145Y13348259D01*
X37388086Y13436423D01*
X37514000Y13726395D01*
X36380000Y14860395D01*
X35246000Y13726395D01*
X35371914Y13436423D01*
X35541262Y13351876D01*
X35534046Y13345954D01*
X35385263Y13164662D01*
X35274707Y12957827D01*
X35206628Y12733398D01*
X35183640Y12500000D01*
X33844820Y12500000D01*
X33848760Y12540000D01*
X33825772Y12773398D01*
X33757693Y12997827D01*
X33647137Y13204662D01*
X33498354Y13385954D01*
X33317062Y13534737D01*
X33110227Y13645293D01*
X32885798Y13713372D01*
X32710881Y13730600D01*
X32289119Y13730600D01*
X32114202Y13713372D01*
X31889773Y13645293D01*
X31682938Y13534737D01*
X31501646Y13385954D01*
X31352863Y13204662D01*
X31242307Y12997827D01*
X31174228Y12773398D01*
X31151240Y12540000D01*
X17840881Y12540000D01*
X17825772Y12693398D01*
X17757693Y12917827D01*
X17647137Y13124662D01*
X17498354Y13305954D01*
X17317062Y13454737D01*
X17110227Y13565293D01*
X16885798Y13633372D01*
X16710881Y13650600D01*
X16289119Y13650600D01*
X16114202Y13633372D01*
X15889773Y13565293D01*
X15682938Y13454737D01*
X15501646Y13305954D01*
X15352863Y13124662D01*
X15242307Y12917827D01*
X15174228Y12693398D01*
X15151240Y12460000D01*
X11327000Y12460000D01*
X11327000Y12630698D01*
X11276004Y12887072D01*
X11175972Y13128570D01*
X11030748Y13345913D01*
X10845913Y13530748D01*
X10628570Y13675972D01*
X10387072Y13776004D01*
X10130698Y13827000D01*
X9869302Y13827000D01*
X9612928Y13776004D01*
X9371430Y13675972D01*
X9154087Y13530748D01*
X8969252Y13345913D01*
X8824028Y13128570D01*
X8723996Y12887072D01*
X8673000Y12630698D01*
X5352000Y12630698D01*
X5352000Y13726395D01*
X6326000Y13726395D01*
X6451914Y13436423D01*
X6784126Y13270567D01*
X7142312Y13172710D01*
X7512706Y13146611D01*
X7881075Y13193275D01*
X8233262Y13310906D01*
X8468086Y13436423D01*
X8594000Y13726395D01*
X7460000Y14860395D01*
X6326000Y13726395D01*
X5352000Y13726395D01*
X5352000Y14482785D01*
X5404087Y15014003D01*
X5553361Y15508427D01*
X5795832Y15964449D01*
X5844395Y16023995D01*
X5690567Y15715874D01*
X5592710Y15357688D01*
X5566611Y14987294D01*
X5613275Y14618925D01*
X5730906Y14266738D01*
X5856423Y14031914D01*
X6146395Y13906000D01*
X7280395Y15040000D01*
X7639605Y15040000D01*
X8773605Y13906000D01*
X9063577Y14031914D01*
X9229433Y14364126D01*
X9327290Y14722312D01*
X9353389Y15092706D01*
X9306725Y15461075D01*
X9189094Y15813262D01*
X9162188Y15863600D01*
X15155418Y15863600D01*
X15155418Y14136400D01*
X15161732Y14072297D01*
X15180430Y14010657D01*
X15210794Y13953850D01*
X15251657Y13904057D01*
X15301450Y13863194D01*
X15358257Y13832830D01*
X15419897Y13814132D01*
X15484000Y13807818D01*
X17516000Y13807818D01*
X17580103Y13814132D01*
X17641743Y13832830D01*
X17698550Y13863194D01*
X17748343Y13904057D01*
X17789206Y13953850D01*
X17819570Y14010657D01*
X17838268Y14072297D01*
X17844582Y14136400D01*
X17844582Y15863600D01*
X17838268Y15927703D01*
X17833446Y15943600D01*
X31155418Y15943600D01*
X31155418Y14216400D01*
X31161732Y14152297D01*
X31180430Y14090657D01*
X31210794Y14033850D01*
X31251657Y13984057D01*
X31301450Y13943194D01*
X31358257Y13912830D01*
X31419897Y13894132D01*
X31484000Y13887818D01*
X33516000Y13887818D01*
X33580103Y13894132D01*
X33641743Y13912830D01*
X33698550Y13943194D01*
X33748343Y13984057D01*
X33789206Y14033850D01*
X33819570Y14090657D01*
X33838268Y14152297D01*
X33844582Y14216400D01*
X33844582Y14987294D01*
X34486611Y14987294D01*
X34533275Y14618925D01*
X34650906Y14266738D01*
X34776423Y14031914D01*
X35066395Y13906000D01*
X36200395Y15040000D01*
X36559605Y15040000D01*
X37693605Y13906000D01*
X37983577Y14031914D01*
X38149433Y14364126D01*
X38247290Y14722312D01*
X38265961Y14987294D01*
X39566611Y14987294D01*
X39613275Y14618925D01*
X39730906Y14266738D01*
X39856423Y14031914D01*
X40146395Y13906000D01*
X41280395Y15040000D01*
X41639605Y15040000D01*
X42773605Y13906000D01*
X42902002Y13961754D01*
X49873000Y13961754D01*
X49873000Y13838246D01*
X49897095Y13717111D01*
X49944360Y13603004D01*
X50012977Y13500311D01*
X50100311Y13412977D01*
X50203004Y13344360D01*
X50317111Y13297095D01*
X50438246Y13273000D01*
X50561754Y13273000D01*
X50682889Y13297095D01*
X50796996Y13344360D01*
X50899689Y13412977D01*
X50987023Y13500311D01*
X51055640Y13603004D01*
X51102905Y13717111D01*
X51127000Y13838246D01*
X51127000Y13961754D01*
X51102905Y14082889D01*
X51055640Y14196996D01*
X50987023Y14299689D01*
X50899689Y14387023D01*
X50796996Y14455640D01*
X50682889Y14502905D01*
X50561754Y14527000D01*
X50438246Y14527000D01*
X50317111Y14502905D01*
X50203004Y14455640D01*
X50100311Y14387023D01*
X50012977Y14299689D01*
X49944360Y14196996D01*
X49897095Y14082889D01*
X49873000Y13961754D01*
X42902002Y13961754D01*
X43063577Y14031914D01*
X43229433Y14364126D01*
X43327290Y14722312D01*
X43353389Y15092706D01*
X43306725Y15461075D01*
X43189094Y15813262D01*
X43063577Y16048086D01*
X42773605Y16174000D01*
X41639605Y15040000D01*
X41280395Y15040000D01*
X40146395Y16174000D01*
X39856423Y16048086D01*
X39690567Y15715874D01*
X39592710Y15357688D01*
X39566611Y14987294D01*
X38265961Y14987294D01*
X38273389Y15092706D01*
X38226725Y15461075D01*
X38109094Y15813262D01*
X37983577Y16048086D01*
X37693605Y16174000D01*
X36559605Y15040000D01*
X36200395Y15040000D01*
X35066395Y16174000D01*
X34776423Y16048086D01*
X34610567Y15715874D01*
X34512710Y15357688D01*
X34486611Y14987294D01*
X33844582Y14987294D01*
X33844582Y15943600D01*
X33838268Y16007703D01*
X33819570Y16069343D01*
X33789206Y16126150D01*
X33748343Y16175943D01*
X33698550Y16216806D01*
X33641743Y16247170D01*
X33580103Y16265868D01*
X33516000Y16272182D01*
X31484000Y16272182D01*
X31419897Y16265868D01*
X31358257Y16247170D01*
X31301450Y16216806D01*
X31251657Y16175943D01*
X31210794Y16126150D01*
X31180430Y16069343D01*
X31161732Y16007703D01*
X31155418Y15943600D01*
X17833446Y15943600D01*
X17819570Y15989343D01*
X17789206Y16046150D01*
X17748343Y16095943D01*
X17698550Y16136806D01*
X17641743Y16167170D01*
X17580103Y16185868D01*
X17516000Y16192182D01*
X15484000Y16192182D01*
X15419897Y16185868D01*
X15358257Y16167170D01*
X15301450Y16136806D01*
X15251657Y16095943D01*
X15210794Y16046150D01*
X15180430Y15989343D01*
X15161732Y15927703D01*
X15155418Y15863600D01*
X9162188Y15863600D01*
X9063577Y16048086D01*
X8773605Y16174000D01*
X7639605Y15040000D01*
X7280395Y15040000D01*
X7266253Y15054143D01*
X7445858Y15233748D01*
X7460000Y15219605D01*
X8594000Y16353605D01*
X35246000Y16353605D01*
X36380000Y15219605D01*
X37514000Y16353605D01*
X40326000Y16353605D01*
X41460000Y15219605D01*
X42594000Y16353605D01*
X42468086Y16643577D01*
X42135874Y16809433D01*
X41777688Y16907290D01*
X41407294Y16933389D01*
X41038925Y16886725D01*
X40686738Y16769094D01*
X40451914Y16643577D01*
X40326000Y16353605D01*
X37514000Y16353605D01*
X37388086Y16643577D01*
X37055874Y16809433D01*
X36697688Y16907290D01*
X36327294Y16933389D01*
X35958925Y16886725D01*
X35606738Y16769094D01*
X35371914Y16643577D01*
X35246000Y16353605D01*
X8594000Y16353605D01*
X8468086Y16643577D01*
X8135874Y16809433D01*
X7777688Y16907290D01*
X7407294Y16933389D01*
X7038925Y16886725D01*
X6686738Y16769094D01*
X6473012Y16654854D01*
X6520203Y16693894D01*
X6974513Y16939537D01*
X7467885Y17092262D01*
X7998117Y17147991D01*
X8000653Y17148000D01*
X52482785Y17148000D01*
X53014003Y17095913D01*
M02*
